<?xml version="1.0" encoding="utf-8"?>
<!-- Generator: Adobe Adobe Illustrator 24.2.0, SVG Export Plug-In . SVG Version: 6.00 Build 0)  -->
<svg version="1.1" id="Layer_1" xmlns="http://www.w3.org/2000/svg" xmlns:xlink="http://www.w3.org/1999/xlink" x="0px" y="0px"
	 width="1920px" height="470px" viewBox="0 0 1920 470" style="enable-background:new 0 0 1920 470;" xml:space="preserve">
<style type="text/css">
	.st0{fill:#FFFFFF;}
</style>
<path class="st0" d="M1357.89,271.12c-11.57,0-22.83,0.06-34.09-0.06c-2.54-0.03-4.05,0.74-5.24,3.04
	c-3.65,7.04-7.62,13.91-11.23,20.96c-1.21,2.36-2.84,3.1-5.27,3.08c-7.24-0.05-14.48,0-21.72-0.02c-0.79,0-1.6-0.1-2.38-0.27
	c-0.61-0.13-0.96-0.83-0.78-1.43c0.15-0.48,0.33-0.95,0.57-1.39c4.29-7.72,8.58-15.44,12.88-23.16c3.37-6.05,6.73-12.1,10.11-18.15
	c0.34-0.61,0.71-1.21,1.13-1.77c0.57-0.77,1.35-1.17,2.34-1.15c1.01,0.02,2.01-0.01,3.02-0.01c27.76,0,55.52-0.01,83.27-0.01
	c2.61,0,5.23-0.03,7.84,0.02c2.18,0.04,2.67,0.42,3.12,2.48c1.02,4.71,1.96,9.43,2.96,14.14c0.65,3.04,1.35,6.07,2.02,9.1
	c0.48,2.15,0.99,4.3,1.44,6.46c0.86,4.13,1.68,8.26,2.51,12.39c0.35,1.73-0.16,2.47-1.89,2.67c-0.7,0.08-1.41,0.07-2.11,0.07
	c-8.65,0.01-17.3,0.01-25.95,0.01c-0.3,0-0.6,0.01-0.91-0.01c-2.22-0.09-2.65-0.37-3.07-2.49c-0.92-4.52-1.79-9.05-2.65-13.59
	c-0.52-2.76-1-5.53-1.49-8.29c-0.37-2.06-0.89-2.59-2.97-2.63C1365.64,271.09,1361.92,271.13,1357.89,271.12z"/>
<path class="st0" d="M1083.73,291.63c-2.82,1.12-5.4,2.27-8.05,3.16c-4.2,1.41-8.53,2.32-12.94,2.73c-4.1,0.39-8.21,0.66-12.34,0.64
	c-15.59-0.06-31.17-0.02-46.76-0.03c-1,0-2.01,0-3.01-0.09c-0.9-0.08-1.44-0.71-1.42-1.64c0.01-0.8,0.11-1.6,0.26-2.39
	c0.7-3.75,1.47-7.48,2.13-11.24c0.7-3.95,1.25-7.93,1.95-11.88c0.64-3.65,1.4-7.28,2.08-10.93c0.25-1.38,0.41-2.78,0.61-4.17
	c0.09-0.6,0.19-1.19,0.31-1.78c0.63-2.85,1.05-3.21,4.09-3.22c7.94-0.02,15.89-0.02,23.83-0.02c0.6,0,1.21,0,1.81,0.07
	c1.21,0.14,1.83,0.78,1.75,2c-0.1,1.5-0.29,3-0.56,4.48c-0.72,4.05-1.52,8.08-2.24,12.13c-0.28,1.58-0.47,3.18-0.62,4.78
	c-0.13,1.37,0.46,1.99,1.92,2.1c0.6,0.05,1.21,0.02,1.81,0.02c4.83,0,9.65-0.07,14.48,0.01c3.45,0.06,6.85-0.4,10.15-1.21
	c3.81-0.93,6.94-3.14,9.37-6.23c3.21-4.08,4.73-8.81,4.93-13.95c0.15-4.12,0.15-4.18,4.3-4.18c7.64-0.01,15.28-0.01,22.93-0.01
	c0.8,0,1.62-0.02,2.41,0.09c1.44,0.21,2.21,1.03,2.07,2.47c-0.5,5.09-1.09,10.16-2.93,15.02c-3.73,9.88-10.64,16.84-19.7,21.92
	C1085.55,290.73,1084.74,291.13,1083.73,291.63z"/>
<path class="st0" d="M1689.2,250.79c0.68,0.03,1.1-0.01,1.47,0.1c0.84,0.24,1.25,0.76,1.14,1.5c-0.09,0.58-0.27,1.17-0.49,1.71
	c-5.29,12.91-13.69,23.23-25.4,30.93c-5.58,3.67-11.43,6.73-17.7,8.92c-5.7,1.98-11.6,3.22-17.64,3.75
	c-3.71,0.33-7.42,0.46-11.14,0.45c-12.77-0.03-25.54-0.01-38.31-0.01c-1.01,0-2.01,0.01-3.01-0.06c-1.08-0.08-1.62-0.69-1.57-1.8
	c0.04-0.79,0.23-1.58,0.37-2.37c0.7-3.95,1.41-7.9,2.12-11.85c0.8-4.44,1.62-8.88,2.39-13.33c0.73-4.15,1.4-8.31,2.12-12.46
	c0.22-1.28,0.48-2.56,0.83-3.82c0.3-1.08,1.09-1.65,2.24-1.65c0.4,0,0.8-0.01,1.21-0.01c8.04,0,16.09,0,24.13,0
	c0.7,0,1.41,0,2.1,0.1c1.19,0.17,1.8,0.92,1.61,2.1c-0.44,2.77-0.95,5.54-1.44,8.3c-0.63,3.56-1.28,7.11-1.89,10.67
	c-0.08,0.49-0.1,1-0.03,1.49c0.08,0.65,0.49,1.12,1.16,1.21c0.69,0.1,1.4,0.12,2.1,0.12c3.72,0.02,7.45,0.15,11.16,0
	c12.88-0.53,22.83-6.26,29.78-17.12c0.97-1.52,1.83-3.12,2.55-4.77c0.61-1.39,1.6-2,3.02-2.08c0.8-0.05,1.61-0.04,2.41-0.04
	C1672.64,250.78,1680.78,250.79,1689.2,250.79z"/>
<path class="st0" d="M1158.46,288.83c-6.06-5.46-10.05-11.89-12.15-19.59c-1.31-4.8-1.7-9.68-2.06-14.57
	c-0.24-3.29,0.44-3.86,3.79-3.87c8.45-0.03,16.9,0,25.35,0c0.3,0,0.6-0.01,0.9,0.02c1.84,0.14,2.32,0.58,2.45,2.35
	c0.06,0.8,0.07,1.61,0.05,2.41c-0.05,3.17,0.72,6.21,1.9,9.09c2.16,5.26,5.89,8.94,11.44,10.79c5.13,1.71,10.31,1.64,15.48,0.63
	c5.87-1.14,10.87-4.1,15.16-8.22c3.09-2.96,5.31-6.53,7.09-10.39c0.63-1.37,1.2-2.76,1.71-4.17c0.63-1.74,1.8-2.55,3.66-2.5
	c2.31,0.05,4.63,0.01,6.94,0.01c6.44-0.01,12.87-0.03,19.31-0.02c2.48,0,3.09,0.84,2.25,3.14c-3.62,9.93-8.76,18.95-16.29,26.45
	c-7.52,7.48-16.33,13.01-26.38,16.43c-5.04,1.71-10.2,2.9-15.56,3.47c-6.66,0.71-13.27,0.62-19.85-0.32
	C1174.33,298.61,1165.79,295.31,1158.46,288.83z"/>
<path class="st0" d="M1795.5,260.31c0-2.88-0.81-5.18-2.57-7.15c-0.37-0.42-0.55-1.01-0.92-1.7c0.68-0.26,1.2-0.61,1.74-0.64
	c1.5-0.08,3.01-0.02,4.52-0.02c8.65,0,17.29,0,25.94,0.01c0.8,0,1.61-0.02,2.41,0.04c1.56,0.12,2.21,0.71,2.15,2.3
	c-0.08,2.3-0.13,4.65-0.58,6.89c-0.78,3.82-1.7,7.61-3.28,11.24c-3.23,7.38-8.2,13.28-14.74,17.89c-5.38,3.79-11.31,6.44-17.63,8.3
	c-10.55,3.11-21.29,3.88-32.22,2.9c-3.82-0.34-7.6-0.79-11.3-1.76c-6.18-1.61-11.98-4.01-17.08-7.96c-5.3-4.1-8.6-9.35-9.93-15.97
	c-1.05-5.25-0.62-10.38,0.42-15.52c0.3-1.47,0.75-1.78,2.28-1.89c0.4-0.03,0.8-0.02,1.21-0.02c8.45,0,16.89-0.01,25.34,0.01
	c3.48,0.01,3.64,0.17,3.14,3.62c-0.41,2.84-0.32,5.58,0.83,8.27c0.95,2.22,2.46,3.87,4.49,5.1c3.46,2.1,7.31,2.73,11.26,2.91
	c4.35,0.19,8.62-0.25,12.75-1.75C1790.7,272.85,1794.82,268.09,1795.5,260.31z"/>
<path class="st0" d="M483.62,257.24c1.4,0.02,2.51,0,3.61,0.09c0.78,0.06,1.29,0.63,1.28,1.41c-0.02,1-0.16,2-0.22,3
	c-0.07,1.1-0.23,2.21-0.15,3.3c0.39,5,3.11,8.31,7.64,10.28c2.72,1.19,5.6,1.59,8.5,1.78c4.55,0.29,9.03-0.13,13.37-1.68
	c2.78-1,5.27-2.44,7.36-4.55c3.24-3.27,4.54-7.26,4.39-11.76c-0.07-2.16-0.73-4.14-2.3-5.74c-0.34-0.35-0.62-0.78-0.88-1.2
	c-0.24-0.39,0.1-1.14,0.55-1.22c0.59-0.1,1.19-0.17,1.79-0.17c10.35,0,20.71,0,31.06,0.03c2.77,0.01,3.13,0.36,3.08,3.15
	c-0.06,3.32-0.54,6.57-1.35,9.81c-0.95,3.83-2.34,7.45-4.18,10.92c-3.12,5.88-7.57,10.58-12.98,14.4
	c-5.54,3.92-11.64,6.66-18.17,8.51c-10.37,2.94-20.9,3.79-31.63,2.75c-3.41-0.33-6.79-0.63-10.14-1.42
	c-6.82-1.62-13.21-4.17-18.75-8.56c-4.99-3.96-8.1-9.03-9.44-15.29c-1.14-5.34-0.59-10.58,0.3-15.84c0.25-1.47,0.7-1.84,2.21-1.96
	c0.8-0.06,1.61-0.04,2.41-0.04C468.45,257.24,475.89,257.24,483.62,257.24z"/>
<path class="st0" d="M1446.12,255.05c0.17-0.63,0.28-1.02,0.38-1.41c0.71-2.72,0.79-2.82,3.7-2.83c15.29-0.02,30.59-0.02,45.88-0.02
	c8.96,0,17.91,0,26.87,0.01c0.81,0,1.61-0.01,2.41,0c2.51,0.05,3.11,0.45,3.95,2.86c2.01,5.78,3.96,11.59,5.97,17.37
	c2.51,7.2,5.06,14.38,7.58,21.58c0.43,1.23,0.82,2.48,1.17,3.74c0.2,0.72-0.27,1.46-1.01,1.61c-0.68,0.14-1.39,0.19-2.09,0.19
	c-9.36,0.01-18.72,0-28.07-0.01c-0.5,0-1.01,0-1.51-0.07c-1.2-0.16-2-0.8-2.38-1.99c-1.46-4.59-2.93-9.18-4.44-13.75
	c-1.61-4.86-3.29-9.69-4.91-14.54c-1.08-3.24-2.08-6.5-3.14-9.75c-0.4-1.24-0.86-2.47-1.29-3.7c-0.3-0.86-0.91-1.29-1.8-1.35
	c-0.3-0.02-0.6-0.05-0.9-0.05c-3.92-0.01-7.85-0.03-11.77,0c-1.87,0.01-2.53,0.58-2.99,2.32c-0.05,0.19-0.09,0.39-0.12,0.59
	c-0.65,4.06-1.28,8.13-1.96,12.19c-0.52,3.07-1.12,6.12-1.67,9.18c-0.71,3.95-1.42,7.91-2.13,11.86c-0.41,2.27-0.78,4.55-1.23,6.81
	c-0.35,1.76-0.84,2.15-2.66,2.22c-1.51,0.06-3.02,0.02-4.53,0.02c-6.84,0-13.68,0.01-20.53,0c-0.9,0-1.81-0.04-2.7-0.18
	c-0.87-0.14-1.34-0.84-1.33-1.75c0-0.3,0.04-0.6,0.09-0.9c0.97-5.33,1.97-10.66,2.92-15.99c0.83-4.64,1.6-9.3,2.41-13.95
	C1444.88,262.01,1445.47,258.65,1446.12,255.05z"/>
<path class="st0" d="M99.38,260.01c-0.42-2.12-0.8-3.99-1.15-5.86c-0.11-0.59-0.19-1.2-0.13-1.79c0.07-0.75,0.51-1.33,1.31-1.44
	c0.69-0.1,1.4-0.11,2.1-0.11c17.18,0,34.36,0,51.54,0.01c0.7,0,1.41,0,2.1,0.08c0.62,0.07,1.1,0.7,0.95,1.3
	c-0.17,0.67-0.39,1.35-0.72,1.96c-6.45,12.01-12.91,24.02-19.38,36.02c-0.95,1.76-2.03,3.47-2.86,5.28c-0.99,2.16-2.6,2.8-4.85,2.7
	c-3.01-0.12-6.03-0.02-9.04-0.02c-3.42,0-6.83,0.01-10.25-0.01c-2.32-0.02-2.76-0.32-3.26-2.65c-0.61-2.84-1.08-5.71-1.59-8.57
	c-0.71-4.05-1.39-8.1-2.11-12.15c-0.53-2.96-1.1-5.91-1.64-8.87C100.07,264.01,99.76,262.14,99.38,260.01z"/>
<path class="st0" d="M885.14,250.8c9.26,0,18.21-0.01,27.16-0.01c0.9,0,1.81-0.01,2.71,0.06c0.98,0.08,1.45,0.82,1.11,1.69
	c-0.18,0.46-0.44,0.9-0.68,1.34c-5.86,10.87-11.72,21.73-17.57,32.6c-1.62,3-3.33,5.96-4.8,9.03c-0.92,1.9-2.27,2.64-4.29,2.63
	c-6.44-0.03-12.88-0.01-19.32-0.01c-0.5,0-1.01-0.03-1.5-0.13c-1.3-0.27-2.11-0.97-2.33-2.39c-0.51-3.27-1.09-6.53-1.68-9.79
	c-1.1-6.02-2.25-12.03-3.35-18.05c-0.86-4.74-1.71-9.48-2.51-14.23c-0.3-1.76,0.48-2.64,2.29-2.73c1.41-0.06,2.82-0.03,4.22-0.03
	C871.36,250.79,878.1,250.79,885.14,250.8z"/>
<path class="st0" d="M827.19,232.49c41.94,0,83.57-0.01,125.21-0.01c3.22,0,6.44,0,9.65,0c0.7,0,1.41,0,2.11,0.08
	c0.98,0.12,1.54,0.68,1.4,1.61c-0.45,2.87-0.92,5.75-1.52,8.59c-0.3,1.42-1.08,1.91-2.65,1.94c-2.51,0.05-5.03,0.02-7.54,0.02
	c-36.71,0-73.42,0-110.12-0.01c-6.84,0-13.68,0.01-20.52,0c-0.8,0-1.61,0-2.41-0.1c-0.9-0.11-1.49-0.78-1.35-1.69
	c0.48-2.97,1.03-5.92,1.6-8.88c0.23-1.19,1.08-1.59,2.22-1.57C824.48,232.51,825.68,232.49,827.19,232.49z"/>
<path class="st0" d="M357.86,281.82c-2.74,4.46-5.37,8.73-8,13c-0.37,0.6-0.78,1.17-1.15,1.76c-0.7,1.11-1.67,1.7-3,1.69
	c-0.4,0-0.8,0.01-1.21,0.01c-9.54,0-19.09,0.01-28.63-0.02c-1.07,0-2.22,0.28-3.25-0.55c-0.21-1.05,0.36-1.89,0.88-2.73
	c4.03-6.47,8.08-12.92,12.11-19.39c4.46-7.14,8.92-14.29,13.38-21.43c0.21-0.34,0.41-0.69,0.61-1.04c0.92-1.64,2.24-2.47,4.19-2.35
	c1.7,0.1,3.41,0.04,5.12,0.04c7.74,0,15.47,0,23.21,0c0.9,0,1.81-0.01,2.71,0.08c0.95,0.09,1.37,0.87,0.89,1.75
	c-0.82,1.49-1.72,2.94-2.61,4.39C368.07,265.23,363.02,273.43,357.86,281.82z"/>
<path class="st0" d="M657.5,271.18c-3.25-5.91-6.4-11.62-9.54-17.33c-1.25-2.27-0.8-3.05,1.85-3.06c9.65-0.02,19.31,0.05,28.96-0.02
	c1.95-0.01,3.21,0.67,4.15,2.34c2.01,3.59,4.13,7.12,6.16,10.69c4.82,8.46,9.62,16.93,14.43,25.39c1.09,1.92,2.21,3.82,3.31,5.74
	c0.15,0.26,0.28,0.54,0.39,0.81c0.67,1.56,0.24,2.26-1.45,2.37c-0.4,0.03-0.8,0.01-1.21,0.01c-9.55,0-19.11-0.07-28.66,0.06
	c-2.7,0.04-4.18-0.99-5.42-3.32C666.29,286.97,661.91,279.2,657.5,271.18z"/>
<path class="st0" d="M592.33,295.3c0.96-5.39,1.9-10.52,2.79-15.66c0.69-3.95,1.31-7.92,1.98-11.88c0.84-4.94,1.7-9.89,2.57-14.83
	c0.23-1.3,0.88-1.88,2.24-2.06c0.59-0.08,1.2-0.07,1.81-0.07c8.65-0.01,17.3-0.02,25.95-0.02c0.2,0,0.4,0,0.6,0
	c2.41,0.07,2.55,0.35,1.41,2.6c-0.22,0.44-0.45,0.91-0.54,1.39c-0.47,2.46-0.89,4.94-1.34,7.41c-0.69,3.85-1.39,7.7-2.07,11.55
	c-0.7,3.95-1.4,7.91-2.08,11.86c-0.54,3.16-1.06,6.33-1.6,9.49c-0.07,0.39-0.19,0.78-0.32,1.16c-0.4,1.16-1.17,1.85-2.44,1.87
	c-0.5,0.01-1.01,0.02-1.51,0.02c-7.85,0-15.69,0-23.54,0c-0.6,0-1.21,0.01-1.81-0.04C592.72,297.93,592.49,297.65,592.33,295.3z"/>
<path class="st0" d="M253.6,298.28c-4.32,0-8.35,0.03-12.37,0c-2.4-0.02-2.84-0.53-2.45-2.91c0.54-3.37,1.16-6.72,1.75-10.08
	c0.79-4.54,1.57-9.09,2.37-13.63c0.59-3.36,1.21-6.71,1.82-10.07c0.34-1.88,0.67-3.75,1.03-5.62c0.23-1.18,0.46-2.36,0.79-3.52
	c0.27-0.95,0.94-1.53,1.97-1.58c0.6-0.03,1.21-0.05,1.81-0.05c8.04,0,16.09,0.07,24.13-0.03c3.54-0.04,4.03,0.93,3.23,4.11
	c-0.88,3.49-1.23,7.11-1.84,10.67c-0.63,3.66-1.29,7.31-1.92,10.97c-0.77,4.44-1.52,8.89-2.31,13.34c-0.4,2.27-0.84,4.54-1.31,6.79
	c-0.23,1.09-0.73,1.48-1.9,1.57c-0.9,0.07-1.81,0.07-2.71,0.07C261.75,298.28,257.83,298.28,253.6,298.28z"/>
<path class="st0" d="M378.94,291.97c0.56-3.33,1.05-6.4,1.59-9.46c0.77-4.35,1.59-8.69,2.36-13.04c0.61-3.46,1.17-6.92,1.79-10.38
	c0.39-2.17,0.8-4.34,1.26-6.5c0.26-1.21,0.81-1.62,2.12-1.73c0.7-0.06,1.41-0.05,2.11-0.05c7.94-0.01,15.89-0.03,23.83-0.02
	c3.57,0,3.85,0.45,3.21,3.83c-0.86,4.53-1.59,9.09-2.37,13.64c-0.46,2.67-0.9,5.34-1.39,8c-1.14,6.22-2.3,12.43-3.46,18.64
	c-0.07,0.39-0.13,0.79-0.24,1.18c-0.48,1.79-0.84,2.13-2.72,2.17c-2.81,0.05-5.63,0.02-8.45,0.02c-5.83,0-11.66,0.02-17.5,0
	c-2.99-0.01-3.33-0.47-2.73-3.39C378.54,294,378.72,293.11,378.94,291.97z"/>
<path class="st0" d="M742.66,298.14c-2.21,0-4.12,0.05-6.03-0.02c-1.86-0.07-2.48-0.86-2.15-2.74c0.79-4.54,1.63-9.07,2.45-13.6
	c0.49-2.76,0.98-5.53,1.45-8.3c0.66-3.96,1.28-7.92,1.95-11.87c0.45-2.67,0.92-5.33,1.43-7.99c0.44-2.3,1.03-2.79,3.49-2.81
	c5.12-0.04,10.25-0.01,15.37-0.01c3.32,0,6.63-0.04,9.95,0.01c2.73,0.04,3.22,0.59,2.84,3.24c-0.27,1.88-0.67,3.75-0.99,5.63
	c-0.68,3.95-1.35,7.9-2.03,11.85c-0.41,2.37-0.83,4.74-1.26,7.11c-0.78,4.34-1.58,8.68-2.36,13.02c-0.23,1.28-0.48,2.57-0.56,3.86
	c-0.09,1.32-0.64,2.27-2.46,2.55c-0.79,0.12-1.6,0.07-2.41,0.07C755.21,298.13,749.09,298.13,742.66,298.14z"/>
<path class="st0" d="M959.69,267.26c-1.02,5.69-2.01,11.12-2.95,16.55c-0.58,3.36-1.11,6.73-1.66,10.1c-0.05,0.3-0.07,0.6-0.12,0.9
	c-0.48,2.76-1.11,3.32-4.02,3.33c-8.35,0.02-16.69,0.02-25.04,0c-2.38-0.01-2.86-0.52-2.54-2.9c0.24-1.79,0.7-3.54,1.02-5.32
	c0.94-5.23,1.88-10.46,2.78-15.7c1.12-6.53,2.21-13.06,3.31-19.59c0.07-0.4,0.11-0.8,0.22-1.18c0.54-2.04,1.23-2.61,3.4-2.63
	c4.22-0.03,8.45-0.01,12.67-0.01c4.12,0,8.25-0.03,12.37,0.02c2.95,0.04,3.33,0.46,2.85,3.44
	C961.3,258.52,960.5,262.75,959.69,267.26z"/>
<path class="st0" d="M172.51,250.91c8.99-0.07,17.74-0.11,26.48-0.09c3.23,0.01,3.68,0.67,3.1,3.8c-0.76,4.14-1.44,8.3-2.18,12.44
	c-0.65,3.65-1.35,7.29-2.01,10.94c-0.61,3.35-1.18,6.72-1.79,10.07c-0.48,2.66-0.95,5.33-1.48,7.98c-0.29,1.47-0.77,1.87-2.2,2.03
	c-0.7,0.07-1.4,0.06-2.11,0.06c-7.74,0-15.48,0-23.21-0.01c-0.7,0-1.41,0.02-2.11-0.06c-1.32-0.16-1.95-0.98-1.73-2.3
	c0.43-2.57,0.93-5.13,1.38-7.7c0.84-4.74,1.67-9.48,2.5-14.22c0.47-2.67,0.93-5.33,1.42-8c0.79-4.34,1.6-8.67,2.39-13.01
	C171.13,252.02,171.38,251.28,172.51,250.91z"/>
<path class="st0" d="M50.06,296.34c0.43-2.93,0.85-5.6,1.33-8.26c0.68-3.75,1.42-7.48,2.11-11.22c0.54-2.96,1.06-5.92,1.57-8.88
	c0.63-3.66,1.21-7.32,1.87-10.97c0.28-1.58,0.67-3.14,1.05-4.7c0.24-1.01,0.93-1.5,1.98-1.5c0.6,0,1.21-0.02,1.81-0.02
	c5.73,0,11.45-0.01,17.18-0.01c0.5,0,1.01-0.01,1.51,0.01c2.16,0.08,2.7,0.65,2.57,2.71c-0.03,0.5-0.13,0.99-0.22,1.49
	c-0.7,3.74-1.43,7.48-2.11,11.23c-0.45,2.46-0.82,4.94-1.25,7.41c-0.69,3.95-1.4,7.9-2.09,11.84c-0.57,3.26-1.12,6.52-1.7,9.78
	c-0.09,0.49-0.22,0.98-0.42,1.44c-0.35,0.77-0.94,1.31-1.83,1.38c-0.6,0.05-1.2,0.06-1.81,0.06c-6.13,0-12.26,0-18.39-0.01
	c-0.6,0-1.21-0.01-1.8-0.1C50.62,297.91,50.2,297.37,50.06,296.34z"/>
<path class="st0" d="M841.33,262.38c-0.77,4.5-1.46,8.76-2.18,13.01c-0.35,2.08-0.78,4.14-1.16,6.21c-0.86,4.74-1.7,9.48-2.59,14.22
	c-0.34,1.79-0.82,2.17-2.63,2.28c-1.1,0.07-2.21,0.04-3.32,0.04c-5.23,0-10.46,0.01-15.69-0.01c-3.66-0.01-3.99-0.34-3.42-4.06
	c0.6-3.97,1.35-7.91,2.04-11.87c0.73-4.15,1.47-8.29,2.21-12.44c0.98-5.53,1.95-11.06,2.94-16.59c0.26-1.45,0.95-2.11,2.38-2.3
	c0.69-0.09,1.4-0.07,2.11-0.07c5.83-0.01,11.67-0.02,17.5-0.02c0.4,0,0.81-0.02,1.21,0.01c1.88,0.11,2.47,0.81,2.16,2.74
	C842.43,256.4,841.9,259.26,841.33,262.38z"/>
<path class="st0" d="M1458.12,232.5c25.65,0,50.99-0.01,76.34-0.01c2.11,0,4.22-0.01,6.34,0.01c0.6,0.01,1.2,0.07,1.79,0.18
	c0.6,0.12,0.85,0.91,0.44,1.46c-0.41,0.57-0.87,1.11-1.35,1.61c-2.59,2.68-5.41,5.07-8.53,7.14c-1.92,1.28-3.87,1.89-6.19,1.88
	c-11.47-0.07-22.93-0.04-34.4-0.04c-13.38,0-26.75,0.01-40.13,0c-1.18,0-2.41,0.24-3.65-0.41c-0.66-1.19-0.36-2.48-0.15-3.75
	c0.35-2.08,0.77-4.14,1.17-6.21c0.26-1.32,0.65-1.76,1.99-1.81C1453.79,232.46,1455.81,232.51,1458.12,232.5z"/>
<path class="st0" d="M1071.1,232.49c8.65,0,17-0.01,25.35,0c0.9,0,1.83-0.06,2.71,0.09c0.66,0.11,1.38,0.39,1.87,0.82
	c2.93,2.55,5.12,5.65,6.4,9.34c0.15,0.44,0.08,0.95,0.12,1.6c-0.79,0.14-1.45,0.36-2.12,0.36c-9.66,0.03-19.31,0.03-28.97,0.03
	c-1.01,0-2-0.06-2.85-0.75c-3.21-2.6-7.05-3.36-11.02-3.41c-6.54-0.09-13.08-0.03-19.61-0.03c-0.4,0-0.86-0.07-1.19,0.09
	c-0.51,0.24-1,0.6-1.38,1.01c-0.25,0.27-0.28,0.74-0.4,1.12c-0.49,1.66-1.71,2-3.27,1.99c-6.34-0.04-12.67-0.01-19.01-0.01
	c-2.31,0-4.63,0.03-6.94-0.02c-1.66-0.04-2.14-0.56-2.03-2.25c0.07-1.2,0.29-2.39,0.52-3.57c0.37-1.96,0.79-3.91,1.21-5.99
	c0.75-0.13,1.42-0.35,2.08-0.36c2.82-0.05,5.63-0.05,8.45-0.05C1037.61,232.48,1054.2,232.48,1071.1,232.49z"/>
<path class="st0" d="M1107.25,213.7c0.98,0.08,1.68,0.14,2.36,0.27c0.15,0.03,0.27,0.27,0.57,0.59c-0.18,0.5-0.3,1.19-0.64,1.74
	c-2.15,3.45-4.94,6.33-8.21,8.73c-0.61,0.45-1.44,0.69-2.21,0.83c-0.78,0.15-1.6,0.07-2.41,0.07c-27.06,0-54.12,0-81.18-0.01
	c-0.3,0-0.6,0.01-0.91,0c-2.69-0.05-3.04-0.47-2.58-2.99c0.34-1.88,0.7-3.75,1-5.63c0.54-3.34,0.75-3.57,4.28-3.6
	c5.43-0.03,10.86,0,16.3,0c2.62,0,5.23-0.01,7.85-0.01c0.6,0,1.21,0,1.81,0.07c0.81,0.1,1.28,0.57,1.3,1.39c0.02,1-0.11,2-0.11,3
	c0,1.17,0.46,1.67,1.58,1.79c0.4,0.04,0.8,0.04,1.21,0.04c5.43,0,10.86,0.04,16.3-0.03c3.65-0.05,7.22-0.63,10.5-2.35
	c1.32-0.7,2.59-1.55,3.73-2.5c1.24-1.03,2.54-1.43,4.14-1.42C1090.27,213.73,1098.62,213.7,1107.25,213.7z"/>
<path class="st0" d="M672,244.73c-23.32-0.05-46.33-0.09-69.35-0.15c-0.28,0-0.55-0.18-0.95-0.33c-0.07-0.35-0.25-0.74-0.2-1.09
	c0.38-2.48,0.8-4.95,1.23-7.42c0.1-0.59,0.3-1.17,0.46-1.75c0.29-1,0.98-1.47,2-1.49c0.6-0.01,1.21-0.03,1.81-0.03
	c20.3,0,40.61,0,60.91,0c0.5,0,1.01,0.02,1.51,0.02c0.98-0.01,1.79,0.37,2.28,1.21c1.8,3.12,3.58,6.26,5.34,9.41
	c0.17,0.31,0.09,0.75,0.13,1.2C675.51,244.86,673.89,244.69,672,244.73z"/>
<path class="st0" d="M382.2,244.72c-10.95,0-21.6,0.01-32.25,0.01c-0.9,0-1.81,0.01-2.71-0.07c-1.06-0.09-1.51-0.94-1.08-1.96
	c0.11-0.28,0.26-0.54,0.42-0.8c1.66-2.63,3.36-5.23,4.98-7.89c0.65-1.07,1.52-1.54,2.73-1.53c0.6,0.01,1.21,0,1.81,0
	c20.09-0.01,40.19-0.01,60.28-0.02c0.7,0,1.41-0.01,2.11,0.02c2.03,0.09,2.41,0.54,2.14,2.64c-0.15,1.19-0.35,2.38-0.58,3.56
	c-0.24,1.28-0.54,2.55-0.82,3.82c-0.39,1.81-0.72,2.08-2.65,2.18c-0.5,0.03-1,0.02-1.51,0.02
	C404.21,244.72,393.36,244.72,382.2,244.72z"/>
<path class="st0" d="M1055.41,177.73c-10.55,0-20.81-0.02-31.06-0.01c-3.25,0-4.66,0.14-3.5-3.98c0.4-1.44,0.41-2.98,0.72-4.45
	c0.3-1.46,1-2.02,2.49-2.18c0.7-0.08,1.41-0.06,2.11-0.06c15.98,0,31.96-0.08,47.95,0.04c4.51,0.03,9.07,0.33,13.51,1.07
	c6.45,1.08,12.76,2.84,18.19,6.77c0.77,0.56,1.75,0.99,1.97,2.34c-0.51,0.15-0.95,0.37-1.4,0.4c-1,0.07-2.01,0.06-3.01,0.06
	C1087.47,177.73,1071.59,177.73,1055.41,177.73z"/>
<path class="st0" d="M1781.74,232.48c12.26,0,24.21,0.09,36.17-0.06c2.88-0.04,4.83,0.93,6.2,3.3c0.95,1.65,1.87,3.32,2.73,5.01
	c0.31,0.61,0.45,1.33,0.57,2.02c0.2,1.09-0.3,1.77-1.37,1.9c-0.6,0.07-1.2,0.07-1.8,0.07c-16.58,0-33.15,0.01-49.73-0.01
	c-1.09,0-2.21-0.16-3.26-0.46c-3.95-1.14-7.92-2.23-11.79-3.59c-4.17-1.46-8.08-3.54-11.85-5.86c-0.57-0.35-0.99-0.93-1.68-1.6
	c0.63-0.29,1.03-0.6,1.45-0.65c0.9-0.1,1.8-0.07,2.71-0.07C1760.54,232.49,1770.99,232.48,1781.74,232.48z"/>
<path class="st0" d="M512.62,232.48c13.26,0,26.23,0.07,39.19-0.07c2.86-0.03,4.82,0.93,6.27,3.24c1.34,2.13,2.64,4.27,3.23,6.76
	c0.34,1.44-0.15,2.15-1.56,2.27c-0.8,0.07-1.61,0.05-2.41,0.05c-16.08,0.01-32.15-0.02-48.23,0.05c-2.59,0.01-4.97-0.75-7.35-1.44
	c-5.02-1.44-9.99-3.06-14.64-5.48c-2.04-1.06-4.02-2.27-6-3.45c-0.41-0.24-0.71-0.65-1.27-1.18c0.61-0.3,1-0.61,1.42-0.66
	c0.89-0.1,1.8-0.09,2.71-0.09C493.43,232.48,502.87,232.48,512.62,232.48z"/>
<path class="st0" d="M1529.96,169.25c5.57,1.53,12.15,4.41,14.71,7.78c-0.34,0.2-0.65,0.51-0.99,0.56c-0.79,0.11-1.6,0.13-2.4,0.13
	c-25.65,0.01-51.29,0.01-76.94,0.01c-0.9,0-1.81,0.01-2.71-0.06c-1.01-0.09-1.53-0.65-1.4-1.57c0.31-2.29,0.63-4.58,1.05-6.85
	c0.23-1.25,1.25-2.03,2.57-2.16c0.7-0.07,1.41-0.04,2.11-0.04c15.49,0,30.98-0.08,46.46,0.06c4.51,0.04,9.02,0.66,13.51,1.12
	C1527.22,168.35,1528.46,168.87,1529.96,169.25z"/>
<path class="st0" d="M1686.34,192.56c-28.86,0-57.42,0.01-85.97,0c-1.2,0-2.42-0.06-3.61-0.22c-1.04-0.14-1.59-0.87-1.47-1.93
	c0.17-1.49,0.43-2.98,0.69-4.46c0.18-1.01,0.84-1.6,1.85-1.69c0.9-0.08,1.81-0.09,2.71-0.09c19.21-0.01,38.41-0.01,57.62-0.01
	c8.95,0,17.9,0,26.85,0c0.5,0,1.01,0.02,1.51,0.01c1.41-0.03,2.54,0.48,3.35,1.66c1.08,1.57,2.22,3.1,3.21,4.72
	c0.6,0.97,0.1,1.86-1.02,1.92C1690.26,192.56,1688.45,192.53,1686.34,192.56z"/>
<path class="st0" d="M140.71,244.73c-1.4-0.02-2.51,0.02-3.61-0.07c-1.09-0.09-1.51-0.87-1.12-1.94c0.17-0.47,0.39-0.92,0.63-1.37
	c1.29-2.38,2.64-4.73,3.86-7.15c0.63-1.26,1.57-1.74,2.89-1.72c0.6,0.01,1.21-0.01,1.81-0.01c18.79,0,37.59,0.01,56.38,0.01
	c0.9,0,1.81-0.02,2.71,0.05c0.97,0.08,1.43,0.61,1.33,1.62c-0.13,1.3-0.34,2.58-0.56,3.87c-0.24,1.38-0.55,2.75-0.79,4.14
	c-0.38,2.19-0.65,2.45-2.94,2.54c-0.8,0.03-1.61,0.02-2.41,0.02C179.6,244.73,160.31,244.73,140.71,244.73z"/>
<path class="st0" d="M527.11,184.16c12.16,0,24.02,0,35.88,0.02c1.49,0,3.01-0.2,4.53,0.52c0.74,1.81,1.66,3.6,1.84,5.63
	c0.12,1.42-0.42,2.07-1.83,2.19c-0.8,0.07-1.61,0.04-2.41,0.04c-29.54,0-59.09,0.01-88.63,0c-1.1,0-2.21-0.06-3.29-0.21
	c-0.78-0.11-1.23-0.92-0.83-1.6c1.1-1.91,2.24-3.8,3.5-5.6c0.34-0.49,1.17-0.76,1.82-0.88c0.88-0.16,1.8-0.1,2.7-0.1
	C495.86,184.16,511.33,184.16,527.11,184.16z"/>
<path class="st0" d="M124.79,233.36c0.35,0.98,0.58,1.75,0.74,2.53c0.36,1.77,0.66,3.55,1.01,5.32c0.19,0.98,0.47,1.96,0.02,2.96
	c-0.83,0.8-1.89,0.53-2.86,0.53c-6.04,0.03-12.07,0.03-18.11,0.03c-13.58,0-27.16,0-40.74,0c-0.8,0-1.61,0.01-2.41-0.01
	c-2.72-0.06-3.16-0.49-2.74-3.28c0.41-2.77,1.03-5.51,1.54-8.15c0.78-0.87,1.73-0.78,2.62-0.79c2.72-0.03,5.43-0.03,8.15-0.03
	c16.3,0,32.59,0,48.89,0.02C122.16,232.5,123.52,232.19,124.79,233.36z"/>
<path class="st0" d="M1602.61,167.05c13.04,0,25.81,0.04,38.58-0.02c5.64-0.03,11.26,0.27,16.84,1.04c2.18,0.3,4.34,0.84,6.46,1.45
	c4.55,1.31,8.92,3.04,12.96,5.55c0.74,0.46,1.41,1.05,2.37,1.78c-0.67,0.38-1.03,0.71-1.44,0.78c-0.69,0.12-1.4,0.1-2.1,0.1
	c-24.93,0-49.87,0-74.8-0.02c-3.77,0-3.78-0.02-3.24-3.91c0.17-1.19,0.34-2.38,0.51-3.58c0.12-0.91,0.39-1.74,1.08-2.42
	C1600.54,167.09,1601.42,167.05,1602.61,167.05z"/>
<path class="st0" d="M513.22,225.93c-12.86,0-25.42-0.07-37.97,0.05c-2.69,0.03-4.26-0.85-5.37-3.3c-0.96-2.13-1.58-4.33-2.09-6.57
	c-0.36-1.57,0.23-2.25,1.84-2.39c0.7-0.06,1.41-0.03,2.11-0.03c12.96,0,25.92,0.04,38.88-0.03c2.59-0.01,4.94,0.75,7.35,1.44
	c2.79,0.8,5.6,1.57,8.38,2.41c6.16,1.85,12.25,3.86,17.88,7.05c0.17,0.09,0.3,0.26,0.42,0.37c0.03,0.76-0.53,0.82-0.99,0.87
	c-0.8,0.09-1.6,0.12-2.4,0.12C532.01,225.93,522.77,225.93,513.22,225.93z"/>
<path class="st0" d="M1743.71,225.93c-1.71-0.01-3.11-0.02-4.52-0.04c-0.87-0.01-1.56-0.38-2.04-1.09
	c-1.82-2.72-2.77-5.78-3.42-8.93c-0.24-1.15,0.47-1.97,1.62-2.09c1-0.1,2.01-0.08,3.01-0.08c12.16,0,24.33,0.07,36.49-0.04
	c3.38-0.03,6.56,0.62,9.73,1.61c2.59,0.81,5.21,1.5,7.81,2.24c6,1.71,11.85,3.8,17.36,6.77c0.25,0.13,0.43,0.39,0.6,0.55
	c0.08,0.76-0.43,0.94-0.91,1c-0.8,0.09-1.6,0.1-2.41,0.1C1786.02,225.93,1765.02,225.93,1743.71,225.93z"/>
<path class="st0" d="M357.61,224.39c1.86-3.13,3.64-6.03,5.41-8.95c0.68-1.12,1.59-1.76,2.95-1.72c1,0.03,2.01-0.03,3.02-0.03
	c16.99,0,33.98,0,50.97,0.01c0.9,0,1.81-0.01,2.71,0.08c1.12,0.12,1.64,0.78,1.46,1.85c-0.45,2.67-0.9,5.34-1.44,7.99
	c-0.36,1.75-0.94,2.18-2.65,2.3c-0.5,0.03-1,0.01-1.51,0.01c-19.3,0-38.61,0-57.91-0.01c-0.8,0-1.61-0.03-2.39-0.17
	C357.67,225.66,357.45,225.18,357.61,224.39z"/>
<path class="st0" d="M1768.57,167.57c4.49-1.26,8.78-2.27,13.22-2.6c4.51-0.33,9-0.82,13.54-0.49c6.43,0.47,12.8,1.21,18.89,3.5
	c4.36,1.64,8.41,3.8,11.94,6.87c0.67,0.58,1.43,1.11,1.68,2.27c-0.4,0.18-0.82,0.47-1.26,0.53c-0.79,0.1-1.6,0.07-2.41,0.07
	c-23.42,0.01-46.84,0.01-70.25,0.01c-0.8,0-1.61-0.04-2.4-0.17c-0.33-0.05-0.61-0.39-0.93-0.6
	C1753.24,173.86,1761.48,169.57,1768.57,167.57z"/>
<path class="st0" d="M545.57,167.04c3.99,1.25,7.54,2.89,10.85,5.02c2.01,1.29,4,2.65,5.56,4.83c-0.52,0.31-0.88,0.65-1.3,0.74
	c-0.58,0.13-1.2,0.09-1.8,0.09c-23.72,0.01-47.45,0.01-71.17,0c-1.06,0-2.21,0.24-3.26-0.81c0.57-0.53,1.01-1.04,1.54-1.43
	c3.43-2.49,7.15-4.44,11.09-6.01c4.3-1.72,8.73-3.12,13.3-3.79c7.05-1.04,14.13-1.7,21.32-0.98
	C536.3,165.17,540.86,165.78,545.57,167.04z"/>
<path class="st0" d="M615.32,192.56c-1.19-0.02-2.1,0.02-3-0.06c-1.1-0.09-1.74-0.76-1.57-1.78c0.29-1.78,0.67-3.55,1.09-5.3
	c0.18-0.75,0.79-1.14,1.56-1.2c0.6-0.04,1.21-0.05,1.81-0.05c28.75-0.01,57.5-0.01,86.25,0c0.96,0,2.01-0.25,2.96,0.68
	c-0.16,0.34-0.24,0.76-0.49,1c-1.89,1.8-3.81,3.57-5.74,5.33c-1,0.92-2.2,1.38-3.57,1.37c-1.01,0-2.01,0.01-3.02,0.01
	C666.27,192.56,640.94,192.56,615.32,192.56z"/>
<path class="st0" d="M632.16,225.93c-8.14,0-15.97-0.03-23.81,0.01c-3.17,0.01-3.75-0.16-3.22-3.62c0.37-2.37,0.87-4.73,1.35-7.08
	c0.18-0.88,0.76-1.4,1.67-1.46c0.8-0.05,1.61-0.08,2.41-0.08c17.48,0,34.96,0,52.44,0c2.41,0,4.82-0.02,7.23,0.02
	c0.67,0.01,1.35,0.19,1.93,0.28c0.41,0.99-0.12,1.5-0.63,1.98c-1.46,1.38-2.95,2.72-4.38,4.13c-1.78,1.74-1.75,1.76-0.81,4.11
	c0.11,0.27,0.12,0.58,0.22,1.05c-0.52,0.22-1.02,0.51-1.56,0.63c-0.48,0.11-1,0.03-1.5,0.03
	C653.16,225.93,642.81,225.93,632.16,225.93z"/>
<path class="st0" d="M1176.16,184.16c26.96,0,53.61,0,80.27,0.01c1.11,0,2.22,0.06,3.32,0.01c1.46-0.07,2.54,0.44,3.2,1.76
	c0.76,1.52,1.59,3.02,2.26,4.58c0.43,1.01-0.13,1.83-1.19,1.96c-0.7,0.09-1.4,0.08-2.11,0.08c-10.06,0-20.12-0.02-30.17,0.02
	c-1.86,0.01-3.57-0.33-5.2-1.23c-6.05-3.33-12.48-3.44-19.05-2.07c-2.27,0.47-4.47,1.19-6.54,2.25c-1.56,0.8-3.21,1.05-4.96,1.04
	c-9.96-0.03-19.92-0.02-29.87-0.03c-0.8,0-1.61-0.04-2.4-0.14c-0.62-0.08-0.97-0.79-0.75-1.4c0.14-0.37,0.27-0.78,0.52-1.07
	c1.38-1.6,2.78-3.17,4.2-4.73c0.73-0.79,1.7-1.02,2.74-1.03C1172.24,184.18,1174.05,184.17,1176.16,184.16z"/>
<path class="st0" d="M1461.83,192.56c-1.09-0.03-1.9-0.01-2.69-0.11c-0.9-0.12-1.5-0.78-1.42-1.66c0.16-1.7,0.4-3.39,0.7-5.07
	c0.16-0.87,0.82-1.38,1.7-1.48c0.7-0.08,1.4-0.09,2.11-0.09c28.48,0,56.95,0,85.43,0c3.79,0,4.19,0.32,5.34,3.91
	c0.31,0.95,0.64,1.9,0.89,2.87c0.16,0.62-0.24,1.28-0.86,1.38c-0.89,0.14-1.79,0.22-2.69,0.22c-5.23,0.02-10.46,0.01-15.7,0.01
	c-4.73,0-9.46,0-14.19,0.01c-1.62,0.01-3.16-0.24-4.74-0.69c-3.19-0.92-6.46-1.51-9.81-1.5c-4.43,0.01-8.86,0.02-13.28,0
	c-1.35-0.01-2.58,0.09-3.58,1.18c-0.8,0.88-1.95,0.98-3.07,0.99c-1.51,0.01-3.02,0.01-4.53,0.02
	C1474.99,192.56,1468.55,192.56,1461.83,192.56z"/>
<path class="st0" d="M1241.97,177.72c-20.22,0-40.14,0.01-60.05,0.01c-0.8,0-1.62,0.02-2.41-0.08c-0.44-0.06-0.86-0.36-1.51-0.66
	c0.53-0.52,0.82-0.91,1.21-1.17c4-2.74,8.29-4.91,12.82-6.61c3.58-1.35,7.22-2.47,10.98-3.2c1.97-0.38,3.96-0.67,5.95-0.93
	c1.59-0.21,3.2-0.31,4.8-0.46c3.62-0.34,7.23-0.35,10.84,0.12c0.4,0.05,0.8,0.15,1.2,0.15c5.31,0.08,10.34,1.52,15.27,3.28
	c4.86,1.73,9.27,4.34,13.18,7.73c0.29,0.25,0.49,0.6,0.71,0.88c-0.57,1.15-1.57,0.93-2.42,0.94
	C1249.11,177.75,1245.69,177.72,1241.97,177.72z"/>
<path class="st0" d="M956.99,213.7c3.12-0.01,5.93-0.01,8.75-0.01c0.5,0,1.01-0.01,1.51,0.04c1.11,0.12,1.65,0.68,1.59,1.79
	c-0.06,1-0.23,1.99-0.41,2.98c-0.31,1.78-0.66,3.55-1.01,5.32c-0.33,1.65-0.69,1.97-2.41,2.09c-0.6,0.04-1.21,0.03-1.81,0.03
	c-18.1,0-36.2,0-54.3-0.01c-0.8,0-1.61-0.04-2.4-0.15c-0.61-0.08-0.97-0.8-0.77-1.39c0.09-0.28,0.21-0.56,0.35-0.83
	c1.23-2.3,2.46-4.6,3.72-6.89c0.34-0.61,0.78-1.17,1.16-1.76c0.54-0.83,1.32-1.2,2.29-1.21c1.01-0.01,2.01-0.02,3.02-0.02
	C929.74,213.69,943.21,213.7,956.99,213.7z"/>
<path class="st0" d="M191.41,225.93c-14.18,0-28.06,0.01-41.95-0.01c-1.18,0-2.42,0.25-3.66-0.63c0.11-0.53,0.12-1.14,0.37-1.62
	c1.39-2.67,2.88-5.29,4.25-7.97c0.67-1.31,1.65-1.97,3.1-1.99c0.6-0.01,1.21-0.02,1.81-0.02c16.6,0,33.19,0,49.79,0
	c0.8,0,1.61,0,2.41,0.1c0.91,0.11,1.48,0.76,1.33,1.68c-0.49,2.97-1.05,5.93-1.62,8.88c-0.2,1.02-0.92,1.51-1.95,1.54
	c-0.7,0.02-1.41,0.02-2.11,0.02C199.36,225.93,195.54,225.93,191.41,225.93z"/>
<path class="st0" d="M842.88,213.7c11.35,0,22.4,0,33.45,0c0.7,0,1.41-0.01,2.11,0.01c2.56,0.08,2.97,0.41,3.45,2.81
	c0.41,2.06,0.83,4.13,1.21,6.2c0.11,0.59,0.17,1.19,0.16,1.79c-0.01,0.68-0.43,1.15-1.07,1.27c-0.68,0.13-1.39,0.16-2.09,0.16
	c-17.98,0-35.96,0-53.94-0.01c-3.47,0-3.66-0.19-3.17-3.59c0.34-2.38,0.86-4.73,1.32-7.09c0.18-0.9,0.81-1.37,1.7-1.44
	c0.9-0.07,1.8-0.1,2.71-0.1C833.34,213.69,837.96,213.7,842.88,213.7z"/>
<path class="st0" d="M65.1,214.16c1.4-0.26,2.59-0.46,3.78-0.46c16.27-0.02,32.54-0.01,48.81,0c3.45,0,3.68-0.07,4.29,3.5
	c0.37,2.17,0.87,4.33,1.2,6.5c0.22,1.48-0.31,2.07-1.74,2.18c-0.6,0.05-1.2,0.03-1.81,0.03c-17.78,0-35.56-0.01-53.33,0.02
	c-2.78,0-4.25-0.1-3.17-3.78c0.51-1.72,0.55-3.56,0.9-5.33C64.2,215.96,64.6,215.15,65.1,214.16z"/>
<path class="st0" d="M1083.18,184.16c9.26,0.01,18.21,0.01,27.17,0.02c3.13,0.01,3.58,0.37,4.35,3.36c0.05,0.19,0.09,0.39,0.13,0.59
	c0.83,3.67,0.43,4.24-3.34,4.39c-2.21,0.09-4.43,0.03-6.64,0.03c-6.94,0.01-13.88,0-20.83,0.02c-1.62,0-3.25,0.02-4.67-0.89
	c-3.2-2.04-6.84-2.34-10.44-2.46c-5.43-0.18-10.86-0.05-16.3-0.07c-1.62-0.01-3,0.34-3.66,2.03c-0.38,0.97-1.2,1.3-2.16,1.34
	c-0.6,0.03-1.21,0.04-1.81,0.04c-7.75,0-15.49,0-23.24,0c-0.8,0-1.61-0.01-2.41-0.13c-0.9-0.13-1.46-0.76-1.37-1.69
	c0.16-1.7,0.44-3.38,0.72-5.06c0.16-0.91,0.85-1.36,1.72-1.43c1-0.08,2.01-0.08,3.01-0.08
	C1043.24,184.16,1063.06,184.16,1083.18,184.16z"/>
<path class="st0" d="M1795.62,184.16c11.27,0,22.23-0.01,33.2-0.01c0.5,0,1.01,0.01,1.51,0c2.9-0.01,3.44,0.28,4.13,2.87
	c0.31,1.15,0.77,2.28,0.93,3.45c0.17,1.25-0.45,1.87-1.69,2.01c-0.7,0.08-1.41,0.07-2.11,0.07c-9.26,0-18.51-0.03-27.77,0.01
	c-1.57,0.01-2.99-0.26-4.27-1.18c-4.05-2.94-8.75-3.46-13.51-3.24c-3.19,0.14-6.45,0.24-9.44,1.7c-0.9,0.44-1.82,0.83-2.71,1.3
	c-1.81,0.96-3.69,1.45-5.78,1.44c-8.75-0.06-17.5-0.02-26.26-0.03c-0.8,0-1.61-0.02-2.41-0.12c-1-0.13-1.44-0.83-1.1-1.7
	c0.82-2.08,2.08-3.9,3.53-5.57c0.42-0.48,1.18-0.78,1.83-0.9c0.88-0.16,1.8-0.09,2.71-0.09
	C1762.73,184.16,1779.03,184.16,1795.62,184.16z"/>
<path class="st0" d="M428.12,191.52c-0.72,0.85-1.5,1.01-2.33,1.02c-1.11,0.01-2.21,0.02-3.32,0.02c-21.02,0-42.05,0.01-63.07,0.01
	c-2.51,0-5.03-0.09-7.54,0.01c-2.33,0.08-4.08-0.7-5.29-2.74c-0.77-1.29-1.73-2.47-2.53-3.74c-0.24-0.38-0.25-0.9-0.34-1.27
	c0.88-0.85,1.83-0.65,2.71-0.65c4.22-0.02,8.45-0.01,12.67-0.01c22.13,0,44.26,0.02,66.39-0.02c3.3-0.01,4.29,0.26,3.41,3.95
	C428.64,189.15,428.47,190.24,428.12,191.52z"/>
<path class="st0" d="M620.69,198.79c21.4,0,42.5,0,63.59,0.01c1.1,0,2.21,0.05,3.3,0.15c0.61,0.06,0.9,0.9,0.55,1.43
	c-0.11,0.17-0.21,0.35-0.35,0.48c-1.91,1.78-3.82,3.55-5.75,5.31c-0.93,0.85-2.05,1.22-3.33,1.14c-0.5-0.03-1,0-1.51,0
	c-21.4,0-42.8,0-64.19-0.01c-1.2,0-2.41-0.04-3.61-0.15c-0.77-0.07-1.28-0.67-1.28-1.44c0.01-2.13,0.62-4.15,1.42-6.1
	c0.15-0.36,0.77-0.64,1.22-0.73c0.68-0.14,1.4-0.1,2.1-0.1C615.37,198.78,617.88,198.79,620.69,198.79z"/>
<path class="st0" d="M354.49,199.21c1.18-0.23,2.17-0.4,3.16-0.4c21.71-0.01,43.41,0.01,65.12-0.03c4.24-0.01,4.39,0.79,3.52,4.05
	c-0.21,0.77-0.21,1.59-0.38,2.37c-0.35,1.53-0.87,1.96-2.5,2.09c-0.7,0.05-1.41,0.03-2.11,0.03c-19.6,0-39.19,0-58.79-0.03
	c-3.05,0-3.34,0.83-5.91-3.04c-0.72-1.09-1.5-2.13-2.22-3.22C354.04,200.51,353.87,199.93,354.49,199.21z"/>
<path class="st0" d="M214.69,167.05c2.36,0.6,2.54,0.79,2.3,2.54c-0.24,1.79-0.49,3.58-0.81,5.35c-0.42,2.26-0.96,2.69-3.17,2.77
	c-0.3,0.01-0.6,0-0.9,0c-12.36,0-24.72,0.01-37.09-0.01c-1.07,0-2.22,0.25-3.35-0.6c0.09-0.4,0.1-0.91,0.31-1.31
	c1.14-2.23,2.34-4.43,3.51-6.65c0.72-1.36,1.78-2.14,3.37-2.1c0.6,0.01,1.21-0.01,1.81-0.01
	C191.92,167.05,203.17,167.05,214.69,167.05z"/>
<path class="st0" d="M936.72,167.65c0.97-0.27,1.75-0.55,2.53-0.55c9.86-0.04,19.72-0.04,29.57-0.04c2.11,0,4.22,0.03,6.33,0.05
	c1.41,0.01,2.1,0.63,1.89,2.07c-0.38,2.67-0.94,5.32-1.44,8.07c-0.82,0.17-1.48,0.42-2.15,0.44c-2.61,0.05-5.23,0.03-7.85,0.03
	c-10.26,0-20.52,0.01-30.78,0c-3.6,0-3.77-0.3-2.06-3.46C933.95,172.06,934.85,169.69,936.72,167.65z"/>
<path class="st0" d="M937.67,207.31c-6.33,0-12.35,0.02-18.38,0c-3.78-0.01-4.14-0.62-2.32-3.95c0.57-1.06,1.2-2.08,1.81-3.12
	c0.56-0.94,1.37-1.42,2.48-1.42c0.9,0.01,1.81-0.03,2.71-0.03c14.46-0.01,28.92-0.01,43.38-0.01c0.9,0,1.81,0.01,2.7,0.11
	c0.93,0.11,1.56,0.72,1.42,1.62c-0.29,1.87-0.71,3.72-1.18,5.56c-0.18,0.73-0.84,1.11-1.61,1.16c-0.9,0.05-1.81,0.08-2.71,0.08
	C956.65,207.31,947.31,207.31,937.67,207.31z"/>
<path class="st0" d="M162.55,198.81c15.16-0.01,30.04-0.02,44.93-0.03c0.7,0,1.41-0.02,2.11,0.06c1.24,0.13,1.89,0.77,1.8,1.96
	c-0.12,1.5-0.35,2.99-0.63,4.47c-0.23,1.22-1.06,1.91-2.32,1.99c-0.8,0.05-1.61,0.06-2.41,0.06c-15.58,0-31.17,0-46.75,0
	c-0.8,0-1.61-0.04-2.4-0.16c-0.7-0.11-1.22-0.99-0.89-1.63c1.02-1.95,2.03-3.92,3.23-5.75
	C159.87,198.77,161.14,198.79,162.55,198.81z"/>
<path class="st0" d="M78.51,177.73c-1.91-0.01-3.52,0.03-5.12-0.03c-1.69-0.07-2.21-0.68-1.99-2.25c0.27-1.89,0.55-3.77,0.88-5.65
	c0.34-1.9,1.08-2.57,2.99-2.73c0.8-0.07,1.61-0.05,2.41-0.04c9.24,0.01,18.48,0,27.72,0.04c2.01,0.01,4.01,0.15,6.02,0.24
	c0.9,0.04,1.56,0.49,1.75,1.38c0.5,2.35,1,4.71,1.38,7.08c0.21,1.28-0.33,1.82-1.69,1.91c-1,0.07-2.01,0.05-3.01,0.05
	C99.51,177.73,89.16,177.73,78.51,177.73z"/>
<path class="st0" d="M856.77,177.73c-7.43,0-14.56,0-21.68-0.01c-0.9,0-1.81-0.02-2.7-0.12c-0.67-0.08-1.06-0.56-1.09-1.23
	c-0.03-0.6-0.02-1.21,0.08-1.79c0.33-1.87,0.69-3.74,1.09-5.61c0.26-1.21,0.61-1.52,1.8-1.66c1-0.12,2-0.22,3-0.23
	c9.33-0.03,18.66-0.03,27.99-0.04c1.8,0,3.6,0.06,5.41,0.03c1.02-0.02,1.75,0.4,2.22,1.25c0.24,0.43,0.46,0.91,0.54,1.39
	c0.33,1.98,0.66,3.95,0.89,5.94c0.17,1.44-0.34,1.94-1.89,2.04c-0.7,0.04-1.4,0.02-2.11,0.02
	C865.9,177.73,861.48,177.73,856.77,177.73z"/>
<path class="st0" d="M80.32,207.31c-3.72,0-7.13,0.01-10.55,0.01c-0.6,0-1.21,0.02-1.81-0.04c-1.11-0.1-1.72-0.64-1.66-1.73
	c0.09-1.6,0.3-3.19,0.57-4.77c0.22-1.24,1.12-1.85,2.35-1.95c0.6-0.05,1.2-0.04,1.81-0.04c14.76,0,29.53,0,44.29,0
	c0.1,0,0.2,0,0.3,0c2.79,0.04,2.84,0.08,3.52,2.95c0.28,1.17,0.65,2.32,0.82,3.51c0.18,1.22-0.43,1.89-1.69,1.98
	c-1.1,0.08-2.21,0.07-3.31,0.07C103.52,207.31,92.07,207.31,80.32,207.31z"/>
<path class="st0" d="M867.63,198.79c2.81,0,5.32,0.05,7.83-0.01c2.56-0.06,3.59,0.69,3.78,3.16c0.08,1.1,0.38,2.18,0.47,3.27
	c0.1,1.24-0.48,1.92-1.67,2.05c-0.7,0.08-1.4,0.05-2.11,0.05c-15.16,0-30.32,0-45.48-0.01c-0.9,0-1.81,0.03-2.71-0.06
	c-1.24-0.11-1.92-0.82-1.75-1.98c0.25-1.68,0.63-3.34,1.03-5c0.21-0.87,0.87-1.34,1.75-1.41c0.8-0.06,1.6-0.07,2.41-0.07
	C843.24,198.79,855.28,198.79,867.63,198.79z"/>
<path class="st0" d="M1379.63,184.16c1.91,0,3.52-0.05,5.12,0.02c1.73,0.08,2.3,0.58,2.65,2.29c0.28,1.37,0.52,2.76,0.67,4.15
	c0.11,1.08-0.45,1.72-1.52,1.85c-0.79,0.1-1.6,0.1-2.4,0.1c-15.16,0-30.31-0.01-45.47-0.01c-0.1,0-0.2,0-0.3,0
	c-2.97-0.04-3.28-0.52-1.94-3.06c0.65-1.24,1.3-2.48,1.97-3.72c0.57-1.07,1.47-1.6,2.69-1.59c0.8,0.01,1.61-0.01,2.41-0.01
	C1355.44,184.16,1367.38,184.16,1379.63,184.16z"/>
<path class="st0" d="M1347.2,170.02c0.22-0.36,0.34-0.53,0.41-0.71c0.75-2.11,2.27-2.73,4.45-2.71c9.24,0.09,18.48,0.03,27.72,0.05
	c1.08,0,2.22-0.18,3.33,0.58c0.14,0.47,0.33,1.03,0.46,1.61c0.49,2.25,1.03,4.5,1.41,6.77c0.24,1.45-0.32,2.01-1.81,2.11
	c-0.7,0.05-1.41,0.02-2.11,0.02c-11.25,0-22.5,0.01-33.74-0.01c-1.16,0-2.41,0.29-3.63-0.67
	C1344.33,174.54,1345.87,172.45,1347.2,170.02z"/>
<path class="st0" d="M926.93,192.55c-3.5-0.19-3.68-0.48-2.29-3.29c0.58-1.17,1.19-2.32,1.83-3.46c0.58-1.04,1.45-1.64,2.69-1.62
	c0.6,0.01,1.21-0.02,1.81-0.02c13.26,0,26.51,0,39.77,0.01c0.7,0,1.41,0,2.1,0.07c0.95,0.11,1.49,0.73,1.34,1.64
	c-0.3,1.68-0.66,3.34-1.04,5c-0.23,1.01-0.94,1.52-1.94,1.59c-0.8,0.06-1.6,0.07-2.41,0.07
	C954.93,192.56,941.07,192.55,926.93,192.55z"/>
<path class="st0" d="M166.84,192.56c-0.37,0-0.47,0-0.57-0.01c-2.47-0.25-2.88-0.87-1.81-2.97c0.68-1.34,1.5-2.61,2.2-3.95
	c0.53-1.01,1.33-1.45,2.43-1.45c0.7,0,1.41-0.02,2.11-0.02c13.08,0,26.16-0.01,39.23,0c0.9,0,1.82,0.01,2.7,0.17
	c0.62,0.11,1.09,0.61,1,1.3c-0.22,1.69-0.48,3.38-0.79,5.05c-0.18,1-0.87,1.57-1.89,1.65c-1.3,0.11-2.61,0.22-3.91,0.22
	C194.07,192.58,180.59,192.56,166.84,192.56z"/>
<path class="st0" d="M855.56,184.16c5.62,0,10.94,0,16.26,0c0.6,0,1.21-0.02,1.81,0.01c2.19,0.14,2.6,0.52,2.92,2.62
	c0.17,1.09,0.36,2.17,0.52,3.26c0.22,1.54-0.31,2.23-1.89,2.42c-0.6,0.07-1.2,0.07-1.8,0.07c-13.65,0-27.31,0.01-40.96,0
	c-0.8,0-1.61-0.03-2.39-0.17c-1.05-0.19-1.58-0.89-1.4-1.96c0.31-1.77,0.7-3.54,1.17-5.27c0.1-0.37,0.67-0.79,1.09-0.87
	c0.88-0.16,1.8-0.12,2.7-0.12C840.8,184.15,848.03,184.16,855.56,184.16z"/>
<path class="st0" d="M108.09,184.16c2.21,0.01,4.12-0.02,6.03,0.04c1.44,0.04,1.8,0.33,2.14,1.64c0.35,1.36,0.68,2.73,0.89,4.12
	c0.27,1.82-0.24,2.43-2.01,2.56c-0.7,0.05-1.41,0.04-2.11,0.04c-13.47,0-26.94,0-40.41,0c-0.5,0-1.01,0.02-1.51-0.01
	c-1.81-0.12-2.41-0.7-2.26-2.41c0.12-1.4,0.39-2.78,0.63-4.17c0.17-1.02,0.83-1.61,1.83-1.72c0.89-0.1,1.8-0.09,2.71-0.09
	C85.28,184.15,96.54,184.16,108.09,184.16z"/>
<path class="st0" d="M1530.57,213.7c6.23,0,12.15,0,18.07,0c0.8,0,1.61-0.02,2.41,0.04c1.59,0.1,2.25,0.86,1.72,2.38
	c-0.99,2.83-2.15,5.6-3.31,8.37c-0.42,1.01-1.31,1.47-2.43,1.43c-0.6-0.02-1.2,0.01-1.81,0.01c-8.94-0.01-17.87-0.01-26.81-0.03
	c-1.07,0-2.2,0.23-3.32-0.59c0.17-0.39,0.24-0.8,0.48-1.04c2.2-2.26,3.74-4.92,5.01-7.79c1.22-2.77,1.29-2.74,4.26-2.76
	C1526.65,213.7,1528.46,213.71,1530.57,213.7z"/>
<path class="st0" d="M1162.27,244.73c-4.91,0-9.53,0-14.14-0.01c-0.6,0-1.2-0.01-1.8-0.08c-0.67-0.08-1.07-0.55-1.19-1.18
	c-0.09-0.48-0.12-1.01-0.04-1.49c0.43-2.66,0.87-5.33,1.38-7.98c0.23-1.17,0.6-1.39,1.91-1.48c0.6-0.04,1.2-0.02,1.8-0.03
	c8.42-0.01,16.85-0.01,25.27-0.02c0.2,0,0.4,0.01,0.6,0c2.45-0.11,3.38,0.64,2.66,3.2c-0.51,1.82-0.63,3.75-0.96,5.62
	c-0.12,0.69-0.28,1.37-0.49,2.04c-0.26,0.86-0.88,1.33-1.78,1.36c-1.3,0.04-2.61,0.05-3.91,0.05
	C1168.59,244.73,1165.58,244.73,1162.27,244.73z"/>
<path class="st0" d="M1397.58,244.66c-9.33,0.05-18.38,0.07-27.44,0.09c-0.2,0-0.4,0.01-0.6,0c-1.95-0.09-2.61-0.48-3.02-2.28
	c-0.6-2.64-1.06-5.32-1.48-7.99c-0.2-1.25,0.36-1.81,1.69-1.96c0.5-0.06,1-0.05,1.51-0.05c8.45,0,16.9,0,25.35,0.02
	c1.09,0,2.21-0.17,3.34,0.44c1.07,3.1,1.73,6.33,2.14,9.61C1399.18,243.49,1399.01,244.37,1397.58,244.66z"/>
<path class="st0" d="M1698.93,219.22c-0.15,1.57-0.24,2.88-0.44,4.16c-0.3,1.92-0.86,2.41-2.73,2.52c-0.4,0.03-0.8,0.01-1.2,0.01
	c-8.44,0-16.87,0.02-25.31,0c-3.27,0-3.42-0.22-3.13-3.44c0.18-2,0.27-4,0.37-6c0.12-2.34,0.49-2.74,2.91-2.79
	c1.71-0.04,3.41,0.01,5.12,0.01c6.93,0,13.86-0.02,20.79,0c3.59,0.01,3.73,0.18,3.69,3.74
	C1698.97,217.94,1698.95,218.44,1698.93,219.22z"/>
<path class="st0" d="M1263.03,232.49c3.35-0.21,3.93,0.44,3.32,3.41c-0.49,2.35-0.95,4.71-1.43,7.06c-0.21,1-0.84,1.58-1.85,1.69
	c-0.6,0.07-1.2,0.07-1.8,0.07c-8.43,0-16.86,0-25.3-0.01c-0.8,0-1.61-0.03-2.39-0.17c-0.65-0.12-0.98-0.64-0.99-1.32
	c0-0.1,0-0.2,0.02-0.3c0.54-2.85,1.03-5.72,1.65-8.55c0.34-1.54,0.75-1.78,2.28-1.86c0.7-0.04,1.4-0.02,2.11-0.02
	C1246.68,232.48,1254.71,232.48,1263.03,232.49z"/>
<path class="st0" d="M1149.79,225.89c-1.22-0.23-1.74-0.85-1.51-1.76c0.75-3.01,1.58-6.01,2.43-9c0.24-0.85,0.94-1.28,1.82-1.35
	c0.7-0.06,1.41-0.08,2.11-0.08c8.15-0.01,16.3-0.02,24.45-0.01c3.89,0,4.01,0.16,3.2,3.91c-0.46,2.15-0.96,4.3-1.46,6.45
	c-0.27,1.17-0.84,1.67-2.09,1.82c-0.6,0.07-1.2,0.06-1.81,0.06C1167.96,225.93,1159.01,225.92,1149.79,225.89z"/>
<path class="st0" d="M1269.05,218.05c-0.22,2.06-0.39,3.86-0.67,5.64c-0.28,1.74-0.79,2.13-2.62,2.23c-0.3,0.02-0.6,0.01-0.9,0.01
	c-8.62,0-17.25,0.01-25.87-0.01c-2.89-0.01-3.16-0.29-2.87-3.11c0.23-2.29,0.5-4.58,0.86-6.85c0.28-1.78,0.78-2.18,2.61-2.23
	c1.9-0.06,3.81-0.02,5.72-0.02c6.62,0,13.24,0,19.85,0.01C1269.1,213.71,1269.14,213.77,1269.05,218.05z"/>
<path class="st0" d="M1694.66,232.49c1.91,0.59,2.05,0.72,1.94,1.96c-0.27,3.01-1.01,5.93-1.83,8.82c-0.25,0.88-0.9,1.3-1.78,1.38
	c-0.6,0.05-1.2,0.06-1.81,0.06c-8.44,0.01-16.88,0.02-25.32,0.01c-3.03,0-3.45-0.45-2.92-3.3c0.47-2.56,1.07-5.11,1.62-7.66
	c0.17-0.79,0.7-1.2,1.49-1.24c0.8-0.04,1.61-0.05,2.41-0.05C1677.09,232.48,1685.74,232.49,1694.66,232.49z"/>
<path class="st0" d="M1374.8,213.7c4.92,0,9.55,0,14.17,0c0.7,0,1.41-0.02,2.11,0.03c1.49,0.1,1.95,0.39,2.31,1.89
	c0.69,2.82,1.29,5.67,1.87,8.52c0.19,0.93-0.32,1.55-1.27,1.69c-0.69,0.1-1.4,0.11-2.1,0.11c-8.44,0-16.88,0-25.32-0.01
	c-0.6,0-1.21-0.02-1.8-0.09c-1.02-0.12-1.62-0.71-1.82-1.72c-0.45-2.36-0.9-4.73-1.35-7.09c-0.06-0.29-0.08-0.6-0.1-0.9
	c-0.11-1.89,0.29-2.37,2.15-2.4c2.31-0.04,4.62-0.01,6.93-0.01C1371.88,213.7,1373.19,213.7,1374.8,213.7z"/>
<path class="st0" d="M257.83,232.48c7.04,0,13.78,0.02,20.51-0.01c2.82-0.01,3.32,0.35,2.8,3.4c-0.39,2.27-0.81,4.54-1.27,6.8
	c-0.28,1.39-0.85,1.86-2.24,2.02c-0.5,0.06-1,0.05-1.51,0.05c-8.35,0-16.69-0.02-25.04,0c-2.39,0.01-3.26-0.1-2.79-3.19
	c0.38-2.48,0.88-4.94,1.37-7.4c0.23-1.18,0.62-1.55,1.83-1.59C253.5,232.48,255.52,232.5,257.83,232.48z"/>
<path class="st0" d="M768.01,225.93c-6.23,0-12.15,0.02-18.08,0c-2.89-0.01-3.22-0.39-2.74-3.14c0.41-2.37,0.86-4.73,1.34-7.09
	c0.3-1.5,0.65-1.79,2.22-1.93c0.8-0.07,1.61-0.07,2.41-0.07c7.83,0,15.67,0,23.5,0.01c0.3,0,0.6-0.01,0.9,0
	c2.36,0.08,2.81,0.52,2.48,2.95c-0.36,2.58-0.89,5.13-1.38,7.69c-0.21,1.08-0.69,1.48-1.91,1.53c-1.7,0.07-3.41,0.04-5.12,0.05
	C770.52,225.93,769.42,225.93,768.01,225.93z"/>
<path class="st0" d="M284,214.24c0.27,0.59,0.48,0.99,0.43,1.36c-0.47,2.96-0.97,5.92-1.5,8.87c-0.16,0.9-0.76,1.38-1.68,1.43
	c-0.7,0.03-1.4,0.04-2.11,0.04c-8.22,0-16.45-0.01-24.67-0.02c-0.4,0-0.8,0.02-1.2,0c-1.66-0.11-2.08-0.66-1.8-2.34
	c0.36-2.17,0.72-4.34,1.11-6.51c0.1-0.59,0.25-1.18,0.43-1.75c0.3-0.96,1-1.49,1.99-1.56c0.9-0.06,1.8-0.08,2.71-0.08
	c7.82,0,15.65-0.01,23.47,0.02C282.05,213.71,282.94,213.92,284,214.24z"/>
<path class="st0" d="M771.63,232.48c1.6,0.03,2.91,0.02,4.21,0.12c0.8,0.06,1.25,0.64,1.19,1.44c-0.04,0.59-0.18,1.18-0.29,1.77
	c-0.32,1.77-0.63,3.54-0.95,5.32c-0.11,0.59-0.16,1.2-0.33,1.77c-0.32,1.04-1.01,1.72-2.16,1.79c-0.6,0.03-1.2,0.04-1.8,0.04
	c-8.02,0-16.05,0.01-24.07,0c-0.6,0-1.21,0.02-1.8-0.04c-1.22-0.13-1.83-0.73-1.7-2c0.32-3.28,0.74-6.55,1.86-9.58
	c1.07-0.85,2.21-0.6,3.29-0.61C756.48,232.47,763.9,232.48,771.63,232.48z"/>
<path class="st0" d="M1462.34,213.7c6.52,0,12.75-0.01,18.97,0.01c3.45,0.01,3.67,0.3,3.13,3.62c-0.29,1.78-0.51,3.57-0.89,5.33
	c-0.67,3.14-0.84,3.26-3.95,3.27c-5.92,0.02-11.84,0-17.76,0c-2.21,0-4.42,0-6.62,0c-0.5,0-1.01,0.02-1.5-0.01
	c-1.86-0.12-2.37-0.71-2.04-2.46c0.47-2.46,0.92-4.92,1.49-7.36c0.47-2.01,0.85-2.3,2.86-2.36
	C1458.03,213.67,1460.04,213.71,1462.34,213.7z"/>
<path class="st0" d="M1617.55,242.75c-0.27,1.25-0.91,1.81-1.92,1.91c-0.7,0.07-1.4,0.07-2.1,0.07c-8.13,0.01-16.26-0.02-24.38,0.02
	c-2.7,0.01-3.43-0.27-2.98-3.33c0.39-2.57,0.91-5.12,1.41-7.68c0.12-0.64,0.58-1.05,1.25-1.12c0.7-0.08,1.4-0.13,2.1-0.13
	c8.43-0.01,16.86-0.01,25.29-0.01c0.4,0,0.8,0,1.2,0.03c1.31,0.13,1.72,0.6,1.56,2c-0.14,1.19-0.38,2.37-0.59,3.55
	C1618.12,239.54,1617.85,241.02,1617.55,242.75z"/>
<path class="st0" d="M1589.39,225.06c0.34-3.09,0.72-5.97,1.28-8.82c0.43-2.18,0.98-2.53,3.38-2.54c6.94-0.02,13.89,0,20.83,0
	c1.71,0,3.42-0.06,5.13-0.01c1.76,0.05,2.37,0.69,2.1,2.49c-0.41,2.78-0.97,5.53-1.5,8.3c-0.17,0.91-0.78,1.37-1.7,1.41
	c-0.4,0.02-0.8,0.03-1.21,0.03c-8.45,0.01-16.9,0.01-25.36,0.01C1591.36,225.92,1590.32,226.09,1589.39,225.06z"/>
<path class="st0" d="M722.31,167.72c0.19,0.84-0.15,1.3-0.61,1.73c-2.52,2.3-5.04,4.58-7.53,6.91c-1.1,1.03-2.38,1.4-3.85,1.38
	c-2.91-0.03-5.82-0.01-8.73-0.01c-6.22-0.01-12.44,0-18.66-0.03c-0.95,0-2.04,0.3-2.77-0.86c0.2-0.31,0.36-0.7,0.63-0.96
	c2.54-2.42,5.12-4.79,7.65-7.22c0.92-0.88,1.93-1.37,3.22-1.36c1.5,0.01,3-0.05,4.5-0.08c2-0.05,4.01-0.16,6.01-0.14
	c5.21,0.03,10.42,0.13,15.63,0.18c0.9,0.01,1.8-0.13,2.7-0.09C721.07,167.18,721.63,167.41,722.31,167.72z"/>
<path class="st0" d="M1310.83,244.73c-1.3-0.04-2.3-0.04-3.29-0.13c-0.61-0.06-1.01-0.73-0.86-1.35c0.1-0.38,0.23-0.77,0.42-1.11
	c1.41-2.54,2.88-5.04,4.26-7.6c0.74-1.37,1.68-2.06,3.33-2.05c7.73,0.05,15.46,0,23.19,0.02c0.76,0,1.52,0.22,2.48,0.37
	c-0.17,0.69-0.19,1.19-0.41,1.6c-1.49,2.84-3.04,5.64-4.53,8.48c-0.63,1.2-1.6,1.74-2.91,1.76c-0.7,0.01-1.41,0.01-2.11,0.01
	C1323.97,244.73,1317.55,244.73,1310.83,244.73z"/>
<path class="st0" d="M271.72,167.05c5.83,0,11.36-0.01,16.89,0c0.8,0,1.61-0.01,2.41,0.08c1.15,0.14,1.84,0.9,1.69,2.08
	c-0.29,2.29-0.71,4.56-1.11,6.83c-0.21,1.18-1.04,1.66-2.17,1.68c-1.21,0.02-2.41,0.02-3.62,0.02c-7.44,0-14.88,0.01-22.32-0.01
	c-3.79-0.01-3.8-0.05-3.17-3.67c0.26-1.48,0.4-2.99,0.68-4.46c0.32-1.67,1.17-2.45,2.88-2.5
	C266.39,167.01,268.9,167.06,271.72,167.05z"/>
<path class="st0" d="M1327.7,225.94c-3.02-0.01-5.73-0.01-8.45-0.03c-0.79-0.01-1.64,0.07-2.21-0.92c0.06-0.26,0.08-0.68,0.26-1.01
	c1.58-2.91,3.18-5.8,4.8-8.69c0.58-1.05,1.48-1.6,2.71-1.57c0.6,0.02,1.21-0.02,1.81-0.02c7.04,0,14.07-0.01,21.11,0.01
	c2.78,0.01,3.11,0.54,1.85,2.97c-1.3,2.49-2.72,4.92-3.99,7.42c-0.68,1.34-1.63,1.86-3.12,1.84
	C1337.66,225.9,1332.83,225.93,1327.7,225.94z"/>
<path class="st0" d="M614.9,168.28c0.73-1.11,1.69-1,2.57-1.02c3.72-0.08,7.43-0.18,11.15-0.21c4.82-0.04,9.65,0.02,14.47-0.03
	c2.34-0.02,3.57,0.2,3,3.37c-0.41,2.26-0.89,4.51-1.37,6.9c-0.71,0.14-1.38,0.38-2.04,0.38c-9.04,0.02-18.09,0.01-27.13,0
	c-0.3,0-0.6-0.01-0.9-0.05c-0.79-0.11-1.26-0.59-1.21-1.44c0.07-1.2,0.21-2.4,0.42-3.58C614.11,171.24,614.47,169.88,614.9,168.28z"
	/>
<path class="st0" d="M406.39,167.05c5.42,0,10.54-0.02,15.67,0.01c2.71,0.02,5.42,0.14,8.13,0.22c0.3,0.01,0.6,0.04,0.9,0.1
	c0.74,0.15,1.26,0.78,1.15,1.52c-0.36,2.38-0.75,4.75-1.16,7.12c-0.18,1.02-0.87,1.55-1.88,1.64c-0.6,0.06-1.2,0.05-1.81,0.05
	c-8.14,0-16.28,0.02-24.42,0c-3.73-0.01-3.75-0.03-3.21-3.68c0.22-1.49,0.42-2.99,0.78-4.44c0.49-1.99,1.15-2.46,3.14-2.54
	C404.48,167.02,405.29,167.05,406.39,167.05z"/>
<path class="st0" d="M760.03,167.25c5.78-0.05,11.29-0.09,16.81-0.12c1.3-0.01,2.6,0,3.91,0.02c2,0.04,4.01,0.05,6.01,0.16
	c1.24,0.07,1.72,0.72,1.63,2.03c-0.05,0.7-0.2,1.39-0.33,2.08c-0.3,1.57-0.59,3.15-0.93,4.72c-0.26,1.17-0.64,1.47-1.86,1.56
	c-0.4,0.03-0.8,0.02-1.2,0.02c-8.43,0.01-16.86,0.03-25.29,0.02c-3.49-0.01-3.61-0.22-2.85-3.65c0.28-1.27,0.48-2.56,0.68-3.85
	C756.98,167.6,757.01,167.56,760.03,167.25z"/>
<path class="st0" d="M344.69,167.24c4.28-0.06,8.3-0.11,12.33-0.17c1.54-0.02,2.68,0.61,3.52,1.91c1.47,2.28,3,4.52,4.47,6.8
	c0.2,0.31,0.24,0.73,0.41,1.26c-0.5,0.23-0.91,0.54-1.35,0.61c-0.79,0.11-1.6,0.08-2.41,0.08c-6.34,0.01-12.67,0.01-19.01,0.02
	c-0.8,0-1.61-0.05-2.41-0.02c-1.33,0.05-2.28-0.51-3.03-1.6c-1.48-2.15-3.04-4.25-4.54-6.39c-0.22-0.32-0.36-0.71-0.47-1.09
	c-0.17-0.56,0.25-1.27,0.82-1.43c0.29-0.08,0.59-0.15,0.89-0.14C337.4,167.12,340.91,167.19,344.69,167.24z"/>
<path class="st0" d="M1668.84,198.8c8.23-0.01,16.16-0.02,24.09-0.02c3.89,0,4.23,0.3,4.88,4.11c0.15,0.89,0.34,1.77,0.43,2.67
	c0.08,0.73-0.41,1.4-1.14,1.55c-0.68,0.14-1.39,0.2-2.09,0.2c-8.73,0.01-17.46,0-26.2-0.01c-0.7,0-1.41-0.01-2.1-0.12
	c-0.83-0.13-1.46-0.6-1.84-1.39c-0.78-1.62-1.58-3.23-2.37-4.85c-0.48-0.98-0.11-1.84,0.93-2.04c0.59-0.11,1.2-0.12,1.79-0.13
	C1666.33,198.76,1667.43,198.79,1668.84,198.8z"/>
<path class="st0" d="M1252.23,198.79c4.12,0,7.94,0,11.75,0c0.7,0,1.41,0.02,2.11,0.05c0.89,0.03,1.61,0.42,1.82,1.29
	c0.42,1.75,0.82,3.51,1.04,5.29c0.13,1.05-0.52,1.67-1.6,1.79c-0.8,0.09-1.6,0.08-2.41,0.08c-8.24,0.01-16.47,0.01-24.71,0.01
	c-0.3,0-0.6,0.01-0.9,0c-2.2-0.09-2.58-0.42-3.14-2.46c-0.37-1.35-0.85-2.67-1.24-4.01c-0.26-0.87,0.16-1.69,1.03-1.85
	c0.88-0.16,1.79-0.2,2.69-0.2C1243.09,198.77,1247.51,198.78,1252.23,198.79z"/>
<path class="st0" d="M1187.84,203.84c-1.94,3.04-1.28,3.5-5.79,3.48c-8.23-0.02-16.47,0-24.7-0.01c-0.8,0-1.6-0.07-2.39-0.2
	c-0.6-0.1-1.05-0.85-0.8-1.39c0.89-1.9,1.79-3.8,2.81-5.64c0.45-0.8,1.31-1.23,2.28-1.27c0.6-0.02,1.2-0.02,1.81-0.02
	c8.54-0.01,17.07-0.02,25.61,0c0.89,0,1.79,0.13,2.66,0.33c0.57,0.13,0.88,1,0.58,1.5C1189.28,201.65,1188.6,202.64,1187.84,203.84z
	"/>
<path class="st0" d="M467.84,206.29c-0.3-2.25,0.56-4.12,0.93-6.07c0.17-0.87,0.88-1.33,1.77-1.36c1.6-0.06,3.21-0.1,4.81-0.09
	c7.22,0.01,14.44,0.03,21.66,0.06c0.9,0,1.81,0.02,2.7,0.13c0.92,0.11,1.45,0.72,1.31,1.67c-0.26,1.69-0.41,3.36,0.02,5.05
	c0.17,0.69-0.43,1.38-1.17,1.5c-0.59,0.1-1.2,0.12-1.79,0.12c-9.02,0.01-18.05,0.01-27.07-0.01
	C469.93,207.29,468.76,207.54,467.84,206.29z"/>
<path class="st0" d="M1762.97,207.3c-8.61,0-16.94,0.01-25.27,0.01c-0.6,0-1.21,0.01-1.8-0.02c-1.86-0.12-2.5-0.88-2.15-2.74
	c0.28-1.47,0.69-2.92,1.07-4.37c0.2-0.75,0.77-1.17,1.52-1.27c0.69-0.09,1.4-0.11,2.1-0.11c8.33-0.01,16.65-0.01,24.98-0.01
	c0.1,0,0.2,0,0.3,0c2.1-0.12,3.41,0.41,3.06,3.16c-0.15,1.17,0.11,2.39,0.17,3.59c0.05,1-0.34,1.56-1.29,1.68
	C1764.87,207.29,1764.06,207.27,1762.97,207.3z"/>
<path class="st0" d="M1525.86,207.3c-2.56-0.38-2.78-0.57-2.91-2.46c-0.09-1.3-0.17-2.6-0.19-3.91c-0.02-1.43,0.5-1.96,1.96-2.11
	c0.5-0.05,1-0.04,1.51-0.04c8.24-0.01,16.48-0.02,24.72-0.01c0.8,0,1.61,0,2.4,0.13c1.1,0.17,1.87,0.98,1.8,2.07
	c-0.11,1.69-0.35,3.39-0.65,5.06c-0.13,0.75-0.77,1.17-1.55,1.22c-0.9,0.06-1.81,0.06-2.71,0.06
	C1542.22,207.31,1534.18,207.31,1525.86,207.3z"/>
<path class="st0" d="M537.7,203.33c0.06-0.66,0.12-1.06,0.1-1.46c-0.1-2.16,0.43-3.11,3.29-3.1c8.63,0.02,17.25,0.02,25.88,0.03
	c0.3,0,0.6,0,0.9,0.03c1.22,0.13,1.94,0.76,1.87,1.9c-0.1,1.59-0.32,3.19-0.59,4.76c-0.17,0.97-0.89,1.56-1.87,1.71
	c-0.69,0.1-1.4,0.11-2.1,0.11c-8.13,0.01-16.25,0.01-24.38,0C537.49,207.3,537.32,207.07,537.7,203.33z"/>
<path class="st0" d="M1809.53,198.79c7.62,0,14.95,0,22.27,0.01c3.83,0,4.06,0.27,3.71,4.2c-0.06,0.7-0.1,1.4-0.22,2.09
	c-0.24,1.4-0.78,1.95-2.13,2.12c-0.69,0.09-1.4,0.08-2.1,0.08c-8.03,0.01-16.05,0.03-24.08,0.02c-3.41,0-3.64-0.28-3.33-3.62
	c0.08-0.9,0.14-1.8,0.25-2.69c0.19-1.57,0.69-2.05,2.33-2.16C1807.22,198.77,1808.23,198.8,1809.53,198.79z"/>
<path class="st0" d="M276.55,192.56c-5.22,0-10.14,0-15.06,0c-0.7,0-1.41,0.03-2.11-0.03c-1.38-0.11-2.04-0.81-1.9-2.14
	c0.15-1.49,0.39-2.98,0.64-4.46c0.17-1.01,0.81-1.6,1.84-1.68c0.7-0.06,1.4-0.07,2.1-0.07c8.13,0,16.26-0.01,24.39,0
	c3.43,0.01,3.68,0.31,3.1,3.62c-0.14,0.79-0.26,1.58-0.45,2.36c-0.44,1.8-1.06,2.37-2.92,2.4
	C283.07,192.6,279.96,192.56,276.55,192.56z"/>
<path class="st0" d="M255.37,201.31c0.3-1.77,1.27-2.46,2.76-2.51c0.4-0.01,0.8-0.01,1.2-0.01c8.12,0,16.24,0,24.36,0.01
	c0.7,0,1.41,0.01,2.1,0.11c0.87,0.13,1.45,0.81,1.36,1.7c-0.16,1.59-0.36,3.19-0.68,4.75c-0.25,1.19-1.09,1.88-2.36,1.92
	c-0.5,0.01-1,0.02-1.5,0.02c-8.12,0.01-16.24,0.02-24.36,0.01c-3.33,0-3.68-0.42-3.22-3.67
	C255.12,202.94,255.23,202.25,255.37,201.31z"/>
<path class="st0" d="M1487.19,202.05c-0.22,1.22-0.35,2.22-0.56,3.2c-0.33,1.46-0.79,1.87-2.21,2.01c-0.5,0.05-1,0.04-1.5,0.04
	c-8.22,0.01-16.45,0.01-24.67,0.02c-0.4,0-0.8,0.01-1.2-0.02c-1.46-0.11-2.07-0.65-1.95-2.06c0.12-1.49,0.37-2.98,0.71-4.44
	c0.31-1.31,1.23-2.02,2.63-2.01c0.6,0,1.2-0.01,1.81-0.01c7.82,0,15.65,0,23.47,0.01c0.4,0,0.8-0.02,1.2,0
	C1487.2,198.87,1487.51,199.27,1487.19,202.05z"/>
<path class="st0" d="M782.82,200.19c-0.28,1.9-0.55,3.59-0.93,5.24c-0.28,1.21-1.06,1.89-2.38,1.85c-0.9-0.03-1.81,0.02-2.71,0.02
	c-7.53,0-15.07,0.01-22.6,0c-0.8,0-1.61-0.01-2.4-0.13c-0.85-0.13-1.47-0.84-1.36-1.71c0.22-1.79,0.54-3.56,0.87-5.34
	c0.12-0.64,0.61-1.04,1.25-1.16c0.59-0.1,1.2-0.16,1.79-0.16c8.64-0.01,17.28,0,25.92,0.01c0.5,0,1.05-0.04,1.48,0.15
	C782.15,199.15,782.43,199.61,782.82,200.19z"/>
<path class="st0" d="M752.94,190.34c0.31-1.72,0.6-3.2,0.93-4.66c0.19-0.88,0.76-1.39,1.68-1.45c0.6-0.04,1.2-0.07,1.8-0.07
	c8.43,0,16.85,0.03,25.28-0.01c2.64-0.01,3.22,0.44,2.7,3.19c-0.22,1.18-0.54,2.34-0.84,3.51c-0.22,0.86-0.78,1.39-1.69,1.47
	c-1.2,0.1-2.4,0.24-3.6,0.24c-7.42,0.02-14.84,0.02-22.27,0c-0.9,0-1.8-0.07-2.69-0.22C753.3,192.18,752.94,191.5,752.94,190.34z"/>
<path class="st0" d="M1391.19,204.57c0.03,2.27-0.22,2.61-1.98,2.7c-1.3,0.07-2.61,0.04-3.91,0.04c-7.32,0-14.63-0.02-21.95,0
	c-2.63,0.01-3.49,0.09-3.88-3.23c-0.16-1.38-0.45-2.74-0.71-4.24c0.74-0.36,1.32-0.78,1.96-0.91c0.77-0.17,1.59-0.13,2.39-0.14
	c7.62-0.01,15.24,0,22.85-0.03c3.67-0.02,4.39,0.45,4.74,3.83C1390.78,203.19,1390.99,203.77,1391.19,204.57z"/>
<path class="st0" d="M1094.65,207.31c-3.01,0-5.72,0-8.43,0c-0.6,0-1.21,0-1.8-0.07c-0.77-0.09-1.32-0.61-1.3-1.4
	c0.06-1.8,0.19-3.59,0.39-5.38c0.1-0.88,0.79-1.39,1.64-1.55c0.68-0.12,1.4-0.12,2.09-0.12c8.02-0.01,16.05,0.01,24.07-0.01
	c2.89-0.01,4.36-0.16,3.43,3.95c-0.2,0.88-0.36,1.76-0.6,2.63c-0.37,1.32-1.22,1.97-2.64,1.95c-2.51-0.04-5.01,0-7.52,0
	C1100.97,207.31,1097.96,207.31,1094.65,207.31z"/>
<path class="st0" d="M1597.1,198.8c8.23-0.01,16.17-0.02,24.12-0.01c3.52,0,3.86,0.42,3.37,3.87c-0.11,0.8-0.22,1.6-0.4,2.38
	c-0.38,1.59-1.05,2.12-2.75,2.25c-0.4,0.03-0.8,0.02-1.21,0.02c-8.05,0-16.09,0-24.14-0.01c-0.7,0-1.41-0.01-2.1-0.12
	c-0.65-0.1-1.19-0.59-1.14-1.21c0.14-1.89,0.33-3.79,0.71-5.64c0.11-0.53,0.9-1.05,1.49-1.33
	C1595.55,198.76,1596.22,198.85,1597.1,198.8z"/>
<path class="st0" d="M1017.26,199.13c1.22-0.18,2.22-0.32,3.21-0.32c7.72-0.02,15.44-0.02,23.16-0.02c0.8,0,1.61,0,2.4,0.09
	c0.9,0.11,1.51,0.76,1.37,1.65c-0.27,1.77-0.64,3.54-1.06,5.28c-0.24,0.98-1.01,1.44-2.04,1.45c-0.7,0.01-1.4,0.03-2.1,0.03
	c-7.82,0.01-15.64-0.02-23.46,0.03c-2.72,0.02-3.75-0.1-3.21-3.72c0.13-0.89,0.24-1.79,0.39-2.67
	C1016.04,200.22,1016.38,199.61,1017.26,199.13z"/>
<path class="st0" d="M1328.81,202.94c0.56-0.97,0.98-1.77,1.46-2.54c0.63-1,1.52-1.58,2.74-1.58c0.4,0,0.8-0.02,1.21-0.02
	c6.83-0.01,13.66-0.03,20.49-0.02c2.97,0.01,3.41,0.67,2.39,3.42c-0.31,0.84-0.75,1.64-1.07,2.49c-0.69,1.82-1.96,2.63-3.93,2.62
	c-6.43-0.05-12.86-0.01-19.29-0.02c-1.41,0-2.81,0-4.21-0.1c-1.13-0.08-1.51-0.88-1.01-1.92
	C1327.94,204.55,1328.33,203.84,1328.81,202.94z"/>
</svg>
