<?xml version="1.0" encoding="utf-8"?>
<!-- Generator: Adobe Adobe Illustrator 24.2.0, SVG Export Plug-In . SVG Version: 6.00 Build 0)  -->
<svg version="1.1" id="Layer_1" xmlns="http://www.w3.org/2000/svg" xmlns:xlink="http://www.w3.org/1999/xlink" x="0px" y="0px"
	 width="1257.6px" height="878.4px" viewBox="355.2 121.2 1257.6 878.4" style="enable-background:new 0 0 1920 1080;" xml:space="preserve">
<style type="text/css">
	.st0{fill:none;stroke:#FFFFFF;stroke-width:3;stroke-opacity:0.9;}
	.st1{fill:none;stroke:#FFFFFF;stroke-width:3;stroke-opacity:0.9;}
</style>
<path class="st0" d="M673.64,247.28c16.96,4.81,31.44,12.87,42.68,26.21c7.82,9.28,12.72,19.88,14.34,31.92
	c1.29,9.53-1.09,18.52-4.45,27.32c-0.89,2.33-1.91,4.62-2.73,6.98c-1.48,4.25-0.47,7.81,3.07,10.7c2.89,2.35,5.99,4.24,9.73,4.8
	c8.72,1.3,17.44,2.61,26.17,3.86c12.42,1.77,24.65,4.33,35.79,10.37c19.19,10.4,30.34,26.46,31.4,48.35
	c0.81,16.69-4.86,31.82-15.06,45.05c-11.34,14.69-26.85,22.65-44.69,26.2c-25.82,5.14-51.04,1.89-75.76-6.41
	c-13.5-4.53-26.33-10.52-37.62-19.3c-4.57-3.56-8.77-7.69-12.7-11.96c-5.23-5.67-7.72-12.71-8.91-20.28
	c-1.37-8.71-2.67-17.44-4.49-26.05c-4.17-19.71-14.29-36.43-26.91-51.8c-18-21.92-40.21-38.76-64.25-53.4
	c-18.4-11.21-37.97-20.06-57.66-28.68c-18.22-7.98-35.7-17.25-50.95-30.24c-14.62-12.45-25.23-27.56-29.06-46.6
	c-4.59-22.86,6.02-40.8,24.72-49.35c12.64-5.78,25.82-5.92,39.17-3.39c21.45,4.06,40.24,13.85,57.05,27.45
	c8.53,6.9,16.53,14.47,24.58,21.95c8.54,7.94,16.62,16.37,25.28,24.16c19.11,17.16,42,25.14,67.33,27.04
	C651,243.01,662.27,244.17,673.64,247.28z M707.13,436.45c2.3,0.97,4.54,2.12,6.91,2.88c10.04,3.22,20.03,3.34,29.66-1.4
	c15.71-7.73,19.21-25.6,7.19-38.34c-12.51-13.26-27.92-18.7-46.18-15.6c-16.36,2.78-22.33,18.78-16.98,31.5
	C691.57,424.63,697.76,431.48,707.13,436.45z M661.24,294.23c-3.57-2.13-7.04-4.43-10.72-6.34c-5.41-2.82-11.22-3.97-17.35-3.75
	c-11.75,0.42-19.08,9.37-16.71,20.94c3.75,18.32,15.2,30.25,32.01,37.38c5.11,2.17,10.61,2.54,16.18,1.67
	c9.44-1.46,15.46-8.27,15.59-17.78c0.06-4.23-0.87-8.23-2.64-12.08C673.97,306.41,668.82,299.79,661.24,294.23z"/>
<path class="st1" d="M1095.15,700.76c-3.94-6.7-6.35-13.53-7.52-20.88c-1.83-11.49-4.29-22.89-5.88-34.42
	c-1.86-13.43-1.41-26.96,0.36-40.36c2.71-20.57,7.83-40.51,16.7-59.38c5.29-11.26,11.81-21.63,21.02-30.14
	c9.84-9.09,21.23-14.03,34.86-13.61c15.53,0.48,27.09,12.6,26.25,26.89c-0.67,11.46-1.78,22.9-2.43,34.37
	c-0.24,4.27,0.1,8.6,0.49,12.87c0.15,1.57,1.03,3.18,1.92,4.55c2.19,3.4,5.71,4.49,9.07,2.27c2.57-1.69,5.02-4,6.63-6.59
	c2.45-3.92,4.27-8.26,6.11-12.54c4.13-9.63,7.67-19.55,12.25-28.97c8.39-17.28,21.12-30.64,38.36-39.38
	c8.43-4.27,17.38-6.6,26.94-6.46c17.1,0.24,29.74,11.11,32.64,27.93c1.37,7.93,0.39,15.6-1.59,23.23
	c-2.77,10.72-7.88,20.47-12.64,30.38c-3.37,7.03-6.67,14.22-8.86,21.67c-6.07,20.66-1.85,39.55,11.41,56.39
	c3.81,4.84,8.12,9.27,12.1,13.98c6.04,7.15,9.18,15.35,8.7,24.83c-0.61,11.99-6.33,21.23-15.59,28.39
	c-18.39,14.21-50.23,14.99-69.19-3.22c-8.87-8.52-13.41-19.25-15.42-31.24c-2.54-15.13,0.86-29.44,5.58-43.62
	c2.36-7.1,4.99-14.15,6.83-21.39c0.96-3.77,0.97-7.97,0.54-11.87c-0.8-7.23-6.68-9.73-12.7-5.65c-5.26,3.57-9,8.49-11.23,14.36
	c-2,5.27-3.53,10.74-5,16.2c-2.09,7.75-4.57,15.33-8.55,22.33c-3.71,6.51-9.39,9.63-16.91,9.52c-4.27-0.06-7.73-1.79-10.7-4.67
	c-4.2-4.08-6.59-9.18-7.92-14.78c-1.73-7.28-3-14.69-5.01-21.89c-1.19-4.27-2.98-8.53-5.3-12.3c-4.15-6.74-11.37-6.14-14.8,1.01
	c-3.25,6.77-3.57,13.83-1.21,20.92c2.89,8.69,6.13,17.26,8.93,25.97c2.23,6.96,4.33,14,5.89,21.13c1.52,6.93,0.92,13.92-1.33,20.71
	c-6.16,18.59-26.57,25.65-42.92,14.82C1101.68,709.22,1098.16,705.48,1095.15,700.76z"/>
<path class="st0" d="M855.35,415.41C865.6,394.15,870.89,371.9,874,349c2.73-20.11,4.99-40.3,9.98-60.03
	c5.39-21.29,13.2-41.57,25.85-59.73c7.33-10.53,16.06-19.52,27.82-25.21c16.54-8,33.65-4.34,45.4,9.89
	c9.34,11.31,15.09,24.45,17.7,38.68c2.66,14.55,4.46,29.29,6.05,44c2.22,20.61,5.18,41.01,14.01,60.01
	c2.8,6.02,6.09,11.86,9.71,17.42c6.65,10.21,13.24,20.43,17.47,31.93c7.67,20.84,7.65,41.49-2.68,61.47
	c-6.57,12.7-17.25,19.65-31.79,19.65c-10.82,0-19.07-5.32-25.38-13.74c-4.76-6.36-7.37-13.71-9.32-21.37
	c-1.64-6.43-3.53-12.83-5.81-19.05c-1.85-5.04-5.16-9.25-9.23-12.87c-10.16-9.03-24.58-7.95-34.11,0.72
	c-7.9,7.19-12.26,16.45-15.79,26.27c-3.49,9.71-7.02,19.41-10.7,29.05c-6.77,17.76-20.33,26.66-38.65,28.79
	c-11.18,1.29-22.26,0.08-33.16-2.83c-5.74-1.53-9.42-5.46-12.33-10.24c-1.74-2.85-1.74-6.09-0.52-9.17c0.79-1.99,1.77-3.98,3.03-5.7
	c12.27-16.77,21.17-35.43,30.32-53.94C853.03,420.63,854.07,418.17,855.35,415.41z M958.66,367.16c3.49-3,5.8-6.82,7.52-11.03
	c7.74-18.96,7.37-37.93-0.1-56.85c-1.92-4.87-4.93-9.06-8.93-12.46c-6.03-5.12-13.53-5.44-19.65-0.52
	c-2.69,2.16-5.39,4.65-7.16,7.56c-12.02,19.72-14.87,40.64-7.32,62.67c2.15,6.27,5.8,11.6,11.46,15.3
	c5.64,3.69,11.53,4.19,17.41,0.73C954.15,371.23,956.07,369.32,958.66,367.16z"/>
<path class="st0" d="M1533.69,861.33c-3.11-2.76-5.68-5.79-8.91-7.67c-7.77-4.53-14.54-0.73-14.95,8.23
	c-0.26,5.65,0.19,11.32,0.09,16.98c-0.04,2.28-0.34,4.7-1.18,6.8c-2,5.04-6.42,6.7-11.44,4.63c-4.34-1.78-7.4-5.03-9.86-8.89
	c-4.8-7.56-7.53-15.96-9.33-24.62c-2.47-11.85-2.52-23.79-0.16-35.69c1.52-7.66,4.66-14.66,10.11-20.31
	c9.41-9.76,20.94-12.53,33.89-9.1c11.98,3.17,22.41,9.43,31.72,17.42c22.82,19.58,36.61,44.59,43.1,73.71
	c3.14,14.07,4.01,28.27,1.24,42.63c-4.73,24.56-19.18,39-43.87,43.64c-11.82,2.22-23.75,3.62-35.72,3.57
	c-37.66-0.15-71.06-11.58-98.09-38.76c-10.8-10.86-21.88-21.5-32-32.97c-16.79-19.01-30.15-40.26-38.11-64.54
	c-10.96-33.44-8.34-65.86,9.22-96.4c9.58-16.65,24.18-27.88,43.18-32.33c9.28-2.17,18.67-1.85,27.03,3.54
	c9.89,6.37,15.05,15.81,16.25,27.37c1.11,10.67-0.16,21.27-1.51,31.85c-2.28,17.82-5.23,35.57-5.6,53.61
	c-0.52,24.81,6.96,47.22,20.15,67.94c8.77,13.79,19.49,25.76,33.28,34.73c5.18,3.37,10.66,6.16,16.77,7.52
	c17.72,3.95,33.16-5.7,36.72-23.43C1549.37,892.66,1546.03,876.03,1533.69,861.33z"/>
<path class="st0" d="M419.83,922.12c2.44,2.04,4.44,4.14,6.86,5.53c11.93,6.89,26.77-1.16,27.3-14.95
	c0.16-4.24-0.47-8.65-1.56-12.77c-1.78-6.71-1.8-13.1,1.08-19.49c5.7-12.63,20.41-11.99,26.77-2.9c2.73,3.89,5.04,8.33,6.46,12.86
	c11.9,38.05-9.17,85.38-55.45,95.25c-26.86,5.73-50.31-7.82-60.8-30.21c-7.39-15.78-9.45-32.42-8.01-49.68
	c3.3-39.36,20.12-73.14,42.74-104.56c17.6-24.45,38.91-45.09,64.07-61.72c15.07-9.96,31.4-16.71,49.25-19.74
	c17.41-2.95,31.06,3.11,41.34,17.18c6.19,8.47,9.97,18.06,12.3,28.21c5.55,24.14,4.75,47.97-4.27,71.19
	c-2.22,5.7-5.54,10.98-8.45,16.41c-3.93,7.34-8.18,14.55-9.82,22.85c-0.39,1.94-0.61,3.95-0.62,5.93
	c-0.04,4.95,2.11,8.91,6.62,10.85c4.24,1.83,8.74,3.21,13.26,4.18c7.16,1.53,14.42,2.55,21.64,3.8c7.64,1.33,15.23,1.53,22.72-0.93
	c0.59-0.19,1.28-0.09,2.7-0.18c-0.86,1.52-1.3,2.66-2.04,3.56c-14.04,17.23-31.39,28.66-54.1,30.48c-9.96,0.8-19.93,1.57-29.88-0.1
	c-15.84-2.67-24.8-13.22-25.31-29.26c-0.29-9.28,1.52-18.18,3.71-27.11c2.22-9.04,4.55-18.1,5.85-27.29
	c1.38-9.73-1.32-18.86-7.34-26.74c-4.25-5.55-10.21-8.47-17-9.63c-9.11-1.55-17.99-0.42-26.29,3.58
	c-29.18,14.06-47.39,36.71-52.31,69.04C409.31,898.65,411.52,911.06,419.83,922.12z"/>
<path class="st0" d="M1275.45,309.4c6.55-2.13,12.85-3.81,18.87-6.2c16.72-6.64,29.68-18.15,40.64-32.17
	c10.72-13.73,18.94-28.98,26.98-44.32c9.14-17.44,19.13-34.36,31.86-49.47c15.42-18.31,33.18-33.67,55.58-42.95
	c13.33-5.52,27.1-8.03,41.51-5.2c25.95,5.1,42.73,28.57,39.34,54.76c-3.1,23.93-15.28,42.67-33.13,58.05
	c-16.3,14.04-35.51,22.8-55.88,29.11c-14.62,4.53-29.41,8.5-44.02,13.06c-12.43,3.88-24.26,9.25-35.5,15.87
	c-14.69,8.64-27.31,19.63-37.33,33.43c-14.28,19.66-25.02,40.9-27.94,65.42c-1.23,10.29-1.04,20.61,0.07,30.91
	c1.52,14-0.02,27.49-5.68,40.56c-3.29,7.6-11.22,10.48-18.81,4.53c-3.88-3.05-6.8-6.95-8.11-11.75c-2.1-7.7-3.95-15.47-5.91-23.21
	c-0.69-2.74-1.32-5.5-2.09-8.22c-2.85-10.05-8.95-17.37-18.51-21.66c-7.86-3.53-12.78-9.53-14.7-17.8
	c-6.03-26.06,1.27-52.04,25.17-69.19C1256.21,316.98,1265.41,312.8,1275.45,309.4z"/>
<path class="st1" d="M734.22,661.85c9.02-2.21,14.66-11.94,9.39-22.11c-1.86-3.6-4.72-6.86-7.71-9.65
	c-6.54-6.11-14.48-10.09-22.86-13.02c-11.78-4.12-23.72-7.81-35.49-11.94c-14.5-5.09-27.63-12.53-37.93-24.18
	c-9.73-11-14.93-23.86-14.99-38.7c-0.07-16.56,6.84-29.74,19.8-39.55c13.81-10.45,29.7-14.96,46.95-13.41
	c15.26,1.37,30.55,3.38,45.18,7.99c31.8,10.02,52.86,31.15,62.7,63.14c2.28,7.43,1.8,14.84-1.53,21.92
	c-4.5,9.55-14.19,12.66-23.47,7.61c-5.57-3.03-9.4-7.78-13.06-12.83c-4.29-5.91-8.56-11.94-13.6-17.18
	c-7.21-7.5-16.2-12.15-26.72-13.4c-5.51-0.65-10.62,0.48-15.2,3.62c-5.46,3.75-7.79,10.27-6.18,16.7c1.49,5.96,5.2,10.36,9.91,14
	c6.66,5.15,14.1,8.81,22.18,11.17c9.11,2.66,18.25,5.2,27.31,8.01c14.29,4.43,26.84,11.81,36.62,23.28
	c17.92,20.99,18.21,52.75,0.85,74.81c-16.19,20.57-37.57,29.37-63.49,28.21c-18.05-0.81-34.67-6.11-50.13-15.23
	c-12.05-7.11-23.99-14.41-35.9-21.75c-17.87-11.01-21.8-36.23-8.15-51.76c5.56-6.32,12.7-9.5,20.92-10.54
	c13.94-1.77,25.5,3.22,35.42,12.63c3.02,2.86,5.65,6.12,8.6,9.05c2.47,2.46,5.04,4.85,7.75,7.04
	C717.95,661.07,725.39,663.37,734.22,661.85z"/>
<path class="st1" d="M853.03,514.02c7.14-0.27,13.38,1,18.93,4.95c7.53,5.36,10.64,12.88,8.13,21.82c-1.89,6.71-4.62,13.18-7,19.75
	c-1.19,3.29-2.67,6.49-3.55,9.86c-0.69,2.68-1.16,5.6-0.85,8.31c0.79,6.96,5.52,9.74,12.11,7.55c5.02-1.67,9.07-4.85,12.89-8.38
	c8.82-8.16,15.29-18,20.37-28.79c3.05-6.48,5.86-13.07,8.87-19.57c4.26-9.21,10.07-17.23,18.22-23.43
	c8.34-6.36,17.79-8.96,28.16-7.95c11.46,1.11,23.7,12.43,22.96,25.45c-0.71,12.47-5.61,23.24-13.23,32.82
	c-10.05,12.63-22.92,21.68-37.45,28.49c-7.54,3.54-15.16,6.93-22.48,10.88c-3.42,1.85-6.67,4.49-9.17,7.47
	c-4.44,5.3-3.38,11.33,2.61,14.85c4.27,2.5,9,4.29,13.67,6c10.62,3.9,21.52,7.1,31.96,11.42c12.3,5.09,23.08,12.64,31.3,23.36
	c7.1,9.26,10.31,19.83,9.02,31.4c-1.64,14.65-13.03,26.87-27.84,30.65c-17.84,4.55-35.49-1.85-46.34-16.8
	c-4.54-6.26-7.62-13.26-10.4-20.42c-3.32-8.53-6.7-17.04-10.23-25.49c-2.55-6.1-6.56-11.26-11.73-15.33
	c-2.29-1.81-5.05-3.28-7.84-4.13c-5-1.52-8.8,0.54-10.9,5.37c-1.87,4.29-1.9,8.78-0.75,13.23c1.82,7.1,3.85,14.14,5.7,21.23
	c2.17,8.34,2.73,16.77,0.59,25.2c-4.68,18.44-23.84,30.18-42.4,26.09c-10.12-2.24-18.45-11.34-20.42-22.31
	c-1.59-8.88-0.85-17.54,2.14-26.07c5.23-14.89,8.08-30.2,7.74-46.04c-0.21-9.72-2.38-19.12-4.39-28.57
	c-2.76-13.02-5.62-26.03-7.95-39.13c-1.57-8.78-0.87-17.63,1.67-26.22c4.68-15.83,17.41-26.04,33.91-27.39
	C850.23,514.08,851.4,514.07,853.03,514.02z"/>
<path class="st0" d="M1089.91,344c6.12-13.05,12.72-25.39,22.08-35.98c11.18-12.65,24.33-22.3,41.37-25.32
	c3.86-0.68,8.04-0.71,11.9-0.04c11.28,1.96,18.18,11.14,18.4,23.97c0.13,7.79-1.88,15.17-5,22.25
	c-5.22,11.85-12.48,22.33-20.97,32.08c-11.82,13.56-23.42,27.31-35.02,41.06c-4.78,5.67-8.17,12.21-10.29,19.28
	c-3.05,10.16,3.67,18.98,14.25,18.97c1.98,0,4.06-0.13,5.91-0.76c7.4-2.52,14.81-5.03,22.04-7.97c6.94-2.82,13.59-6.34,20.5-9.23
	c13.06-5.45,26.6-7.43,40.56-4.31c16.58,3.71,27.98,13.53,31.63,30.32c3.61,16.63-2.05,30.57-15.43,41.13
	c-8.2,6.47-17.75,9.61-28.08,10.78c-9.82,1.12-19.25-0.51-28.48-3.61c-8.05-2.7-16.03-5.61-23.97-8.63
	c-14.18-5.4-28.61-5.56-43.24-2.4c-7.32,1.58-14.59,3.42-21.94,4.88c-2.9,0.58-5.96,0.66-8.93,0.59
	c-9.83-0.26-21.29-12.32-16.1-24.47c4.7-11.01,6.2-22.79,6.51-34.66c0.36-13.73,2.4-27.16,5.93-40.41
	C1077.85,375.41,1082.88,359.56,1089.91,344z"/>
<path class="st0" d="M923.88,743.64c1.05,8.09-0.35,15.38-3.58,22.31c-2.39,5.13-4.95,10.19-7.54,15.22
	c-7.07,13.74-11.18,28.16-9.95,43.75c2.08,26.3,13.53,46.7,37.62,58.96c6.02,3.06,11.62,6.58,15.41,12.34
	c1.18,1.79,2.28,3.71,3.02,5.72c2.61,7.09,0.14,14.21-6.26,18.26c-6.72,4.25-14.12,4.83-21.68,3.37
	c-15.24-2.94-27.24-11.18-36.83-23.15c-10.96-13.67-17.36-29.42-21.23-46.37c-0.99-4.35-2.31-8.72-4.21-12.74
	c-3.17-6.72-9.7-9.61-16.59-8.02c-6.28,1.45-10.95,7.3-11.35,14.22c-0.28,4.91,0.43,9.6,2.54,14.1c2.82,6.03,5.54,12.12,8.17,18.24
	c2.46,5.73,3.65,11.71,3.41,18c-0.61,15.75-14.35,21.78-26.35,17.36c-7.22-2.67-12.36-7.63-16.1-14.25
	c-4.97-8.79-8.12-18.24-10.25-28.04c-2.73-12.56-4.21-25.3-3.93-38.15c0.33-15.02,2.42-29.83,6.73-44.28
	c1.27-4.26,3.43-7.95,6.76-10.89c7.07-6.25,10.89-14.11,12-23.44c0.96-8.09,6.14-12.97,14.3-13.94c7.22-0.86,15.44,3.73,14.91,13.29
	c-0.28,5.22-1.11,10.17-3.03,15.06c-2.35,6.02-4.27,12.22-6.28,18.37c-0.35,1.07-0.36,2.31-0.28,3.46
	c0.49,6.89,5.53,10.86,12.76,10.13c7.77-0.78,13.59-6.74,14.82-15.84c0.71-5.26,0.68-10.62,0.97-15.93
	c0.56-10.35,3.24-20.04,9.14-28.66c4.59-6.71,10.71-11.34,18.78-13.12C911.7,726.31,920.34,731.43,923.88,743.64z"/>
<path class="st0" d="M674.29,852.58c-2.89-7.64-5.47-15.01-8.34-22.27c-1.64-4.15-3.35-8.37-5.77-12.07
	c-2.95-4.5-7.56-6.98-13.04-7.34c-7.96-0.52-13.85,3.53-16.25,11.18c-1.95,6.21-1.29,12.54-0.54,18.84
	c0.97,8.2,0.79,16.3-1.61,24.25c-3.65,12.09-11.31,20.34-23.74,23.34c-11.69,2.82-21.92-0.63-27.86-9.55
	c-3.65-5.5-4.4-11.45-2.18-17.64c2.81-7.84,5.87-15.58,8.72-23.41c6.58-18.08,6.77-36.5,2.76-55.12
	c-2.31-10.74-4.88-21.43-6.81-32.24c-2.19-12.23-0.91-24.17,4.16-35.68c7.6-17.26,24.57-25.39,42.74-20.2
	c14.66,4.18,25.47,13.38,33.72,25.9c5.93,9,10.25,18.75,12.56,29.23c3.71,16.8,11.28,31.55,22.16,44.78
	c9.01,10.95,15.9,23.06,18.38,37.23c1.62,9.25,1.14,18.29-4.21,26.48c-5.5,8.43-14.69,10.72-23.52,5.83
	C680.84,861.47,677.35,857.48,674.29,852.58z M623.44,784.05c1.1,1.02,2.07,2.23,3.31,3.02c9.68,6.2,21.34,3.07,22.98-9.36
	c0.82-6.24-0.36-12.31-3.4-17.85c-3.28-5.96-7.49-10.97-14.44-12.93c-5.32-1.5-9.78-0.24-12.35,4.6c-1.75,3.28-2.98,7.08-3.42,10.77
	C615.15,770.28,617.83,777.36,623.44,784.05z"/>
<path class="st0" d="M1323.7,830.28c2.57,7.1,4.98,13.84,7.47,20.55c2.45,6.6,2.61,13.42,1.58,20.21
	c-1.92,12.72-15.11,20.86-27.79,17.47c-10.16-2.72-17.6-9.18-23.8-17.29c-8.27-10.81-14.05-22.99-19.18-35.5
	c-2.21-5.39-4.35-10.82-6.78-16.1c-1.17-2.54-2.69-5.03-4.52-7.13c-4.43-5.08-10.65-3.91-12,2.68c-1.04,5.08-1.17,10.74-0.05,15.77
	c1.87,8.41,5.03,16.53,7.72,24.75c2.23,6.83,4.38,13.67,3.87,20.98c-0.19,2.64-0.43,5.35-1.18,7.86
	c-2.62,8.74-11.34,13.44-20.1,10.85c-8.11-2.4-13.79-7.88-17.85-15.1c-5.22-9.28-8.16-19.37-8.99-29.91
	c-0.79-9.94-1.31-19.96-0.99-29.92c0.69-21.92,4.3-43.35,12.82-63.75c2.74-6.55,6.53-12.31,11.86-17.08
	c10.84-9.72,25.35-7.67,32.79,4.81c3.74,6.27,5.14,13.3,6.28,20.4c0.98,6.08,1.58,12.25,3.08,18.2c1.25,4.94,3.29,9.73,5.49,14.35
	c1.41,2.97,4.13,4.85,7.76,4.32c3.57-0.52,5.41-3,6.53-6.17c1.89-5.36,1.38-10.81,0.76-16.3c-0.59-5.28-1.18-10.58-1.43-15.88
	c-0.36-7.67,1.78-14.86,5.18-21.63c4.94-9.86,13.07-15.81,23.77-18.17c9.45-2.09,17.53,4.73,16.82,14.41
	c-0.26,3.59-1.31,7.21-2.51,10.64c-1.86,5.34-4,10.6-6.31,15.76c-9.1,20.38-9.11,40.97-1.78,61.8
	C1322.64,827.41,1323.11,828.66,1323.7,830.28z"/>
<path class="st0" d="M1136.97,853.03c4.34,2.55,8.37,4.89,12.37,7.29c6.21,3.73,11.7,8.29,15.72,14.39
	c6.13,9.28,7.3,19.05,1.17,28.63c-5.98,9.35-15.37,11.61-25.82,10.35c-11.34-1.37-20.17-7.31-27.6-15.66
	c-8.96-10.06-14.29-21.99-17.83-34.82c-1.46-5.29-2.67-10.65-4.07-15.95c-1.26-4.79-3.71-8.91-7.39-12.23
	c-5.02-4.52-10.5-3.66-13.5,2.4c-1.22,2.46-2.09,5.39-2.05,8.09c0.06,4.97,0.86,9.93,1.44,14.88c0.83,6.99,1.07,13.97-0.59,20.86
	c-1.89,7.8-5.45,14.68-12.07,19.55c-4.62,3.39-9.89,4.8-15.58,3.95c-11.17-1.66-18.25-12-15.82-23.63c0.87-4.15,2.53-8.33,4.7-11.99
	c6.17-10.43,9.11-21.65,10.02-33.63c1.05-13.93-1.4-27.48-3.5-41.12c-2.33-15.16-0.7-29.88,5.74-43.93
	c6.29-13.72,17.7-20.84,31.8-24.19c16.49-3.91,31.78-0.87,45.57,8.97c24.96,17.81,25.35,54.6,0.86,73.48
	c-1.32,1.02-2.71,1.94-4.03,2.95c-6.62,5.09-8.15,11.57-4.3,18.94c2.98,5.71,7.35,10.32,12.46,14.14
	C1128.5,847.64,1132.64,850.17,1136.97,853.03z M1080.54,801.02c10.89-0.33,20.77-9.71,19.73-22.94
	c-0.92-11.69-13.06-18.59-23.35-12.97c-7.65,4.18-12.07,14.08-10.3,23.06C1068.21,796.17,1071.54,799.44,1080.54,801.02z"/>
<path class="st0" d="M960.21,880.01c-12.29-3.98-22.29-10.56-29.62-20.84c-5.94-8.32-9.25-17.8-10.5-27.78
	c-3.56-28.48,3.11-54.64,19.79-77.92c9.82-13.71,22.96-23.29,40.09-25.79c11.84-1.73,23.65-1.15,34.61,4.52
	c12.48,6.46,18.03,20.82,13.37,33.45c-3.35,9.09-15.1,17.38-27.41,10.47c-3.34-1.87-6.56-3.96-9.9-5.82
	c-3.83-2.13-7.85-3.56-12.37-3.29c-4.41,0.26-8.01,2.06-11,5.19c-2.69,2.81-3.31,6.16-1.91,9.7c1.36,3.45,4.23,5.11,7.84,5.22
	c3.83,0.12,7.66-0.15,11.49-0.06c1.97,0.05,4.04,0.19,5.89,0.81c8.74,2.95,11.25,13,4.95,19.77c-3.63,3.9-8.26,5.5-13.54,4.85
	c-4.12-0.51-8.21-1.33-12.32-1.97c-3.93-0.61-7.65-0.11-10.93,2.32c-4.22,3.13-6.35,8.68-5.12,13.2c1.39,5.11,6.89,9.67,12.44,10.18
	c5.24,0.48,10.28-0.22,15-2.77c4.69-2.53,9.4-5.02,14.21-7.31c4.97-2.37,10.24-2.95,15.57-1.39c10.86,3.18,17.01,13.79,14.77,25.55
	c-1.42,7.43-4.91,13.84-10.62,18.8c-8.8,7.64-19.09,11.89-30.71,13.14C976.2,883.11,968.36,882.24,960.21,880.01z"/>
<path class="st0" d="M813.14,752.23c0.26,8.53-2.06,15.55-8.5,20.85c-3.99,3.29-8.46,5.22-13.73,5.08
	c-2.66-0.07-5.34-0.21-7.99-0.02c-8.68,0.62-13.9,6.26-14.24,14.95c-0.32,8.13,1.28,15.9,4.12,23.45c2.7,7.17,5.47,14.31,8.22,21.45
	c3.31,8.58,6.01,17.35,6.38,26.59c0.42,10.39-1.26,20.33-8.74,28.29c-7.29,7.74-17.82,9.68-27.51,5.24
	c-7.25-3.32-12.54-8.77-16-15.88c-6.39-13.13-8.99-27.06-8.47-41.65c0.31-8.56,2.15-16.81,4.22-25.04
	c1.67-6.62,3.25-13.22,3.11-20.15c-0.23-11.37-6.45-17.71-17.77-17.45c-4.94,0.12-10.06-0.03-14.81-1.21
	c-14.19-3.52-20.08-24.9-11.8-35.36c3.83-4.83,8.63-7.54,14.54-7.45c6.12,0.09,12.24,0.99,18.33,1.78
	c9.22,1.2,18.22,3.84,27.67,3.54c8.89-0.28,17.49-1.99,26.13-3.81c5.34-1.13,10.83-2.15,16.25-2.12
	C803.41,733.36,812.25,740.65,813.14,752.23z"/>
<path class="st1" d="M1016.45,691.3c-1.34-11.51-5.42-21.58-10.69-31.36c-7.59-14.1-12.68-28.97-11.78-45.32
	c0.52-9.34,3.22-18.04,8.51-25.76c7.12-10.4,17.73-15.24,29.63-17.75c4.94-1.04,9.92-1.14,14.87,0.01c5.28,1.23,9.45,3.99,12.1,8.85
	c2.26,4.15,1.82,8.42,0.32,12.58c-1.58,4.38-3.31,8.72-5.31,12.92c-4.9,10.27-5.13,20.63-0.37,30.86
	c2.51,5.41,5.68,10.55,8.94,15.56c5.12,7.86,9.81,15.85,11.66,25.21c1.31,6.6,1.58,13.22,0.4,19.83
	c-1.39,7.74-5.5,13.84-11.79,18.49c-5.63,4.16-12.14,5.15-18.56,3.36C1030.35,714.87,1020.08,706.64,1016.45,691.3z"/>
<path class="st1" d="M1073.53,547.6c-11.3,6.71-23.04,11.12-35.72,13.02c-7.76,1.16-15.27,0.43-22.54-2.41
	c-8.64-3.38-12.3-10.37-10.54-19.52c1.24-6.44,4.4-11.93,8.79-16.53c4.34-4.54,8.92-9.07,14.13-12.51
	c14.45-9.53,30.29-15.12,47.89-14.63c5.81,0.16,11.16,1.75,15.87,5.19c5.62,4.1,7.94,9.62,6.87,16.53
	c-1.4,9.03-6.55,15.93-12.95,21.92C1081.84,541.93,1077.69,544.51,1073.53,547.6z"/>
<path class="st0" d="M1237.81,266c4.7-19.67,16.77-32.97,33.79-42.15c7.34-3.96,15.41-5.21,23.7-4.79
	c11.56,0.59,20.49,9.97,20.67,21.61c0.19,12.07-4.96,22-12.99,30.43c-10.96,11.5-24.02,19.39-40.14,21.42
	C1244.75,294.8,1234.36,279.74,1237.81,266z"/>
<path class="st0" d="M1371.97,413c-13.87,6.71-27.73,11.99-43.26,11.77c-1.23-3.12-0.19-5.92,0.44-8.52
	c4.91-20.29,13.92-38.4,29.2-52.97c8.68-8.28,18.37-14.84,30.59-16.69c0.98-0.15,1.97-0.3,2.97-0.36
	c13.3-0.83,20.81,7.85,18.57,21.11c-1.77,10.43-7.17,18.85-13.91,26.6C1389.7,401.81,1381.57,408.06,1371.97,413z"/>
<path class="st0" d="M1190.96,777.07c-0.81,3.45-1.42,6.55-2.47,9.49c-1.45,4.06-3.23,8.01-4.88,12.01c-2.54,6.16-2.25,12.3,0,18.49
	c1.65,4.53,3.04,9.15,4.67,13.69c2.07,5.77,1.65,11.46-0.42,17.08c-3.57,9.71-13.59,13.56-22.8,8.79
	c-5.71-2.95-9.61-7.65-12.27-13.36c-9.11-19.6-10.24-39.71-3.33-60.18c4.24-12.57,15.44-20.02,27.9-18.96
	C1185.54,764.81,1189.97,768.89,1190.96,777.07z"/>
<path class="st0" d="M1373.28,901.62c2.82,2.1,5.66,3.71,7.73,6.01c7.05,7.82,5.13,17.57-4.23,22.34
	c-8.55,4.36-17.56,4.57-26.79,2.84c-19.87-3.72-35.72-14.07-48.62-29.32c-0.69-0.82-1.08-1.9-2.02-3.59
	c1.99,0.19,3.26,0.13,4.42,0.45c7.08,1.89,14.13,1.7,21.24,0.07c9.59-2.19,19.25-3.78,29.18-3.46
	C1360.81,897.18,1367.08,898.36,1373.28,901.62z"/>
<path class="st0" d="M1159.48,750.7c-8.2-5.85-8.84-13.42-2.03-23.48c6.61-9.76,16.48-15.23,28.21-17.14
	c5.82-0.95,11.54-1.17,17.2,1.01c9.1,3.51,12.67,11.32,9.25,20.53c-2.42,6.52-6.87,11.31-12.63,14.99
	c-8.8,5.63-18.36,8.75-28.85,7.58C1166.94,753.77,1163.4,752.03,1159.48,750.7z"/>
<path class="st0" d="M575.9,429.17c-22.19-5.38-40.26-16.59-54.34-34.07c-5.86-7.27-9.63-15.53-11.12-24.79
	c-1.98-12.3,7.35-21.72,19.68-19.77c8.57,1.36,16.27,4.84,23.15,10.04c22.66,17.12,35.54,40.07,40.27,67.85
	c0.06,0.33,0.08,0.67,0.06,0.99c-0.03,0.33-0.13,0.64-0.28,1.29C587.55,432.14,581.95,430.46,575.9,429.17z"/>
</svg>
