<?xml version="1.0" encoding="utf-8"?>
<!-- Generator: Adobe Adobe Illustrator 24.2.0, SVG Export Plug-In . SVG Version: 6.00 Build 0)  -->
<svg version="1.1" id="Layer_1" xmlns="http://www.w3.org/2000/svg" xmlns:xlink="http://www.w3.org/1999/xlink" x="0px" y="0px"
	 width="1329px" height="966px" viewBox="314 68 1329 966" style="enable-background:new 0 0 1920 1080;" xml:space="preserve">
<style type="text/css">
	.st0{fill:none;stroke:#FFFFFF;stroke-width:3;stroke-opacity:0.9;}
	.st1{fill:none;stroke:#FFFFFF;stroke-width:3;stroke-opacity:0.9;}
	.st2{fill:none;stroke:#FFFFFF;stroke-width:3;stroke-opacity:0.9;}
	.st3{fill:none;stroke:#FFFFFF;stroke-width:3;stroke-opacity:0.9;}
</style>
<g>
	<path class="st0" d="M1340.84,487.16c8.56,17.32,10.14,35.06,5.41,53.28c-3.67,14.15-7.67,28.23-11.93,42.22
		c-5.67,18.64-4.89,36.53,5.65,53.29c8.5,13.53,20.66,22.8,35.26,29.1c11.01,4.75,22.47,5.67,34.25,4.96
		c10.2-0.62,20.21,0.1,30.06,3.38c12.92,4.31,22.49,12.68,30.26,23.47c6.66,9.24,11.83,19.29,16.2,29.78
		c1.15,2.76,2.52,5.44,3.76,8.17c2.72,6.03,7.69,9.11,13.93,10.12c4.26,0.69,8.63,1.26,12.91,1.07
		c16.58-0.74,30.54,5.53,43.18,15.54c12.63,9.99,22.82,22.32,33.04,34.64c12.13,14.63,21.66,30.73,28.34,48.51
		c5.23,13.9,8.81,28.19,10.87,42.94c1.34,9.56,3.07,19.03,2.84,28.73c-0.54,23.12-8,43.76-22.61,61.63
		c-15.9,19.45-36.64,30.56-61.45,33.91c-16.84,2.27-33.54,0.49-50.07-2.99c-24.24-5.1-47.66-12.66-69.3-24.89
		c-10.43-5.89-20.43-12.55-30.42-19.17c-3.93-2.61-7.31-3.24-11.97-1.6c-18.34,6.47-36.94,6.15-55.42,0.44
		c-24.76-7.66-45.14-21.75-60.99-42.32c-0.81-1.05-1.72-2.03-2.65-2.98c-0.33-0.33-0.86-0.45-1.59-0.82
		c-10.32,7.43-21.33,13-34.77,12.77c-13.31-0.23-24.23-6.23-35.27-13.26c-1.29,1.82-2.36,3.25-3.34,4.75
		c-9.78,14.99-23.59,23.97-41.27,26.02c-19.88,2.31-38.04-2.72-53.69-15.51c-4.74-3.88-9.06-8.28-13.92-12.76
		c-2.79,2.38-5.56,4.98-8.56,7.26c-18.43,14.02-38.22,15.94-59.15,6.3c-6.52-3.01-11.36-8.06-15.26-14.03
		c-0.36-0.56-0.67-1.15-1.01-1.72c-1.36-2.31-2.55-4.74-6.02-4.19c-3.55,0.56-3.53,3.36-4.21,5.91c-1.07,4-1.98,8.11-3.66,11.86
		c-4.34,9.7-12.04,16.26-21.33,20.95c-18.81,9.49-38.05,9.64-57.57,2.23c-10.77-4.09-20.17-10.22-28.17-18.5
		c-1.37-1.41-2.85-2.71-4.65-4.41c-11.67,13.65-26.15,19.77-43.83,19.03c-17.67-0.74-30.84-9.24-41.72-22.88
		c-15.65,8.09-31.71,11.14-48.82,5.88c-17.29-5.31-28.62-16.99-36.19-33.35c-8.53,1.27-16.93,1.73-25.3-0.31
		c-8.31-2.02-14.99-6.97-22.22-12.43c-0.8,1.92-1.55,3.31-1.98,4.79c-9.13,31.83-30.08,53.11-59.69,66.45
		c-15.66,7.05-32.16,10.89-49.42,10.34c-6.28-0.2-12.6-1.08-18.76-2.34c-3.42-0.7-5.54,0.02-7.88,2.41
		c-16.23,16.58-35,29.76-55.56,40.35c-14.26,7.35-29.13,13.22-45.15,15.47c-18.53,2.6-36.28,0.52-52.07-10.34
		c-5.17-3.56-9.71-8.06-14.35-12.34c-1.28-1.18-1.82-3.15-2.79-4.7c-3.08-4.93-6.35-9.75-9.26-14.78c-1.72-2.98-3.13-6.19-4.26-9.44
		c-3.82-10.99-7.56-22-11.08-33.09c-1.1-3.46-1.63-7.14-2.09-10.76c-2.58-20.2-0.9-40.16,3.34-60
		c7.85-36.69,24.61-69.15,46.92-98.97c19.82-26.49,43.36-49.22,70.46-68.15c15.06-10.51,31-19.55,48.5-25.47
		c10.91-3.69,22.19-5.46,33.64-6.68c11.36-1.22,22.05,1.44,32.93,3.63c5.85,1.18,11.8,1.83,17.72,2.64
		c1.14,0.16,2.35,0.07,3.49-0.12c4.27-0.69,6.6-3.11,7.07-7.48c1.24-11.57,2.35-23.14,5.49-34.43c2.47-8.92,5.82-17.39,11.35-24.84
		c2.38-3.21,2.71-6.19,0.84-9.69c-3.06-5.71-6.09-11.45-8.86-17.31c-7.6-16.12-13.05-32.78-11.96-50.95
		c1.24-20.64,9.46-37.88,24.99-51.6c1.18-1.04,2.34-2.12,4.34-3.93c-4.32-1.32-7.55-2.54-10.88-3.29
		c-12.82-2.88-25.66-5.65-38.5-8.38c-27.48-5.83-51.25-18.46-70.77-38.76c-16.33-16.98-26.57-37.12-28.97-60.62
		c-1.8-17.61,3.02-33.35,16.92-45.39c0.75-0.65,1.7-1.05,3.5-2.14c-3.36-1.86-5.39-3.17-7.56-4.15
		c-12.76-5.74-25.58-11.34-38.34-17.09c-15.82-7.14-31.4-14.76-44.72-26.14c-22.99-19.64-40.15-43.08-46.6-73.24
		c-3.5-16.35-3.9-32.79,1.21-48.86c9.51-29.93,29.76-49,59.89-57.63c9.67-2.77,19.68-3.84,29.61-3.76
		c20.35,0.18,39.8,5.03,58.54,13.01c29.72,12.65,54.29,32.19,75.9,55.8c4.95,5.4,9.69,10.99,14.61,16.42
		c10.48,11.57,23.74,17.04,39.14,18.61c17.17,1.75,34.51,2.5,51.35,6.84c27.49,7.08,51.26,20.6,70.25,41.76
		c15.99,17.82,25.58,38.76,28.03,62.77c0.24,2.31,0.61,4.62,1,6.91c0.94,5.58,4.52,8.69,9.71,10.27c4.3,1.31,8.6,2.61,12.89,3.94
		c9.62,2.98,18.51,7.45,26.84,13.09c5.07,3.43,6.15,3.05,9.1-2.43c3.09-5.74,3.4-12.12,4.35-18.34c3.97-25.97,7.51-52.02,16.91-76.8
		c8.8-23.2,21.06-44.18,39.13-61.42c14.08-13.43,30.55-22.78,49.92-25.47c22.94-3.19,42.72,4.06,58.9,20.76
		c11.01,11.37,17.8,25.25,23.22,39.87c6.04,16.28,9.44,33.22,12.01,50.35c2.2,14.62,4.43,29.25,7.14,43.78
		c1.05,5.62,2.46,11.36,6.25,17.11c2.08-3.35,3.94-6.17,5.62-9.08c8.97-15.52,19.52-29.81,32.75-41.99
		c15.53-14.3,33.22-25.03,53.32-31.58c13-4.23,26.14-4.75,39.15,0.09c3.26,1.21,6.31,2.98,9.43,4.54c2.06,1.04,4.06,2.18,6.65,3.57
		c0.99-2.07,1.95-3.73,2.62-5.51c3.58-9.54,7.78-18.75,13.43-27.28c15.96-24.1,38.67-38.05,66.59-43.85
		c13.67-2.84,27.23-2,40.01,4.17c5.22,2.52,10.11,5.73,15.7,8.94c1.1-1.61,2.3-3.12,3.23-4.78c8.26-14.7,17.32-28.87,28.36-41.65
		c21.59-24.98,46.77-44.95,78.57-55.5c16.48-5.47,33.42-7.83,50.69-6.06c17.36,1.77,32.69,8.83,46,20.08
		c17.69,14.94,27.7,34.22,31.41,56.9c4.42,27-2.06,51.84-15.09,75.36c-15.46,27.89-38.5,47.73-66.3,62.5
		c-14.61,7.76-29.94,13.75-45.87,18.23c-4.45,1.25-8.8,2.84-13.95,4.52c1.56,2.06,2.63,3.66,3.88,5.1
		c11.58,13.37,14.71,29.02,12.77,46.17c-2.54,22.39-13.2,40.61-28.74,56.25c-10.42,10.49-22.8,18.36-35.87,25.14
		c-17.2,8.93-35.25,15.75-53.69,21.6c-1.7,0.54-3.38,1.16-5.17,1.78C1333.66,476.48,1337.17,481.65,1340.84,487.16z M1021.86,281.64
		c-0.32-1.97-0.61-3.94-0.96-5.9c-1.97-11.3-3.52-22.69-6.03-33.86c-3.87-17.25-10.72-33.27-22.02-47.09
		c-9.44-11.54-21.86-17.46-36.62-17.41c-13.04,0.05-24.68,4.92-34.98,12.93c-15.15,11.77-26.45,26.64-35.13,43.6
		c-12.75,24.92-18.75,51.82-23.13,79.19c-2.02,12.63-3.9,25.3-6.37,37.85c-1.11,5.66-3,11.31-5.47,16.52
		c-3.37,7.1-10.12,8.61-16.76,4.38c-2.09-1.33-3.96-3.04-5.78-4.73c-11.58-10.7-24.73-18.53-40.18-22.25
		c-6.3-1.52-12.6-3.1-18.82-4.94c-6.99-2.06-13.02-5.62-15.08-13.19c-1-3.64-1.38-7.54-1.46-11.33
		c-0.51-23.24-9.01-43.11-25.12-59.72c-20.25-20.89-45.49-31.28-74-34.58c-11.72-1.36-23.49-2.4-35.16-4.1
		c-12.89-1.87-24.84-6.52-35.01-14.8c-5.66-4.61-10.92-9.78-15.91-15.12c-12.41-13.26-24.69-26.63-39.07-37.84
		c-17.81-13.89-37.4-24.3-59.36-29.88c-18.94-4.82-37.93-5.42-56.5,1.55c-22.45,8.43-35.38,25.1-38.72,48.55
		c-2.5,17.52,2.04,34.1,10.49,49.52c9.23,16.84,22.49,30.01,38.11,40.96c14.83,10.39,31.18,17.87,47.67,25.08
		c17.85,7.8,35.72,15.54,52.55,25.48c23.73,14.01,44.81,31.17,62.43,52.42c15.02,18.12,24.04,38.92,27.58,62.2
		c2.31,15.2,6.25,29.98,13.4,43.73c3.04,5.85,6.14,11.68,9.3,17.7c-0.3,0.27-0.75,0.76-1.27,1.14
		c-20.93,15.12-30.8,35.25-27.54,61.21c1.65,13.14,6.46,25.1,14.28,35.79c6.55,8.96,14.6,16.37,23.92,22.4
		c1.73,1.12,3.37,2.36,5.78,4.06c-3.72,1.56-6.42,2.75-9.16,3.84c-21.54,8.56-34.36,34.57-26.47,53.72
		c1.93,4.69,0.49,8.88-3.21,12.19c-2.23,1.99-4.44,4.26-7.09,5.48c-9.6,4.43-18.19,10.21-26.26,17.03
		c-5.16,4.36-10.96,3.67-16.69-0.01c-2.76-1.77-5.79-3.31-8.9-4.29c-15.04-4.76-30.21-4.02-45.34-0.46
		c-15.76,3.7-29.93,10.99-43.54,19.56c-23.03,14.5-42.84,32.57-60.5,53.23c-19.32,22.61-35,47.34-45.99,75.02
		c-8.24,20.76-13.18,42.2-13.66,64.57c-0.11,5.3,0.48,10.62,0.79,15.93c0.92,15.92,5.58,30.75,13.54,44.49
		c5.16,8.9,11.57,16.67,21.54,20.72c3.84,1.56,7.45,3.71,11.26,5.37c8.47,3.7,17.12,6.45,26.6,5.36
		c13.7-1.57,26.73-5.36,39.09-11.44c17.26-8.48,32.9-19.56,48.67-30.42c4.79-3.3,8.4-7.53,10.73-12.87c0.4-0.91,0.88-1.8,1.4-2.65
		c2.71-4.45,6.47-5.57,10.41-2.29c4.16,3.47,9.01,4.32,13.92,4.71c21.21,1.72,41.02-2.69,59.17-14.1
		c24.35-15.31,38.32-37.41,42.75-65.6c1-6.37,0.79-12.93,1.21-19.4c0.24-3.77,0.16-7.68,3.44-10.62c3.62,0.65,5.49,2.92,6.69,6.09
		c2.89,7.64,5.96,15.21,10.84,21.86c10.61,14.46,26.95,20.3,43.39,11.54c4.6-2.45,6.66-1.52,8.96,3.27
		c2.31,4.8,4.71,9.54,7.08,14.31c9.83,19.85,39.19,28.17,58.28,12.49c2.19-1.79,4.29-3.7,6.61-5.32c2.84-1.99,4.74-1.69,6.87,1.08
		c1.52,1.97,2.74,4.17,4.04,6.3c4.07,6.65,9.23,12.2,16.03,16.13c18.55,10.7,42.92,3.95,49.7-17.92c0.49-1.59,0.95-3.21,1.67-4.7
		c1.98-4.14,5.64-4.78,8.74-1.4c2.02,2.2,3.67,4.73,5.48,7.11c11.6,15.22,25.95,26.35,45.32,29.43c10.88,1.73,21.63,0.73,31.49-4.84
		c7.76-4.39,16.36-13.77,14.48-28.4c-0.63-4.86,1.45-7.73,6.35-8.3c8.26-0.97,16.5-1.84,24.42-4.71c3.48-1.26,5.68,0.09,7.23,3.49
		c0.69,1.51,1.09,3.14,1.67,4.7c1.58,4.3,4.13,7.87,7.56,10.96c12.62,11.39,31.62,9.76,43.91,0.89
		c6.29-4.54,10.34-10.72,14.07-17.26c4.12-7.22,7.2-7.47,12.09-0.95c3.3,4.39,6.1,9.21,9.75,13.26
		c13.14,14.55,28.81,22.98,49.3,20.96c22.57-2.23,35.28-22.05,34.41-38.02c-0.12-2.15-0.04-4.35,0.31-6.47
		c0.35-2.1,0.77-4.39,3.5-4.89c2.41-0.44,4.26,0.52,5.63,2.42c1.56,2.16,3.1,4.33,4.5,6.59c5.47,8.83,12.32,16.1,22.13,20.18
		c16.32,6.79,31.83,0.84,39.49-13.15c0.72-1.31,1.44-2.63,2.29-3.87c3.01-4.37,7.9-4.56,11.21-0.32c1.74,2.22,3.16,4.69,4.76,7.03
		c6.5,9.5,13.3,18.74,22.33,26.07c20.09,16.33,42.38,26.13,68.95,23.32c10.85-1.15,20.25-5.12,27.39-13.67
		c0.28-0.34,0.83-0.46,1.62-0.88c1.75,1.35,3.64,2.67,5.36,4.18c5.13,4.5,9.99,9.33,15.32,13.57
		c29.5,23.44,63.29,35.55,100.79,37.43c11.83,0.59,23.64-0.45,35.23-2.91c14.64-3.11,28.42-8.36,40.23-17.93
		c3.91-3.17,7.39-6.59,9.61-11.28c6.02-12.72,8.47-26.24,9.15-40.12c0.99-20.25-2.95-39.74-9.79-58.71
		c-11.21-31.11-30.01-56.22-58.4-73.7c-12.16-7.48-25.09-12.34-39.7-11.09c-14.28,1.23-26.31,6.65-35.08,18.43
		c-4.33,5.82-7.21,12.32-9.65,19.08c-0.75,2.07-1.79,4.04-2.7,6.05c-0.34-0.07-0.68-0.14-1.02-0.2c-0.12-0.92-0.33-1.83-0.35-2.75
		c-0.11-5.33-0.15-10.66-0.27-15.99c-0.22-9.67,0.47-19.27,1.77-28.87c1.62-12.03,3.39-24.15,2.24-36.31
		c-1.57-16.65-9.01-30.16-24.43-37.58c-20.87-10.04-41.16-7.11-60.12,5.41c-5.51,3.64-10.1,8.65-15.17,12.96
		c-2.4,2.04-4.8,4.16-7.46,5.82c-4.32,2.7-7.08,1.63-8.9-3.12c-0.6-1.55-1.18-3.14-1.46-4.77c-1.21-7.04-2.59-14.08-3.37-21.17
		c-1.14-10.45-3.65-20.32-10.4-28.66c-10.19-12.58-16.19-27.49-23.34-41.77c-0.59-1.18-1.01-2.47-1.31-3.76
		c-2.25-9.53-1.58-18.93,2.12-27.93c3.86-9.39,8.3-18.54,12.38-27.84c5.9-13.43,9.37-27.37,8.45-42.18
		c-0.9-14.5-7.05-26.16-18.7-34.9c-1.14-0.86-2.22-1.8-3.18-2.58c5.15-12.8,5.91-25.93,7.34-39.13c6.31-0.38,12.44-0.56,18.53-1.16
		c6.94-0.68,13.96-1.19,20.73-2.72c18.36-4.13,34.62-12.45,48.8-25.01c8.73-7.74,16.24-16.35,21.09-26.91
		c4.84-10.53,8.15-21.51,5.43-33.38c-3.7-16.15-15.95-23.85-30.92-23.67c-6.48,0.08-13.14,2.18-19.35,4.41
		c-16.01,5.76-28.16,16.8-38.53,29.95c-11.39,14.45-19.22,30.71-24.04,48.44c-0.36,1.33-0.87,2.63-1.31,3.94
		c-0.89-1.48-0.97-2.77-0.87-4.05c0.71-9.67,2.46-19.18,5.77-28.27c12.16-33.41,34.73-57.54,66.41-73.22
		c14.66-7.26,30.21-12.25,45.95-16.65c18.65-5.21,36.8-11.69,53.9-20.92c22.16-11.95,40.32-28.14,53.22-49.92
		c11.8-19.94,16.44-41.2,11.78-64.23c-5.17-25.55-26.56-47.58-55.01-50.67c-14.88-1.61-29.59,0.1-43.78,5.21
		c-20.26,7.3-37.49,19.39-52.96,34.07c-15.09,14.32-27.21,31-37.5,49.02c-5.78,10.12-11.55,20.25-17.38,30.35
		c-1.24,2.14-2.46,4.58-5.62,4.1c-2.86-0.44-3.98-2.63-4.94-5.06c-0.98-2.47-2.08-4.92-3.33-7.26c-4.45-8.37-11.3-13.91-20.4-16.48
		c-8.63-2.44-17.42-2.64-26.16-0.59c-17.4,4.07-31.99,12.85-43.64,26.44c-15.12,17.64-21.89,38.13-21.13,61.26
		c0.16,4.96,0.1,9.92-0.01,14.88c-0.29,12.12-3.17,23.74-7.39,35c-4.22,11.26-7.44,22.75-9.87,34.51
		c-3.73,18.06-12.48,26.61-30.44,29.61c-2.21,0.37-4.65,0.14-6.86-0.37c-5.23-1.21-7.39-5.24-5.3-10.24
		c1.4-3.35,3.33-6.53,5.37-9.56c7.35-10.91,15.22-21.48,22.19-32.63c10.32-16.51,15.89-34.51,13.14-54.17
		c-2.73-19.46-17.26-33.33-39.84-31.07c-7.5,0.75-14.58,3.23-21.46,6.32c-19.99,8.95-35.47,23.31-48.66,40.41
		c-7.56,9.81-13.2,20.77-18.97,31.67c-2.09,3.93-4.56,7.81-7.55,11.09c-5.79,6.34-12.79,5.75-18.4-0.78
		c-7.87-9.17-13.24-19.71-15.94-31.32C1026.14,308.12,1024.26,295.27,1021.86,281.64z M551.87,341.59
		c-7.57-4.31-15.47-7.86-24.16-9.08c-7.87-1.1-15.67-0.67-22.81,3.28c-11.53,6.38-15.06,19.82-13.46,31.53
		c2.26,16.58,9.99,30.58,21.22,42.68c15.62,16.83,34.98,27.46,57.14,32.89c7.72,1.89,15.68,2.9,23.59,3.83
		c5.37,0.63,10.85,0.57,16.44-0.02c0-2.85,0.24-5.18-0.04-7.46c-2.45-20.21-8.14-39.37-18.71-56.91
		C581.23,365.99,569.09,351.85,551.87,341.59z"/>
	<path class="st1" d="M1021.88,282.08c2.37,13.19,4.26,26.04,7.2,38.65c2.71,11.62,8.07,22.16,15.94,31.32
		c5.6,6.52,12.6,7.12,18.4,0.78c2.99-3.27,5.46-7.15,7.55-11.09c5.77-10.9,11.41-21.87,18.97-31.67
		c13.19-17.1,28.67-31.46,48.66-40.41c6.88-3.08,13.96-5.56,21.46-6.32c22.57-2.26,37.11,11.61,39.84,31.07
		c2.76,19.65-2.81,37.66-13.14,54.17c-6.97,11.14-14.84,21.72-22.19,32.63c-2.04,3.02-3.96,6.21-5.37,9.56
		c-2.09,5,0.07,9.03,5.3,10.24c2.21,0.51,4.65,0.74,6.86,0.37c17.97-3,26.72-11.55,30.44-29.61c2.43-11.76,5.65-23.25,9.87-34.51
		c4.22-11.26,7.11-22.88,7.39-35c0.12-4.96,0.18-9.93,0.01-14.88c-0.77-23.13,6.01-43.62,21.13-61.26
		c11.65-13.6,26.24-22.38,43.64-26.44c8.74-2.04,17.52-1.85,26.16,0.59c9.09,2.57,15.94,8.11,20.4,16.48
		c1.25,2.35,2.35,4.79,3.33,7.26c0.96,2.43,2.08,4.62,4.94,5.06c3.16,0.48,4.38-1.95,5.62-4.1c5.83-10.09,11.59-20.23,17.38-30.35
		c10.3-18.03,22.42-34.7,37.5-49.02c15.47-14.68,32.7-26.78,52.96-34.07c14.19-5.11,28.9-6.82,43.78-5.21
		c28.44,3.08,49.84,25.12,55.01,50.67c4.66,23.03,0.03,44.29-11.78,64.23c-12.89,21.78-31.05,37.97-53.22,49.92
		c-17.11,9.22-35.25,15.7-53.9,20.92c-15.73,4.4-31.29,9.39-45.95,16.65c-31.68,15.68-54.25,39.81-66.41,73.22
		c-3.31,9.1-5.06,18.6-5.77,28.27c-0.09,1.28-0.01,2.57,0.87,4.05c0.44-1.31,0.94-2.61,1.31-3.94
		c4.83-17.73,12.65-33.98,24.04-48.44c10.36-13.15,22.52-24.19,38.53-29.95c6.2-2.23,12.87-4.33,19.35-4.41
		c14.97-0.18,27.22,7.52,30.92,23.67c2.72,11.87-0.59,22.85-5.43,33.38c-4.86,10.56-12.37,19.17-21.09,26.91
		c-14.17,12.57-30.44,20.88-48.8,25.01c-6.77,1.52-13.79,2.04-20.73,2.72c-6.09,0.6-12.21,0.78-18.53,1.16
		c-1.43,13.21-2.19,26.33-7.34,39.13c0.96,0.78,2.03,1.73,3.18,2.58c11.65,8.73,17.8,20.4,18.7,34.9
		c0.92,14.81-2.55,28.75-8.45,42.18c-4.08,9.3-8.52,18.45-12.38,27.84c-3.7,8.99-4.37,18.4-2.12,27.93c0.3,1.29,0.72,2.58,1.31,3.76
		c7.14,14.28,13.15,29.18,23.34,41.77c6.75,8.34,9.26,18.21,10.4,28.66c0.78,7.1,2.16,14.13,3.37,21.17
		c0.28,1.63,0.87,3.22,1.46,4.77c1.83,4.75,4.59,5.81,8.9,3.12c2.66-1.66,5.06-3.78,7.46-5.82c5.07-4.31,9.66-9.32,15.17-12.96
		c18.95-12.52,39.25-15.45,60.12-5.41c15.42,7.42,22.85,20.93,24.43,37.58c1.15,12.16-0.62,24.28-2.24,36.31
		c-1.29,9.6-1.99,19.19-1.77,28.87c0.12,5.33,0.16,10.66,0.27,15.99c0.02,0.92,0.23,1.83,0.35,2.75c0.34,0.07,0.68,0.14,1.02,0.2
		c0.91-2.01,1.95-3.98,2.7-6.05c2.44-6.76,5.32-13.26,9.65-19.08c8.77-11.78,20.8-17.21,35.08-18.43
		c14.62-1.26,27.55,3.6,39.7,11.09c28.39,17.48,47.19,42.6,58.4,73.7c6.84,18.97,10.78,38.46,9.79,58.71
		c-0.68,13.88-3.12,27.4-9.15,40.12c-2.22,4.69-5.71,8.12-9.61,11.28c-11.81,9.57-25.59,14.81-40.23,17.93
		c-11.59,2.47-23.4,3.5-35.23,2.91c-37.49-1.88-71.29-13.99-100.79-37.43c-5.33-4.24-10.19-9.07-15.32-13.57
		c-1.72-1.51-3.62-2.83-5.36-4.18c-0.79,0.42-1.34,0.54-1.62,0.88c-7.15,8.55-16.55,12.52-27.39,13.67
		c-26.57,2.81-48.86-6.99-68.95-23.32c-9.03-7.34-15.83-16.58-22.33-26.07c-1.6-2.34-3.02-4.81-4.76-7.03
		c-3.31-4.24-8.2-4.05-11.21,0.32c-0.85,1.23-1.57,2.55-2.29,3.87c-7.65,13.99-23.16,19.94-39.49,13.15
		c-9.81-4.08-16.66-11.35-22.13-20.18c-1.4-2.26-2.95-4.43-4.5-6.59c-1.37-1.9-3.22-2.86-5.63-2.42c-2.74,0.5-3.16,2.79-3.5,4.89
		c-0.35,2.12-0.43,4.32-0.31,6.47c0.87,15.97-11.85,35.79-34.41,38.02c-20.5,2.02-36.16-6.41-49.3-20.96
		c-3.66-4.05-6.46-8.87-9.75-13.26c-4.9-6.52-7.97-6.27-12.09,0.95c-3.73,6.54-7.79,12.72-14.07,17.26
		c-12.28,8.87-31.28,10.5-43.91-0.89c-3.43-3.09-5.98-6.66-7.56-10.96c-0.57-1.56-0.98-3.19-1.67-4.7c-1.55-3.4-3.75-4.75-7.23-3.49
		c-7.92,2.87-16.16,3.74-24.42,4.71c-4.9,0.57-6.98,3.44-6.35,8.3c1.89,14.63-6.72,24.01-14.48,28.4
		c-9.86,5.57-20.6,6.57-31.49,4.84c-19.36-3.07-33.72-14.21-45.32-29.43c-1.82-2.38-3.47-4.92-5.48-7.11
		c-3.1-3.38-6.76-2.73-8.74,1.4c-0.71,1.49-1.17,3.11-1.67,4.7c-6.78,21.87-31.15,28.62-49.7,17.92
		c-6.8-3.92-11.96-9.48-16.03-16.13c-1.3-2.13-2.53-4.33-4.04-6.3c-2.13-2.77-4.03-3.07-6.87-1.08c-2.31,1.62-4.42,3.53-6.61,5.32
		c-19.1,15.68-48.46,7.36-58.28-12.49c-2.36-4.77-4.77-9.51-7.08-14.31c-2.3-4.79-4.36-5.73-8.96-3.27
		c-16.44,8.77-32.78,2.92-43.39-11.54c-4.88-6.64-7.96-14.22-10.84-21.86c-1.2-3.17-3.06-5.44-6.69-6.09
		c-3.28,2.93-3.2,6.85-3.44,10.62c-0.42,6.47-0.21,13.03-1.21,19.4c-4.43,28.19-18.39,50.29-42.75,65.6
		c-18.15,11.41-37.96,15.82-59.17,14.1c-4.91-0.4-9.76-1.24-13.92-4.71c-3.94-3.29-7.69-2.17-10.41,2.29c-0.52,0.85-1,1.74-1.4,2.65
		c-2.32,5.34-5.94,9.57-10.73,12.87c-15.77,10.87-31.41,21.94-48.67,30.42c-12.36,6.07-25.39,9.87-39.09,11.44
		c-9.48,1.09-18.13-1.67-26.6-5.36c-3.81-1.66-7.41-3.81-11.26-5.37c-9.98-4.05-16.39-11.82-21.54-20.72
		c-7.96-13.74-12.62-28.57-13.54-44.49c-0.31-5.31-0.9-10.63-0.79-15.93c0.48-22.37,5.41-43.81,13.66-64.57
		c10.99-27.68,26.67-52.41,45.99-75.02c17.65-20.66,37.47-38.73,60.5-53.23c13.6-8.56,27.78-15.85,43.54-19.56
		c15.13-3.56,30.31-4.3,45.34,0.46c3.11,0.99,6.14,2.52,8.9,4.29c5.73,3.68,11.53,4.37,16.69,0.01c8.08-6.83,16.67-12.6,26.26-17.03
		c2.65-1.22,4.86-3.49,7.09-5.48c3.7-3.31,5.15-7.5,3.21-12.19c-7.89-19.16,4.93-45.17,26.47-53.72c2.74-1.09,5.44-2.27,9.16-3.84
		c-2.41-1.7-4.05-2.94-5.78-4.06c-9.33-6.03-17.37-13.44-23.92-22.4c-7.81-10.69-12.63-22.66-14.28-35.79
		c-3.26-25.96,6.61-46.09,27.54-61.21c0.53-0.38,0.97-0.87,1.27-1.14c-3.16-6.02-6.26-11.85-9.3-17.7
		c-7.15-13.75-11.09-28.53-13.4-43.73c-3.54-23.29-12.57-44.08-27.58-62.2c-17.61-21.25-38.69-38.41-62.43-52.42
		c-16.83-9.94-34.7-17.68-52.55-25.48c-16.49-7.21-32.85-14.69-47.67-25.08c-15.62-10.95-28.89-24.12-38.11-40.96
		c-8.45-15.41-12.98-32-10.49-49.52c3.34-23.45,16.27-40.12,38.72-48.55c18.57-6.97,37.56-6.37,56.5-1.55
		c21.96,5.59,41.54,15.99,59.36,29.88c14.38,11.22,26.66,24.59,39.07,37.84c5,5.33,10.25,10.51,15.91,15.12
		c10.17,8.27,22.12,12.92,35.01,14.8c11.67,1.69,23.44,2.74,35.16,4.1c28.51,3.3,53.75,13.69,74,34.58
		c16.1,16.61,24.61,36.48,25.12,59.72c0.08,3.79,0.47,7.69,1.46,11.33c2.07,7.57,8.1,11.13,15.08,13.19
		c6.22,1.84,12.52,3.42,18.82,4.94c15.45,3.73,28.6,11.55,40.18,22.25c1.83,1.69,3.7,3.4,5.78,4.73c6.64,4.24,13.39,2.72,16.76-4.38
		c2.48-5.21,4.36-10.86,5.47-16.52c2.47-12.55,4.35-25.21,6.37-37.85c4.38-27.38,10.38-54.27,23.13-79.19
		c8.68-16.96,19.98-31.83,35.13-43.6c10.3-8.01,21.94-12.88,34.98-12.93c14.76-0.06,27.18,5.87,36.62,17.41
		c11.3,13.82,18.16,29.85,22.02,47.09c2.51,11.18,4.06,22.57,6.03,33.86C1021.24,277.7,1021.54,279.67,1021.88,282.08z
		 M673.25,247.17c-10.98-3-22.25-4.17-33.54-5.02c-25.33-1.91-48.22-9.88-67.33-27.04c-8.67-7.78-16.75-16.22-25.28-24.16
		c-8.04-7.48-16.05-15.05-24.58-21.95c-16.81-13.6-35.6-23.38-57.05-27.45c-13.35-2.53-26.53-2.39-39.17,3.39
		c-18.7,8.55-29.31,26.48-24.72,49.35c3.82,19.04,14.43,34.15,29.06,46.6c15.25,12.99,32.74,22.27,50.95,30.24
		c19.69,8.62,39.26,17.47,57.66,28.68c24.04,14.65,46.25,31.49,64.25,53.4c12.62,15.37,22.73,32.09,26.91,51.8
		c1.82,8.62,3.13,17.35,4.49,26.05c1.19,7.58,3.68,14.61,8.91,20.28c3.94,4.27,8.13,8.4,12.7,11.96
		c11.29,8.78,24.12,14.76,37.62,19.3c24.72,8.3,49.94,11.55,75.76,6.41c17.85-3.55,33.35-11.51,44.69-26.2
		c10.21-13.23,15.87-28.36,15.06-45.05c-1.06-21.89-12.21-37.95-31.4-48.35c-11.15-6.04-23.37-8.6-35.79-10.37
		c-8.73-1.24-17.45-2.55-26.17-3.86c-3.75-0.56-6.84-2.45-9.73-4.8c-3.55-2.88-4.55-6.44-3.07-10.7c0.82-2.36,1.84-4.64,2.73-6.98
		c3.36-8.8,5.74-17.78,4.45-27.32c-1.62-12.04-6.53-22.64-14.34-31.92C705.08,260.16,690.6,252.09,673.25,247.17z M1095.35,701.07
		c2.81,4.42,6.33,8.16,10.7,11.05c16.35,10.83,36.76,3.77,42.92-14.82c2.25-6.79,2.85-13.78,1.33-20.71
		c-1.57-7.13-3.66-14.17-5.89-21.13c-2.79-8.72-6.04-17.29-8.93-25.97c-2.35-7.09-2.04-14.15,1.21-20.92
		c3.43-7.14,10.65-7.75,14.8-1.01c2.32,3.77,4.11,8.03,5.3,12.3c2.01,7.2,3.28,14.61,5.01,21.89c1.33,5.6,3.71,10.7,7.92,14.78
		c2.97,2.88,6.43,4.61,10.7,4.67c7.52,0.11,13.2-3.01,16.91-9.52c3.99-6.99,6.47-14.58,8.55-22.33c1.47-5.45,3-10.92,5-16.2
		c2.22-5.87,5.97-10.79,11.23-14.36c6.01-4.08,11.9-1.59,12.7,5.65c0.43,3.91,0.42,8.1-0.54,11.87c-1.84,7.24-4.46,14.28-6.83,21.39
		c-4.72,14.18-8.12,28.49-5.58,43.62c2.01,12,6.55,22.72,15.42,31.24c18.96,18.21,50.8,17.43,69.19,3.22
		c9.26-7.15,14.98-16.4,15.59-28.39c0.48-9.47-2.66-17.67-8.7-24.83c-3.98-4.71-8.29-9.14-12.1-13.98
		c-13.26-16.84-17.48-35.73-11.41-56.39c2.19-7.45,5.49-14.64,8.86-21.67c4.76-9.92,9.87-19.66,12.64-30.38
		c1.97-7.63,2.96-15.29,1.59-23.23c-2.9-16.82-15.55-27.69-32.64-27.93c-9.56-0.13-18.51,2.19-26.94,6.46
		c-17.25,8.74-29.97,22.1-38.36,39.38c-4.57,9.42-8.11,19.33-12.25,28.97c-1.83,4.27-3.66,8.62-6.11,12.54
		c-1.62,2.59-4.07,4.89-6.63,6.59c-3.36,2.22-6.89,1.12-9.07-2.27c-0.88-1.37-1.77-2.98-1.92-4.55c-0.4-4.27-0.74-8.6-0.49-12.87
		c0.65-11.47,1.75-22.91,2.43-34.37c0.84-14.29-10.72-26.41-26.25-26.89c-13.64-0.42-25.02,4.52-34.86,13.61
		c-9.21,8.51-15.73,18.89-21.02,30.14c-8.87,18.87-13.99,38.81-16.7,59.38c-1.77,13.4-2.22,26.94-0.36,40.36
		c1.59,11.52,4.05,22.92,5.88,34.42C1088.8,687.23,1091.22,694.05,1095.35,701.07z M855.18,415.75c-1.11,2.42-2.15,4.88-3.33,7.26
		c-9.15,18.52-18.04,37.18-30.32,53.94c-1.26,1.72-2.25,3.71-3.03,5.7c-1.22,3.08-1.21,6.31,0.52,9.17
		c2.91,4.78,6.58,8.71,12.33,10.24c10.9,2.91,21.98,4.12,33.16,2.83c18.32-2.12,31.89-11.03,38.65-28.79
		c3.67-9.64,7.21-19.34,10.7-29.05c3.53-9.81,7.89-19.08,15.79-26.27c9.53-8.67,23.95-9.75,34.11-0.72
		c4.07,3.62,7.38,7.83,9.23,12.87c2.28,6.23,4.18,12.62,5.81,19.05c1.95,7.67,4.56,15.02,9.32,21.37
		c6.31,8.42,14.56,13.74,25.38,13.74c14.54,0,25.22-6.95,31.79-19.65c10.33-19.97,10.35-40.63,2.68-61.47
		c-4.23-11.5-10.83-21.72-17.47-31.93c-3.62-5.56-6.91-11.41-9.71-17.42c-8.83-19-11.79-39.4-14.01-60.01
		c-1.59-14.72-3.39-29.45-6.05-44c-2.61-14.24-8.36-27.37-17.7-38.68c-11.75-14.23-28.86-17.9-45.4-9.89
		c-11.76,5.69-20.49,14.68-27.82,25.21c-12.64,18.16-20.46,38.44-25.85,59.73c-4.99,19.72-7.25,39.92-9.98,60.03
		C870.89,371.9,865.6,394.15,855.18,415.75z M1533.93,861.59c12.1,14.44,15.44,31.07,11.8,49.19
		c-3.56,17.73-19.01,27.38-36.72,23.43c-6.12-1.36-11.59-4.15-16.77-7.52c-13.79-8.97-24.51-20.94-33.28-34.73
		c-13.18-20.72-20.66-43.13-20.15-67.94c0.38-18.03,3.33-35.78,5.6-53.61c1.35-10.58,2.62-21.18,1.51-31.85
		c-1.2-11.56-6.36-21-16.25-27.37c-8.37-5.39-17.76-5.72-27.03-3.54c-19,4.45-33.6,15.68-43.18,32.33
		c-17.57,30.55-20.18,62.96-9.22,96.4c7.96,24.28,21.32,45.53,38.11,64.54c10.13,11.47,21.2,22.1,32,32.97
		c27.03,27.19,60.43,38.61,98.09,38.76c11.96,0.05,23.9-1.35,35.72-3.57c24.69-4.64,39.14-19.08,43.87-43.64
		c2.77-14.36,1.9-28.55-1.24-42.63c-6.49-29.12-20.29-54.13-43.1-73.71c-9.31-7.99-19.75-14.25-31.72-17.42
		c-12.95-3.43-24.47-0.65-33.89,9.1c-5.45,5.65-8.59,12.65-10.11,20.31c-2.36,11.89-2.31,23.84,0.16,35.69
		c1.81,8.66,4.53,17.06,9.33,24.62c2.45,3.86,5.52,7.11,9.86,8.89c5.02,2.06,9.44,0.4,11.44-4.63c0.83-2.1,1.13-4.52,1.18-6.8
		c0.1-5.66-0.35-11.34-0.09-16.98c0.41-8.97,7.18-12.76,14.95-8.23C1528.01,855.54,1530.58,858.57,1533.93,861.59z M419.59,921.85
		c-8.08-10.8-10.28-23.21-8.33-36.06c4.92-32.32,23.13-54.97,52.31-69.04c8.3-4,17.18-5.12,26.29-3.58c6.79,1.15,12.75,4.07,17,9.63
		c6.02,7.88,8.72,17.01,7.34,26.74c-1.3,9.19-3.64,18.25-5.85,27.29c-2.19,8.93-4.01,17.82-3.71,27.11
		c0.5,16.04,9.47,26.59,25.31,29.26c9.95,1.68,19.92,0.9,29.88,0.1c22.72-1.82,40.06-13.25,54.1-30.48c0.74-0.9,1.18-2.05,2.04-3.56
		c-1.42,0.08-2.1-0.02-2.7,0.18c-7.49,2.46-15.08,2.25-22.72,0.93c-7.22-1.25-14.48-2.26-21.64-3.8c-4.52-0.97-9.02-2.35-13.26-4.18
		c-4.51-1.94-6.66-5.91-6.62-10.85c0.02-1.98,0.24-3.99,0.62-5.93c1.65-8.31,5.89-15.51,9.82-22.85c2.91-5.42,6.23-10.7,8.45-16.41
		c9.02-23.22,9.82-47.06,4.27-71.19c-2.33-10.15-6.11-19.74-12.3-28.21c-10.28-14.07-23.93-20.13-41.34-17.18
		c-17.85,3.03-34.18,9.78-49.25,19.74c-25.16,16.63-46.47,37.27-64.07,61.72c-22.62,31.41-39.44,65.2-42.74,104.56
		c-1.45,17.27,0.61,33.9,8.01,49.68c10.49,22.39,33.94,35.94,60.8,30.21c46.29-9.87,67.35-57.2,55.45-95.25
		c-1.42-4.53-3.73-8.96-6.46-12.86c-6.36-9.09-21.07-9.73-26.77,2.9c-2.88,6.39-2.86,12.77-1.08,19.49
		c1.09,4.12,1.72,8.53,1.56,12.77c-0.53,13.79-15.37,21.84-27.3,14.95C424.28,926.26,422.27,924.16,419.59,921.85z M1275.08,309.53
		c-9.67,3.27-18.86,7.45-27.21,13.44c-23.9,17.15-31.2,43.12-25.17,69.19c1.91,8.28,6.83,14.27,14.7,17.8
		c9.56,4.29,15.66,11.61,18.51,21.66c0.77,2.72,1.4,5.48,2.09,8.22c1.96,7.74,3.81,15.51,5.91,23.21c1.31,4.8,4.22,8.7,8.11,11.75
		c7.59,5.95,15.52,3.07,18.81-4.53c5.66-13.08,7.2-26.57,5.68-40.56c-1.12-10.3-1.3-20.62-0.07-30.91
		c2.92-24.52,13.67-45.76,27.94-65.42c10.02-13.8,22.64-24.79,37.33-33.43c11.24-6.62,23.07-11.98,35.5-15.87
		c14.61-4.56,29.4-8.54,44.02-13.06c20.37-6.31,39.58-15.07,55.88-29.11c17.85-15.38,30.03-34.12,33.13-58.05
		c3.39-26.19-13.39-49.66-39.34-54.76c-14.41-2.83-28.18-0.32-41.51,5.2c-22.4,9.27-40.16,24.64-55.58,42.95
		c-12.73,15.11-22.72,32.03-31.86,49.47c-8.05,15.35-16.26,30.59-26.98,44.32c-10.95,14.02-23.91,25.53-40.64,32.17
		C1288.3,305.59,1282,307.27,1275.08,309.53z M733.81,661.96c-8.42,1.41-15.86-0.89-22.41-6.16c-2.72-2.18-5.28-4.58-7.75-7.04
		c-2.95-2.94-5.58-6.19-8.6-9.05c-9.92-9.41-21.49-14.4-35.42-12.63c-8.22,1.04-15.36,4.22-20.92,10.54
		c-13.65,15.52-9.73,40.74,8.15,51.76c11.91,7.34,23.85,14.64,35.9,21.75c15.45,9.12,32.08,14.41,50.13,15.23
		c25.92,1.17,47.3-7.63,63.49-28.21c17.36-22.06,17.07-53.81-0.85-74.81c-9.79-11.47-22.33-18.85-36.62-23.28
		c-9.06-2.81-18.21-5.35-27.31-8.01c-8.08-2.36-15.52-6.02-22.18-11.17c-4.71-3.64-8.41-8.04-9.91-14
		c-1.61-6.43,0.72-12.95,6.18-16.7c4.58-3.15,9.7-4.28,15.2-3.62c10.52,1.25,19.51,5.9,26.72,13.4c5.04,5.24,9.32,11.26,13.6,17.18
		c3.66,5.05,7.49,9.8,13.06,12.83c9.28,5.05,18.97,1.93,23.47-7.61c3.33-7.08,3.82-14.49,1.53-21.92c-9.84-32-30.9-53.12-62.7-63.14
		c-14.63-4.61-29.92-6.61-45.18-7.99c-17.25-1.55-33.14,2.96-46.95,13.41c-12.96,9.81-19.87,22.99-19.8,39.55
		c0.06,14.84,5.27,27.7,14.99,38.7c10.3,11.65,23.43,19.09,37.93,24.18c11.78,4.13,23.71,7.82,35.49,11.94
		c8.38,2.93,16.32,6.92,22.86,13.02c2.99,2.79,5.84,6.06,7.71,9.65C748.88,649.91,743.24,659.64,733.81,661.96z M852.57,514.02
		c-1.17,0.05-2.33,0.06-3.5,0.16c-16.5,1.34-29.22,11.56-33.91,27.39c-2.54,8.59-3.23,17.44-1.67,26.22
		c2.34,13.1,5.19,26.11,7.95,39.13c2,9.45,4.17,18.85,4.39,28.57c0.35,15.84-2.51,31.15-7.74,46.04
		c-2.99,8.52-3.73,17.19-2.14,26.07c1.96,10.97,10.29,20.08,20.42,22.31c18.56,4.1,37.72-7.65,42.4-26.09
		c2.14-8.43,1.58-16.86-0.59-25.2c-1.85-7.09-3.88-14.13-5.7-21.23c-1.14-4.45-1.12-8.94,0.75-13.23c2.1-4.83,5.9-6.89,10.9-5.37
		c2.79,0.85,5.55,2.32,7.84,4.13c5.17,4.08,9.18,9.23,11.73,15.33c3.53,8.45,6.91,16.96,10.23,25.49
		c2.79,7.16,5.86,14.16,10.4,20.42c10.85,14.95,28.51,21.36,46.34,16.8c14.8-3.78,26.19-16,27.84-30.65
		c1.3-11.57-1.91-22.14-9.02-31.4c-8.22-10.72-19-18.27-31.3-23.36c-10.44-4.32-21.34-7.53-31.96-11.42c-4.67-1.71-9.41-3.5-13.67-6
		c-5.99-3.51-7.06-9.55-2.61-14.85c2.5-2.98,5.75-5.62,9.17-7.47c7.31-3.96,14.94-7.35,22.48-10.88
		c14.53-6.82,27.4-15.86,37.45-28.49c7.62-9.58,12.51-20.35,13.23-32.82c0.75-13.02-11.49-24.34-22.96-25.45
		c-10.37-1-19.82,1.6-28.16,7.95c-8.14,6.2-13.96,14.23-18.22,23.43c-3.01,6.5-5.82,13.09-8.87,19.57
		c-5.08,10.79-11.55,20.63-20.37,28.79c-3.82,3.53-7.86,6.7-12.89,8.38c-6.59,2.19-11.32-0.59-12.11-7.55
		c-0.31-2.71,0.16-5.64,0.85-8.31c0.87-3.37,2.36-6.57,3.55-9.86c2.38-6.57,5.11-13.04,7-19.75c2.51-8.93-0.6-16.46-8.13-21.82
		C866.42,515.02,860.17,513.75,852.57,514.02z M1089.77,344.34c-6.89,15.22-11.92,31.07-16.21,47.18
		c-3.53,13.25-5.57,26.67-5.93,40.41c-0.31,11.86-1.81,23.65-6.51,34.66c-5.19,12.15,6.26,24.22,16.1,24.47
		c2.97,0.08,6.03-0.01,8.93-0.59c7.35-1.46,14.62-3.3,21.94-4.88c14.62-3.15,29.06-3,43.24,2.4c7.94,3.02,15.92,5.93,23.97,8.63
		c9.22,3.1,18.65,4.73,28.48,3.61c10.33-1.18,19.88-4.32,28.08-10.78c13.38-10.56,19.04-24.5,15.43-41.13
		c-3.65-16.79-15.04-26.61-31.63-30.32c-13.95-3.12-27.5-1.15-40.56,4.31c-6.91,2.89-13.56,6.41-20.5,9.23
		c-7.23,2.94-14.64,5.45-22.04,7.97c-1.85,0.63-3.93,0.75-5.91,0.76c-10.59,0.01-17.31-8.8-14.25-18.97
		c2.12-7.07,5.51-13.62,10.29-19.28c11.6-13.75,23.2-27.5,35.02-41.06c8.49-9.75,15.76-20.23,20.97-32.08
		c3.12-7.09,5.14-14.46,5-22.25c-0.22-12.83-7.13-22.01-18.4-23.97c-3.86-0.67-8.04-0.64-11.9,0.04
		c-17.04,3.02-30.19,12.68-41.37,25.32C1102.63,318.6,1096.03,330.95,1089.77,344.34z M923.83,743.21
		c-3.49-11.77-12.13-16.9-24.06-14.26c-8.06,1.79-14.19,6.42-18.78,13.12c-5.9,8.62-8.57,18.31-9.14,28.66
		c-0.29,5.31-0.26,10.67-0.97,15.93c-1.22,9.1-7.05,15.06-14.82,15.84c-7.24,0.73-12.27-3.24-12.76-10.13
		c-0.08-1.15-0.07-2.39,0.28-3.46c2.01-6.15,3.93-12.34,6.28-18.37c1.91-4.89,2.74-9.85,3.03-15.06
		c0.52-9.55-7.69-14.15-14.91-13.29c-8.15,0.97-13.34,5.85-14.3,13.94c-1.11,9.34-4.92,17.19-12,23.44
		c-3.33,2.94-5.49,6.63-6.76,10.89c-4.31,14.45-6.4,29.26-6.73,44.28c-0.28,12.85,1.2,25.59,3.93,38.15
		c2.13,9.8,5.28,19.25,10.25,28.04c3.74,6.62,8.88,11.59,16.1,14.25c12,4.43,25.74-1.6,26.35-17.36c0.24-6.29-0.95-12.27-3.41-18
		c-2.63-6.12-5.35-12.2-8.17-18.24c-2.11-4.5-2.82-9.2-2.54-14.1c0.4-6.91,5.06-12.77,11.35-14.22c6.9-1.59,13.43,1.3,16.59,8.02
		c1.89,4.02,3.21,8.39,4.21,12.74c3.87,16.95,10.27,32.7,21.23,46.37c9.6,11.97,21.6,20.21,36.83,23.15
		c7.56,1.46,14.96,0.88,21.68-3.37c6.4-4.05,8.87-11.17,6.26-18.26c-0.74-2.01-1.83-3.93-3.02-5.72c-3.79-5.76-9.4-9.28-15.41-12.34
		c-24.09-12.26-35.54-32.66-37.62-58.96c-1.23-15.59,2.87-30.01,9.95-43.75c2.59-5.03,5.14-10.09,7.54-15.22
		C923.53,759.02,924.93,751.73,923.83,743.21z M674.49,852.89c2.86,4.59,6.35,8.58,11.14,11.23c8.83,4.89,18.01,2.59,23.52-5.83
		c5.35-8.19,5.83-17.23,4.21-26.48c-2.48-14.17-9.37-26.28-18.38-37.23c-10.88-13.23-18.45-27.98-22.16-44.78
		c-2.32-10.48-6.64-20.24-12.56-29.23c-8.25-12.53-19.07-21.72-33.72-25.9c-18.17-5.18-35.15,2.94-42.74,20.2
		c-5.07,11.51-6.34,23.45-4.16,35.68c1.93,10.81,4.5,21.5,6.81,32.24c4,18.62,3.81,37.04-2.76,55.12
		c-2.85,7.83-5.91,15.57-8.72,23.41c-2.22,6.19-1.47,12.14,2.18,17.64c5.93,8.93,16.17,12.37,27.86,9.55
		c12.43-3,20.09-11.25,23.74-23.34c2.4-7.94,2.58-16.05,1.61-24.25c-0.74-6.29-1.41-12.63,0.54-18.84
		c2.4-7.65,8.29-11.7,16.25-11.18c5.48,0.36,10.09,2.83,13.04,7.34c2.42,3.7,4.13,7.93,5.77,12.07
		C668.83,837.57,671.4,844.94,674.49,852.89z M1323.56,829.91c-0.46-1.25-0.93-2.5-1.37-3.75c-7.33-20.83-7.32-41.42,1.78-61.8
		c2.31-5.16,4.44-10.42,6.31-15.76c1.2-3.43,2.24-7.05,2.51-10.64c0.71-9.67-7.37-16.49-16.82-14.41
		c-10.7,2.36-18.82,8.32-23.77,18.17c-3.39,6.77-5.54,13.97-5.18,21.63c0.25,5.31,0.84,10.6,1.43,15.88
		c0.62,5.49,1.13,10.94-0.76,16.3c-1.12,3.17-2.96,5.65-6.53,6.17c-3.63,0.53-6.35-1.36-7.76-4.32c-2.19-4.62-4.24-9.41-5.49-14.35
		c-1.5-5.95-2.11-12.12-3.08-18.2c-1.14-7.09-2.54-14.13-6.28-20.4c-7.44-12.47-21.95-14.53-32.79-4.81
		c-5.33,4.77-9.12,10.53-11.86,17.08c-8.51,20.4-12.13,41.83-12.82,63.75c-0.31,9.96,0.2,19.98,0.99,29.92
		c0.83,10.54,3.78,20.62,8.99,29.91c4.05,7.22,9.74,12.7,17.85,15.1c8.76,2.59,17.48-2.11,20.1-10.85c0.75-2.51,0.99-5.22,1.18-7.86
		c0.52-7.31-1.63-14.15-3.87-20.98c-2.69-8.22-5.85-16.34-7.72-24.75c-1.12-5.03-0.99-10.69,0.05-15.77c1.35-6.59,7.57-7.77,12-2.68
		c1.83,2.1,3.35,4.59,4.52,7.13c2.44,5.29,4.57,10.72,6.78,16.1c5.14,12.51,10.92,24.69,19.18,35.5c6.2,8.11,13.64,14.57,23.8,17.29
		c12.69,3.39,25.87-4.74,27.79-17.47c1.03-6.8,0.87-13.62-1.58-20.21C1328.67,844.12,1326.27,837.38,1323.56,829.91z
		 M1136.65,852.85c-4.01-2.68-8.15-5.21-12.01-8.1c-5.11-3.82-9.48-8.43-12.46-14.14c-3.85-7.38-2.32-13.85,4.3-18.94
		c1.32-1.02,2.71-1.94,4.03-2.95c24.49-18.88,24.1-55.67-0.86-73.48c-13.79-9.84-29.09-12.88-45.57-8.97
		c-14.1,3.35-25.51,10.46-31.8,24.19c-6.44,14.05-8.07,28.77-5.74,43.93c2.1,13.64,4.55,27.19,3.5,41.12
		c-0.91,11.99-3.85,23.2-10.02,33.63c-2.16,3.66-3.83,7.83-4.7,11.99c-2.43,11.63,4.65,21.97,15.82,23.63
		c5.69,0.85,10.96-0.56,15.58-3.95c6.63-4.87,10.19-11.75,12.07-19.55c1.67-6.89,1.42-13.87,0.59-20.86
		c-0.59-4.95-1.38-9.92-1.44-14.88c-0.03-2.7,0.84-5.63,2.05-8.09c3-6.06,8.48-6.92,13.5-2.4c3.68,3.32,6.13,7.44,7.39,12.23
		c1.4,5.31,2.61,10.66,4.07,15.95c3.54,12.83,8.87,24.75,17.83,34.82c7.43,8.35,16.26,14.29,27.6,15.66
		c10.44,1.26,19.83-1,25.82-10.35c6.13-9.58,4.95-19.34-1.17-28.63c-4.02-6.1-9.51-10.66-15.72-14.39
		C1145.34,857.92,1141.3,855.57,1136.65,852.85z M960.6,880.12c7.76,2.13,15.6,3,23.66,2.13c11.62-1.24,21.92-5.5,30.71-13.14
		c5.71-4.96,9.2-11.37,10.62-18.8c2.25-11.76-3.9-22.37-14.77-25.55c-5.34-1.56-10.6-0.99-15.57,1.39
		c-4.8,2.29-9.52,4.79-14.21,7.31c-4.73,2.55-9.76,3.25-15,2.77c-5.55-0.51-11.05-5.07-12.44-10.18c-1.23-4.52,0.9-10.07,5.12-13.2
		c3.28-2.43,7-2.93,10.93-2.32c4.11,0.64,8.19,1.46,12.32,1.97c5.27,0.65,9.91-0.95,13.54-4.85c6.3-6.77,3.78-16.82-4.95-19.77
		c-1.85-0.62-3.91-0.77-5.89-0.81c-3.83-0.09-7.66,0.17-11.49,0.06c-3.61-0.11-6.48-1.77-7.84-5.22c-1.39-3.54-0.78-6.9,1.91-9.7
		c3-3.12,6.6-4.93,11-5.19c4.52-0.26,8.54,1.16,12.37,3.29c3.34,1.86,6.57,3.95,9.9,5.82c12.31,6.91,24.06-1.38,27.41-10.47
		c4.66-12.64-0.89-27-13.37-33.45c-10.96-5.67-22.77-6.25-34.61-4.52c-17.13,2.5-30.27,12.09-40.09,25.79
		c-16.68,23.28-23.35,49.44-19.79,77.92c1.25,9.98,4.56,19.46,10.5,27.78C937.92,869.44,947.93,876.02,960.6,880.12z M813.1,751.79
		c-0.85-11.13-9.69-18.42-20.53-18.47c-5.42-0.02-10.91,1-16.25,2.12c-8.64,1.82-17.25,3.53-26.13,3.81
		c-9.46,0.3-18.45-2.34-27.67-3.54c-6.09-0.79-12.21-1.69-18.33-1.78c-5.91-0.09-10.71,2.62-14.54,7.45
		c-8.29,10.46-2.39,31.84,11.8,35.36c4.75,1.18,9.88,1.33,14.81,1.21c11.32-0.27,17.54,6.08,17.77,17.45
		c0.14,6.94-1.44,13.54-3.11,20.15c-2.07,8.24-3.92,16.49-4.22,25.04c-0.53,14.59,2.08,28.51,8.47,41.65
		c3.46,7.11,8.74,12.55,16,15.88c9.69,4.44,20.22,2.5,27.51-5.24c7.49-7.95,9.16-17.9,8.74-28.29c-0.37-9.24-3.07-18.01-6.38-26.59
		c-2.75-7.15-5.52-14.29-8.22-21.45c-2.84-7.55-4.44-15.32-4.12-23.45c0.34-8.69,5.56-14.33,14.24-14.95
		c2.65-0.19,5.33-0.05,7.99,0.02c5.26,0.14,9.74-1.79,13.73-5.08C811.08,767.78,813.41,760.76,813.1,751.79z M1016.58,691.7
		c3.51,14.94,13.78,23.18,27.81,27.09c6.42,1.79,12.94,0.8,18.56-3.36c6.29-4.65,10.4-10.74,11.79-18.49
		c1.18-6.62,0.91-13.23-0.4-19.83c-1.85-9.36-6.54-17.35-11.66-25.21c-3.26-5.01-6.43-10.15-8.94-15.56
		c-4.76-10.23-4.53-20.59,0.37-30.86c2-4.2,3.74-8.54,5.31-12.92c1.5-4.17,1.94-8.43-0.32-12.58c-2.65-4.86-6.82-7.62-12.1-8.85
		c-4.95-1.15-9.93-1.06-14.87-0.01c-11.9,2.52-22.51,7.36-29.63,17.75c-5.29,7.72-7.99,16.42-8.51,25.76
		c-0.91,16.35,4.19,31.22,11.78,45.32C1011.03,669.72,1015.11,679.79,1016.58,691.7z M1073.84,547.4c3.85-2.89,8-5.47,11.5-8.74
		c6.4-5.99,11.55-12.88,12.95-21.92c1.07-6.91-1.25-12.43-6.87-16.53c-4.71-3.44-10.06-5.02-15.87-5.19
		c-17.61-0.5-33.44,5.1-47.89,14.63c-5.21,3.43-9.79,7.97-14.13,12.51c-4.39,4.6-7.55,10.09-8.79,16.53
		c-1.76,9.15,1.9,16.14,10.54,19.52c7.27,2.84,14.78,3.57,22.54,2.41C1050.49,558.72,1062.23,554.31,1073.84,547.4z M1237.76,266.42
		c-3.4,13.33,7,28.38,25.09,26.1c16.12-2.03,29.18-9.91,40.14-21.42c8.03-8.43,13.18-18.36,12.99-30.43
		c-0.18-11.64-9.11-21.01-20.67-21.61c-8.29-0.43-16.36,0.83-23.7,4.79C1254.58,233.03,1242.51,246.34,1237.76,266.42z
		 M1372.31,412.85c9.27-4.78,17.4-11.04,24.25-18.91c6.75-7.75,12.15-16.17,13.91-26.6c2.25-13.26-5.26-21.94-18.57-21.11
		c-0.99,0.06-1.98,0.21-2.97,0.36c-12.22,1.85-21.91,8.41-30.59,16.69c-15.28,14.58-24.29,32.68-29.2,52.97
		c-0.63,2.6-1.67,5.4-0.44,8.52C1344.24,424.99,1358.1,419.71,1372.31,412.85z M1190.96,776.65c-0.99-7.76-5.42-11.84-13.6-12.54
		c-12.46-1.07-23.65,6.39-27.9,18.96c-6.91,20.46-5.79,40.58,3.33,60.18c2.66,5.71,6.56,10.41,12.27,13.36
		c9.21,4.77,19.23,0.93,22.8-8.79c2.07-5.62,2.49-11.31,0.42-17.08c-1.63-4.54-3.03-9.16-4.67-13.69c-2.25-6.19-2.54-12.32,0-18.49
		c1.65-3.99,3.43-7.94,4.88-12.01C1189.54,783.61,1190.15,780.52,1190.96,776.65z M908.13,531.64c1.65-3.26,3.25-6.56,4.97-9.78
		c5.52-10.34,11.81-20.06,21.53-27.07c6.81-4.91,13.97-8.92,22.53-9.92c4.57-0.54,9.1-1.45,14.19-2.28c-0.46-1.62-0.58-2.95-1.18-4
		c-4.4-7.63-8.69-15.34-13.49-22.71c-1.84-2.83-4.7-5.18-7.51-7.14c-3.58-2.49-5.93-2.26-8.97,0.7c-2.95,2.88-5.65,6.07-8.1,9.39
		c-4.97,6.75-8.05,14.49-11.25,22.17c-3.65,8.77-7.76,17.33-15.09,23.81c-3.75,3.32-8.66,5.63-9.82,11.22
		c-2.64,1.58-1.77,3.81-1.38,6.17c0.7,4.23,1.07,8.53,1.5,12.8c0.12,1.15-0.08,2.33-0.02,3.49c0.2,3.52,2.93,4.95,5.79,2.88
		c1.3-0.94,2.31-2.38,3.19-3.76C906.09,535.93,906.89,534.08,908.13,531.64z M1372.96,901.44c-5.88-3.08-12.14-4.27-18.76-4.48
		c-9.93-0.33-19.59,1.27-29.18,3.46c-7.11,1.62-14.16,1.82-21.24-0.07c-1.17-0.31-2.43-0.26-4.42-0.45c0.94,1.7,1.33,2.77,2.02,3.59
		c12.89,15.25,28.75,25.6,48.62,29.32c9.23,1.73,18.25,1.52,26.79-2.84c9.36-4.77,11.28-14.53,4.23-22.34
		C1378.94,905.33,1376.1,903.72,1372.96,901.44z M1159.79,750.9c3.61,1.13,7.15,2.86,10.83,3.27c10.49,1.17,20.05-1.95,28.85-7.58
		c5.76-3.68,10.21-8.47,12.63-14.99c3.42-9.21-0.16-17.03-9.25-20.53c-5.66-2.18-11.38-1.96-17.2-1.01
		c-11.73,1.91-21.6,7.38-28.21,17.14C1150.64,737.27,1151.28,744.84,1159.79,750.9z M981.7,603.34c1.37-6.96,4.38-13.24,7.88-19.33
		c0.99-1.72,2.06-3.48,2.55-5.37c0.33-1.27,0.1-3.01-0.55-4.16c-1.85-3.26-4.75-3.85-7.93-1.56c-5,3.6-9.57,7.84-14.8,11.03
		c-8.65,5.28-17.69,9.93-26.54,14.89c-2.17,1.21-4.44,2.36-6.34,3.93c-4.24,3.5-4.07,5.44,0.4,8.41c1.11,0.74,2.19,1.61,3.42,2.05
		c10.48,3.81,20.95,7.62,31.49,11.25c3.42,1.18,5.88,0.01,7.42-3.22c0.69-1.45,0.91-3.16,1.14-4.79
		C980.44,612.38,980.93,608.26,981.7,603.34z M1171.28,700.9c9.84-3.88,19.84-6.47,30.61-5.11c4.82,0.61,6.39-1.33,5.88-6.12
		c-0.64-6.11-1.26-12.23-1.98-18.34c-0.12-1.04-0.66-2.04-1.18-3.56c-2.4,1.45-4.41,2.57-6.31,3.84
		c-7.15,4.76-14.85,6.47-23.27,4.38c-0.97-0.24-1.91-0.63-2.89-0.77c-3.4-0.5-4.87,0.13-5.24,3.56c-0.66,6.09-0.85,12.25-0.86,18.39
		C1166.04,699.59,1167.93,700.94,1171.28,700.9z M810.19,519.61c1.73-3.92,2.95-8.01,6.55-10.99c2.34-1.94,1.73-4.53-1.08-6.16
		c-4.08-2.36-8.3-3.88-13.31-2.79c-6.65,1.44-13.43,2.26-20.13,3.44c-1.03,0.18-1.96,0.86-3.59,1.61c1.29,1.53,2.15,2.65,3.12,3.66
		c3.45,3.6,6.95,7.15,10.42,10.74c1.97,2.04,3.8,4.21,5.88,6.13c2.85,2.64,5.64,2.6,8.32-0.15
		C807.74,523.69,808.72,521.9,810.19,519.61z M906.1,702.35c-6.21-11.78-6.21-11.78-10.82-13.31c-0.78,6.12-1.72,12.1-2.26,18.13
		c-0.72,8.05-0.6,7.99,7.18,6.67c3.5-0.59,7.06-0.79,11.38-1.26C909.69,709.03,908.07,706.02,906.1,702.35z M1206.37,523.93
		c2.48-4.06,4.95-8.11,7.9-12.94c-7.6,0.06-14.17,1.15-20.33,2.29c0.48,6.12,0.82,11.73,1.39,17.32c0.24,2.32,0.02,5.07,3.37,6.42
		C1201.17,532.82,1203.6,528.69,1206.37,523.93z M1007.45,509.88c6.03-5.42,12.95-9.85,19.14-16.5c-1.85-0.16-2.66-0.41-3.39-0.26
		c-7.3,1.46-14.6,2.78-22.12,2.14c-1.03-0.09-2.15,0.94-3.56,1.6c2.52,4.61,4.67,8.69,7.01,12.67
		C1004.84,510.06,1006.09,510.05,1007.45,509.88z"/>
	<path class="st1" d="M552.17,341.8c16.93,10.05,29.07,24.2,38.91,40.53c10.57,17.54,16.25,36.71,18.71,56.91
		c0.28,2.27,0.04,4.61,0.04,7.46c-5.59,0.59-11.07,0.65-16.44,0.02c-7.91-0.92-15.87-1.94-23.59-3.83
		c-22.16-5.42-41.52-16.05-57.14-32.89c-11.23-12.1-18.95-26.1-21.22-42.68c-1.6-11.72,1.94-25.16,13.46-31.53
		c7.14-3.95,14.95-4.38,22.81-3.28C536.4,333.74,544.3,337.28,552.17,341.8z M576.31,429.25c5.63,1.21,11.24,2.9,17,1.46
		c0.14-0.64,0.25-0.96,0.28-1.29c0.03-0.33,0-0.67-0.06-0.99c-4.73-27.78-17.61-50.73-40.27-67.85c-6.89-5.2-14.58-8.68-23.15-10.04
		c-12.33-1.95-21.66,7.47-19.68,19.77c1.49,9.26,5.26,17.52,11.12,24.79C535.64,412.58,553.72,423.79,576.31,429.25z"/>
	<path class="st2" d="M673.64,247.28c16.96,4.81,31.44,12.87,42.68,26.21c7.82,9.28,12.72,19.88,14.34,31.92
		c1.29,9.53-1.09,18.52-4.45,27.32c-0.89,2.33-1.91,4.62-2.73,6.98c-1.48,4.25-0.47,7.81,3.07,10.7c2.89,2.35,5.99,4.24,9.73,4.8
		c8.72,1.3,17.44,2.61,26.17,3.86c12.42,1.77,24.65,4.33,35.79,10.37c19.19,10.4,30.34,26.46,31.4,48.35
		c0.81,16.69-4.86,31.82-15.06,45.05c-11.34,14.69-26.85,22.65-44.69,26.2c-25.82,5.14-51.04,1.89-75.76-6.41
		c-13.5-4.53-26.33-10.52-37.62-19.3c-4.57-3.56-8.77-7.69-12.7-11.96c-5.23-5.67-7.72-12.71-8.91-20.28
		c-1.37-8.71-2.67-17.44-4.49-26.05c-4.17-19.71-14.29-36.43-26.91-51.8c-18-21.92-40.21-38.76-64.25-53.4
		c-18.4-11.21-37.97-20.06-57.66-28.68c-18.22-7.98-35.7-17.25-50.95-30.24c-14.62-12.45-25.23-27.56-29.06-46.6
		c-4.59-22.86,6.02-40.8,24.72-49.35c12.64-5.78,25.82-5.92,39.17-3.39c21.45,4.06,40.24,13.85,57.05,27.45
		c8.53,6.9,16.53,14.47,24.58,21.95c8.54,7.94,16.62,16.37,25.28,24.16c19.11,17.16,42,25.14,67.33,27.04
		C651,243.01,662.27,244.17,673.64,247.28z M707.13,436.45c2.3,0.97,4.54,2.12,6.91,2.88c10.04,3.22,20.03,3.34,29.66-1.4
		c15.71-7.73,19.21-25.6,7.19-38.34c-12.51-13.26-27.92-18.7-46.18-15.6c-16.36,2.78-22.33,18.78-16.98,31.5
		C691.57,424.63,697.76,431.48,707.13,436.45z M661.24,294.23c-3.57-2.13-7.04-4.43-10.72-6.34c-5.41-2.82-11.22-3.97-17.35-3.75
		c-11.75,0.42-19.08,9.37-16.71,20.94c3.75,18.32,15.2,30.25,32.01,37.38c5.11,2.17,10.61,2.54,16.18,1.67
		c9.44-1.46,15.46-8.27,15.59-17.78c0.06-4.23-0.87-8.23-2.64-12.08C673.97,306.41,668.82,299.79,661.24,294.23z"/>
	<path class="st3" d="M1095.15,700.76c-3.94-6.7-6.35-13.53-7.52-20.88c-1.83-11.49-4.29-22.89-5.88-34.42
		c-1.86-13.43-1.41-26.96,0.36-40.36c2.71-20.57,7.83-40.51,16.7-59.38c5.29-11.26,11.81-21.63,21.02-30.14
		c9.84-9.09,21.23-14.03,34.86-13.61c15.53,0.48,27.09,12.6,26.25,26.89c-0.67,11.46-1.78,22.9-2.43,34.37
		c-0.24,4.27,0.1,8.6,0.49,12.87c0.15,1.57,1.03,3.18,1.92,4.55c2.19,3.4,5.71,4.49,9.07,2.27c2.57-1.69,5.02-4,6.63-6.59
		c2.45-3.92,4.27-8.26,6.11-12.54c4.13-9.63,7.67-19.55,12.25-28.97c8.39-17.28,21.12-30.64,38.36-39.38
		c8.43-4.27,17.38-6.6,26.94-6.46c17.1,0.24,29.74,11.11,32.64,27.93c1.37,7.93,0.39,15.6-1.59,23.23
		c-2.77,10.72-7.88,20.47-12.64,30.38c-3.37,7.03-6.67,14.22-8.86,21.67c-6.07,20.66-1.85,39.55,11.41,56.39
		c3.81,4.84,8.12,9.27,12.1,13.98c6.04,7.15,9.18,15.35,8.7,24.83c-0.61,11.99-6.33,21.23-15.59,28.39
		c-18.39,14.21-50.23,14.99-69.19-3.22c-8.87-8.52-13.41-19.25-15.42-31.24c-2.54-15.13,0.86-29.44,5.58-43.62
		c2.36-7.1,4.99-14.15,6.83-21.39c0.96-3.77,0.97-7.97,0.54-11.87c-0.8-7.23-6.68-9.73-12.7-5.65c-5.26,3.57-9,8.49-11.23,14.36
		c-2,5.27-3.53,10.74-5,16.2c-2.09,7.75-4.57,15.33-8.55,22.33c-3.71,6.51-9.39,9.63-16.91,9.52c-4.27-0.06-7.73-1.79-10.7-4.67
		c-4.2-4.08-6.59-9.18-7.92-14.78c-1.73-7.28-3-14.69-5.01-21.89c-1.19-4.27-2.98-8.53-5.3-12.3c-4.15-6.74-11.37-6.14-14.8,1.01
		c-3.25,6.77-3.57,13.83-1.21,20.92c2.89,8.69,6.13,17.26,8.93,25.97c2.23,6.96,4.33,14,5.89,21.13c1.52,6.93,0.92,13.92-1.33,20.71
		c-6.16,18.59-26.57,25.65-42.92,14.82C1101.68,709.22,1098.16,705.48,1095.15,700.76z"/>
	<path class="st2" d="M855.35,415.41C865.6,394.15,870.89,371.9,874,349c2.73-20.11,4.99-40.3,9.98-60.03
		c5.39-21.29,13.2-41.57,25.85-59.73c7.33-10.53,16.06-19.52,27.82-25.21c16.54-8,33.65-4.34,45.4,9.89
		c9.34,11.31,15.09,24.45,17.7,38.68c2.66,14.55,4.46,29.29,6.05,44c2.22,20.61,5.18,41.01,14.01,60.01
		c2.8,6.02,6.09,11.86,9.71,17.42c6.65,10.21,13.24,20.43,17.47,31.93c7.67,20.84,7.65,41.49-2.68,61.47
		c-6.57,12.7-17.25,19.65-31.79,19.65c-10.82,0-19.07-5.32-25.38-13.74c-4.76-6.36-7.37-13.71-9.32-21.37
		c-1.64-6.43-3.53-12.83-5.81-19.05c-1.85-5.04-5.16-9.25-9.23-12.87c-10.16-9.03-24.58-7.95-34.11,0.72
		c-7.9,7.19-12.26,16.45-15.79,26.27c-3.49,9.71-7.02,19.41-10.7,29.05c-6.77,17.76-20.33,26.66-38.65,28.79
		c-11.18,1.29-22.26,0.08-33.16-2.83c-5.74-1.53-9.42-5.46-12.33-10.24c-1.74-2.85-1.74-6.09-0.52-9.17
		c0.79-1.99,1.77-3.98,3.03-5.7c12.27-16.77,21.17-35.43,30.32-53.94C853.03,420.63,854.07,418.17,855.35,415.41z M958.66,367.16
		c3.49-3,5.8-6.82,7.52-11.03c7.74-18.96,7.37-37.93-0.1-56.85c-1.92-4.87-4.93-9.06-8.93-12.46c-6.03-5.12-13.53-5.44-19.65-0.52
		c-2.69,2.16-5.39,4.65-7.16,7.56c-12.02,19.72-14.87,40.64-7.32,62.67c2.15,6.27,5.8,11.6,11.46,15.3
		c5.64,3.69,11.53,4.19,17.41,0.73C954.15,371.23,956.07,369.32,958.66,367.16z"/>
	<path class="st2" d="M1533.69,861.33c-3.11-2.76-5.68-5.79-8.91-7.67c-7.77-4.53-14.54-0.73-14.95,8.23
		c-0.26,5.65,0.19,11.32,0.09,16.98c-0.04,2.28-0.34,4.7-1.18,6.8c-2,5.04-6.42,6.7-11.44,4.63c-4.34-1.78-7.4-5.03-9.86-8.89
		c-4.8-7.56-7.53-15.96-9.33-24.62c-2.47-11.85-2.52-23.79-0.16-35.69c1.52-7.66,4.66-14.66,10.11-20.31
		c9.41-9.76,20.94-12.53,33.89-9.1c11.98,3.17,22.41,9.43,31.72,17.42c22.82,19.58,36.61,44.59,43.1,73.71
		c3.14,14.07,4.01,28.27,1.24,42.63c-4.73,24.56-19.18,39-43.87,43.64c-11.82,2.22-23.75,3.62-35.72,3.57
		c-37.66-0.15-71.06-11.58-98.09-38.76c-10.8-10.86-21.88-21.5-32-32.97c-16.79-19.01-30.15-40.26-38.11-64.54
		c-10.96-33.44-8.34-65.86,9.22-96.4c9.58-16.65,24.18-27.88,43.18-32.33c9.28-2.17,18.67-1.85,27.03,3.54
		c9.89,6.37,15.05,15.81,16.25,27.37c1.11,10.67-0.16,21.27-1.51,31.85c-2.28,17.82-5.23,35.57-5.6,53.61
		c-0.52,24.81,6.96,47.22,20.15,67.94c8.77,13.79,19.49,25.76,33.28,34.73c5.18,3.37,10.66,6.16,16.77,7.52
		c17.72,3.95,33.16-5.7,36.72-23.43C1549.37,892.66,1546.03,876.03,1533.69,861.33z"/>
	<path class="st2" d="M419.83,922.12c2.44,2.04,4.44,4.14,6.86,5.53c11.93,6.89,26.77-1.16,27.3-14.95
		c0.16-4.24-0.47-8.65-1.56-12.77c-1.78-6.71-1.8-13.1,1.08-19.49c5.7-12.63,20.41-11.99,26.77-2.9c2.73,3.89,5.04,8.33,6.46,12.86
		c11.9,38.05-9.17,85.38-55.45,95.25c-26.86,5.73-50.31-7.82-60.8-30.21c-7.39-15.78-9.45-32.42-8.01-49.68
		c3.3-39.36,20.12-73.14,42.74-104.56c17.6-24.45,38.91-45.09,64.07-61.72c15.07-9.96,31.4-16.71,49.25-19.74
		c17.41-2.95,31.06,3.11,41.34,17.18c6.19,8.47,9.97,18.06,12.3,28.21c5.55,24.14,4.75,47.97-4.27,71.19
		c-2.22,5.7-5.54,10.98-8.45,16.41c-3.93,7.34-8.18,14.55-9.82,22.85c-0.39,1.94-0.61,3.95-0.62,5.93
		c-0.04,4.95,2.11,8.91,6.62,10.85c4.24,1.83,8.74,3.21,13.26,4.18c7.16,1.53,14.42,2.55,21.64,3.8c7.64,1.33,15.23,1.53,22.72-0.93
		c0.59-0.19,1.28-0.09,2.7-0.18c-0.86,1.52-1.3,2.66-2.04,3.56c-14.04,17.23-31.39,28.66-54.1,30.48c-9.96,0.8-19.93,1.57-29.88-0.1
		c-15.84-2.67-24.8-13.22-25.31-29.26c-0.29-9.28,1.52-18.18,3.71-27.11c2.22-9.04,4.55-18.1,5.85-27.29
		c1.38-9.73-1.32-18.86-7.34-26.74c-4.25-5.55-10.21-8.47-17-9.63c-9.11-1.55-17.99-0.42-26.29,3.58
		c-29.18,14.06-47.39,36.71-52.31,69.04C409.31,898.65,411.52,911.06,419.83,922.12z"/>
	<path class="st2" d="M1275.45,309.4c6.55-2.13,12.85-3.81,18.87-6.2c16.72-6.64,29.68-18.15,40.64-32.17
		c10.72-13.73,18.94-28.98,26.98-44.32c9.14-17.44,19.13-34.36,31.86-49.47c15.42-18.31,33.18-33.67,55.58-42.95
		c13.33-5.52,27.1-8.03,41.51-5.2c25.95,5.1,42.73,28.57,39.34,54.76c-3.1,23.93-15.28,42.67-33.13,58.05
		c-16.3,14.04-35.51,22.8-55.88,29.11c-14.62,4.53-29.41,8.5-44.02,13.06c-12.43,3.88-24.26,9.25-35.5,15.87
		c-14.69,8.64-27.31,19.63-37.33,33.43c-14.28,19.66-25.02,40.9-27.94,65.42c-1.23,10.29-1.04,20.61,0.07,30.91
		c1.52,14-0.02,27.49-5.68,40.56c-3.29,7.6-11.22,10.48-18.81,4.53c-3.88-3.05-6.8-6.95-8.11-11.75c-2.1-7.7-3.95-15.47-5.91-23.21
		c-0.69-2.74-1.32-5.5-2.09-8.22c-2.85-10.05-8.95-17.37-18.51-21.66c-7.86-3.53-12.78-9.53-14.7-17.8
		c-6.03-26.06,1.27-52.04,25.17-69.19C1256.21,316.98,1265.41,312.8,1275.45,309.4z"/>
	<path class="st3" d="M734.22,661.85c9.02-2.21,14.66-11.94,9.39-22.11c-1.86-3.6-4.72-6.86-7.71-9.65
		c-6.54-6.11-14.48-10.09-22.86-13.02c-11.78-4.12-23.72-7.81-35.49-11.94c-14.5-5.09-27.63-12.53-37.93-24.18
		c-9.73-11-14.93-23.86-14.99-38.7c-0.07-16.56,6.84-29.74,19.8-39.55c13.81-10.45,29.7-14.96,46.95-13.41
		c15.26,1.37,30.55,3.38,45.18,7.99c31.8,10.02,52.86,31.15,62.7,63.14c2.28,7.43,1.8,14.84-1.53,21.92
		c-4.5,9.55-14.19,12.66-23.47,7.61c-5.57-3.03-9.4-7.78-13.06-12.83c-4.29-5.91-8.56-11.94-13.6-17.18
		c-7.21-7.5-16.2-12.15-26.72-13.4c-5.51-0.65-10.62,0.48-15.2,3.62c-5.46,3.75-7.79,10.27-6.18,16.7c1.49,5.96,5.2,10.36,9.91,14
		c6.66,5.15,14.1,8.81,22.18,11.17c9.11,2.66,18.25,5.2,27.31,8.01c14.29,4.43,26.84,11.81,36.62,23.28
		c17.92,20.99,18.21,52.75,0.85,74.81c-16.19,20.57-37.57,29.37-63.49,28.21c-18.05-0.81-34.67-6.11-50.13-15.23
		c-12.05-7.11-23.99-14.41-35.9-21.75c-17.87-11.01-21.8-36.23-8.15-51.76c5.56-6.32,12.7-9.5,20.92-10.54
		c13.94-1.77,25.5,3.22,35.42,12.63c3.02,2.86,5.65,6.12,8.6,9.05c2.47,2.46,5.04,4.85,7.75,7.04
		C717.95,661.07,725.39,663.37,734.22,661.85z"/>
	<path class="st3" d="M853.03,514.02c7.14-0.27,13.38,1,18.93,4.95c7.53,5.36,10.64,12.88,8.13,21.82c-1.89,6.71-4.62,13.18-7,19.75
		c-1.19,3.29-2.67,6.49-3.55,9.86c-0.69,2.68-1.16,5.6-0.85,8.31c0.79,6.96,5.52,9.74,12.11,7.55c5.02-1.67,9.07-4.85,12.89-8.38
		c8.82-8.16,15.29-18,20.37-28.79c3.05-6.48,5.86-13.07,8.87-19.57c4.26-9.21,10.07-17.23,18.22-23.43
		c8.34-6.36,17.79-8.96,28.16-7.95c11.46,1.11,23.7,12.43,22.96,25.45c-0.71,12.47-5.61,23.24-13.23,32.82
		c-10.05,12.63-22.92,21.68-37.45,28.49c-7.54,3.54-15.16,6.93-22.48,10.88c-3.42,1.85-6.67,4.49-9.17,7.47
		c-4.44,5.3-3.38,11.33,2.61,14.85c4.27,2.5,9,4.29,13.67,6c10.62,3.9,21.52,7.1,31.96,11.42c12.3,5.09,23.08,12.64,31.3,23.36
		c7.1,9.26,10.31,19.83,9.02,31.4c-1.64,14.65-13.03,26.87-27.84,30.65c-17.84,4.55-35.49-1.85-46.34-16.8
		c-4.54-6.26-7.62-13.26-10.4-20.42c-3.32-8.53-6.7-17.04-10.23-25.49c-2.55-6.1-6.56-11.26-11.73-15.33
		c-2.29-1.81-5.05-3.28-7.84-4.13c-5-1.52-8.8,0.54-10.9,5.37c-1.87,4.29-1.9,8.78-0.75,13.23c1.82,7.1,3.85,14.14,5.7,21.23
		c2.17,8.34,2.73,16.77,0.59,25.2c-4.68,18.44-23.84,30.18-42.4,26.09c-10.12-2.24-18.45-11.34-20.42-22.31
		c-1.59-8.88-0.85-17.54,2.14-26.07c5.23-14.89,8.08-30.2,7.74-46.04c-0.21-9.72-2.38-19.12-4.39-28.57
		c-2.76-13.02-5.62-26.03-7.95-39.13c-1.57-8.78-0.87-17.63,1.67-26.22c4.68-15.83,17.41-26.04,33.91-27.39
		C850.23,514.08,851.4,514.07,853.03,514.02z"/>
	<path class="st2" d="M1089.91,344c6.12-13.05,12.72-25.39,22.08-35.98c11.18-12.65,24.33-22.3,41.37-25.32
		c3.86-0.68,8.04-0.71,11.9-0.04c11.28,1.96,18.18,11.14,18.4,23.97c0.13,7.79-1.88,15.17-5,22.25
		c-5.22,11.85-12.48,22.33-20.97,32.08c-11.82,13.56-23.42,27.31-35.02,41.06c-4.78,5.67-8.17,12.21-10.29,19.28
		c-3.05,10.16,3.67,18.98,14.25,18.97c1.98,0,4.06-0.13,5.91-0.76c7.4-2.52,14.81-5.03,22.04-7.97c6.94-2.82,13.59-6.34,20.5-9.23
		c13.06-5.45,26.6-7.43,40.56-4.31c16.58,3.71,27.98,13.53,31.63,30.32c3.61,16.63-2.05,30.57-15.43,41.13
		c-8.2,6.47-17.75,9.61-28.08,10.78c-9.82,1.12-19.25-0.51-28.48-3.61c-8.05-2.7-16.03-5.61-23.97-8.63
		c-14.18-5.4-28.61-5.56-43.24-2.4c-7.32,1.58-14.59,3.42-21.94,4.88c-2.9,0.58-5.96,0.66-8.93,0.59
		c-9.83-0.26-21.29-12.32-16.1-24.47c4.7-11.01,6.2-22.79,6.51-34.66c0.36-13.73,2.4-27.16,5.93-40.41
		C1077.85,375.41,1082.88,359.56,1089.91,344z"/>
	<path class="st2" d="M923.88,743.64c1.05,8.09-0.35,15.38-3.58,22.31c-2.39,5.13-4.95,10.19-7.54,15.22
		c-7.07,13.74-11.18,28.16-9.95,43.75c2.08,26.3,13.53,46.7,37.62,58.96c6.02,3.06,11.62,6.58,15.41,12.34
		c1.18,1.79,2.28,3.71,3.02,5.72c2.61,7.09,0.14,14.21-6.26,18.26c-6.72,4.25-14.12,4.83-21.68,3.37
		c-15.24-2.94-27.24-11.18-36.83-23.15c-10.96-13.67-17.36-29.42-21.23-46.37c-0.99-4.35-2.31-8.72-4.21-12.74
		c-3.17-6.72-9.7-9.61-16.59-8.02c-6.28,1.45-10.95,7.3-11.35,14.22c-0.28,4.91,0.43,9.6,2.54,14.1c2.82,6.03,5.54,12.12,8.17,18.24
		c2.46,5.73,3.65,11.71,3.41,18c-0.61,15.75-14.35,21.78-26.35,17.36c-7.22-2.67-12.36-7.63-16.1-14.25
		c-4.97-8.79-8.12-18.24-10.25-28.04c-2.73-12.56-4.21-25.3-3.93-38.15c0.33-15.02,2.42-29.83,6.73-44.28
		c1.27-4.26,3.43-7.95,6.76-10.89c7.07-6.25,10.89-14.11,12-23.44c0.96-8.09,6.14-12.97,14.3-13.94
		c7.22-0.86,15.44,3.73,14.91,13.29c-0.28,5.22-1.11,10.17-3.03,15.06c-2.35,6.02-4.27,12.22-6.28,18.37
		c-0.35,1.07-0.36,2.31-0.28,3.46c0.49,6.89,5.53,10.86,12.76,10.13c7.77-0.78,13.59-6.74,14.82-15.84
		c0.71-5.26,0.68-10.62,0.97-15.93c0.56-10.35,3.24-20.04,9.14-28.66c4.59-6.71,10.71-11.34,18.78-13.12
		C911.7,726.31,920.34,731.43,923.88,743.64z"/>
	<path class="st2" d="M674.29,852.58c-2.89-7.64-5.47-15.01-8.34-22.27c-1.64-4.15-3.35-8.37-5.77-12.07
		c-2.95-4.5-7.56-6.98-13.04-7.34c-7.96-0.52-13.85,3.53-16.25,11.18c-1.95,6.21-1.29,12.54-0.54,18.84
		c0.97,8.2,0.79,16.3-1.61,24.25c-3.65,12.09-11.31,20.34-23.74,23.34c-11.69,2.82-21.92-0.63-27.86-9.55
		c-3.65-5.5-4.4-11.45-2.18-17.64c2.81-7.84,5.87-15.58,8.72-23.41c6.58-18.08,6.77-36.5,2.76-55.12
		c-2.31-10.74-4.88-21.43-6.81-32.24c-2.19-12.23-0.91-24.17,4.16-35.68c7.6-17.26,24.57-25.39,42.74-20.2
		c14.66,4.18,25.47,13.38,33.72,25.9c5.93,9,10.25,18.75,12.56,29.23c3.71,16.8,11.28,31.55,22.16,44.78
		c9.01,10.95,15.9,23.06,18.38,37.23c1.62,9.25,1.14,18.29-4.21,26.48c-5.5,8.43-14.69,10.72-23.52,5.83
		C680.84,861.47,677.35,857.48,674.29,852.58z M623.44,784.05c1.1,1.02,2.07,2.23,3.31,3.02c9.68,6.2,21.34,3.07,22.98-9.36
		c0.82-6.24-0.36-12.31-3.4-17.85c-3.28-5.96-7.49-10.97-14.44-12.93c-5.32-1.5-9.78-0.24-12.35,4.6
		c-1.75,3.28-2.98,7.08-3.42,10.77C615.15,770.28,617.83,777.36,623.44,784.05z"/>
	<path class="st2" d="M1323.7,830.28c2.57,7.1,4.98,13.84,7.47,20.55c2.45,6.6,2.61,13.42,1.58,20.21
		c-1.92,12.72-15.11,20.86-27.79,17.47c-10.16-2.72-17.6-9.18-23.8-17.29c-8.27-10.81-14.05-22.99-19.18-35.5
		c-2.21-5.39-4.35-10.82-6.78-16.1c-1.17-2.54-2.69-5.03-4.52-7.13c-4.43-5.08-10.65-3.91-12,2.68c-1.04,5.08-1.17,10.74-0.05,15.77
		c1.87,8.41,5.03,16.53,7.72,24.75c2.23,6.83,4.38,13.67,3.87,20.98c-0.19,2.64-0.43,5.35-1.18,7.86
		c-2.62,8.74-11.34,13.44-20.1,10.85c-8.11-2.4-13.79-7.88-17.85-15.1c-5.22-9.28-8.16-19.37-8.99-29.91
		c-0.79-9.94-1.31-19.96-0.99-29.92c0.69-21.92,4.3-43.35,12.82-63.75c2.74-6.55,6.53-12.31,11.86-17.08
		c10.84-9.72,25.35-7.67,32.79,4.81c3.74,6.27,5.14,13.3,6.28,20.4c0.98,6.08,1.58,12.25,3.08,18.2c1.25,4.94,3.29,9.73,5.49,14.35
		c1.41,2.97,4.13,4.85,7.76,4.32c3.57-0.52,5.41-3,6.53-6.17c1.89-5.36,1.38-10.81,0.76-16.3c-0.59-5.28-1.18-10.58-1.43-15.88
		c-0.36-7.67,1.78-14.86,5.18-21.63c4.94-9.86,13.07-15.81,23.77-18.17c9.45-2.09,17.53,4.73,16.82,14.41
		c-0.26,3.59-1.31,7.21-2.51,10.64c-1.86,5.34-4,10.6-6.31,15.76c-9.1,20.38-9.11,40.97-1.78,61.8
		C1322.64,827.41,1323.11,828.66,1323.7,830.28z"/>
	<path class="st2" d="M1136.97,853.03c4.34,2.55,8.37,4.89,12.37,7.29c6.21,3.73,11.7,8.29,15.72,14.39
		c6.13,9.28,7.3,19.05,1.17,28.63c-5.98,9.35-15.37,11.61-25.82,10.35c-11.34-1.37-20.17-7.31-27.6-15.66
		c-8.96-10.06-14.29-21.99-17.83-34.82c-1.46-5.29-2.67-10.65-4.07-15.95c-1.26-4.79-3.71-8.91-7.39-12.23
		c-5.02-4.52-10.5-3.66-13.5,2.4c-1.22,2.46-2.09,5.39-2.05,8.09c0.06,4.97,0.86,9.93,1.44,14.88c0.83,6.99,1.07,13.97-0.59,20.86
		c-1.89,7.8-5.45,14.68-12.07,19.55c-4.62,3.39-9.89,4.8-15.58,3.95c-11.17-1.66-18.25-12-15.82-23.63
		c0.87-4.15,2.53-8.33,4.7-11.99c6.17-10.43,9.11-21.65,10.02-33.63c1.05-13.93-1.4-27.48-3.5-41.12
		c-2.33-15.16-0.7-29.88,5.74-43.93c6.29-13.72,17.7-20.84,31.8-24.19c16.49-3.91,31.78-0.87,45.57,8.97
		c24.96,17.81,25.35,54.6,0.86,73.48c-1.32,1.02-2.71,1.94-4.03,2.95c-6.62,5.09-8.15,11.57-4.3,18.94
		c2.98,5.71,7.35,10.32,12.46,14.14C1128.5,847.64,1132.64,850.17,1136.97,853.03z M1080.54,801.02
		c10.89-0.33,20.77-9.71,19.73-22.94c-0.92-11.69-13.06-18.59-23.35-12.97c-7.65,4.18-12.07,14.08-10.3,23.06
		C1068.21,796.17,1071.54,799.44,1080.54,801.02z"/>
	<path class="st2" d="M960.21,880.01c-12.29-3.98-22.29-10.56-29.62-20.84c-5.94-8.32-9.25-17.8-10.5-27.78
		c-3.56-28.48,3.11-54.64,19.79-77.92c9.82-13.71,22.96-23.29,40.09-25.79c11.84-1.73,23.65-1.15,34.61,4.52
		c12.48,6.46,18.03,20.82,13.37,33.45c-3.35,9.09-15.1,17.38-27.41,10.47c-3.34-1.87-6.56-3.96-9.9-5.82
		c-3.83-2.13-7.85-3.56-12.37-3.29c-4.41,0.26-8.01,2.06-11,5.19c-2.69,2.81-3.31,6.16-1.91,9.7c1.36,3.45,4.23,5.11,7.84,5.22
		c3.83,0.12,7.66-0.15,11.49-0.06c1.97,0.05,4.04,0.19,5.89,0.81c8.74,2.95,11.25,13,4.95,19.77c-3.63,3.9-8.26,5.5-13.54,4.85
		c-4.12-0.51-8.21-1.33-12.32-1.97c-3.93-0.61-7.65-0.11-10.93,2.32c-4.22,3.13-6.35,8.68-5.12,13.2
		c1.39,5.11,6.89,9.67,12.44,10.18c5.24,0.48,10.28-0.22,15-2.77c4.69-2.53,9.4-5.02,14.21-7.31c4.97-2.37,10.24-2.95,15.57-1.39
		c10.86,3.18,17.01,13.79,14.77,25.55c-1.42,7.43-4.91,13.84-10.62,18.8c-8.8,7.64-19.09,11.89-30.71,13.14
		C976.2,883.11,968.36,882.24,960.21,880.01z"/>
	<path class="st2" d="M813.14,752.23c0.26,8.53-2.06,15.55-8.5,20.85c-3.99,3.29-8.46,5.22-13.73,5.08
		c-2.66-0.07-5.34-0.21-7.99-0.02c-8.68,0.62-13.9,6.26-14.24,14.95c-0.32,8.13,1.28,15.9,4.12,23.45
		c2.7,7.17,5.47,14.31,8.22,21.45c3.31,8.58,6.01,17.35,6.38,26.59c0.42,10.39-1.26,20.33-8.74,28.29
		c-7.29,7.74-17.82,9.68-27.51,5.24c-7.25-3.32-12.54-8.77-16-15.88c-6.39-13.13-8.99-27.06-8.47-41.65
		c0.31-8.56,2.15-16.81,4.22-25.04c1.67-6.62,3.25-13.22,3.11-20.15c-0.23-11.37-6.45-17.71-17.77-17.45
		c-4.94,0.12-10.06-0.03-14.81-1.21c-14.19-3.52-20.08-24.9-11.8-35.36c3.83-4.83,8.63-7.54,14.54-7.45
		c6.12,0.09,12.24,0.99,18.33,1.78c9.22,1.2,18.22,3.84,27.67,3.54c8.89-0.28,17.49-1.99,26.13-3.81
		c5.34-1.13,10.83-2.15,16.25-2.12C803.41,733.36,812.25,740.65,813.14,752.23z"/>
	<path class="st3" d="M1016.45,691.3c-1.34-11.51-5.42-21.58-10.69-31.36c-7.59-14.1-12.68-28.97-11.78-45.32
		c0.52-9.34,3.22-18.04,8.51-25.76c7.12-10.4,17.73-15.24,29.63-17.75c4.94-1.04,9.92-1.14,14.87,0.01
		c5.28,1.23,9.45,3.99,12.1,8.85c2.26,4.15,1.82,8.42,0.32,12.58c-1.58,4.38-3.31,8.72-5.31,12.92c-4.9,10.27-5.13,20.63-0.37,30.86
		c2.51,5.41,5.68,10.55,8.94,15.56c5.12,7.86,9.81,15.85,11.66,25.21c1.31,6.6,1.58,13.22,0.4,19.83
		c-1.39,7.74-5.5,13.84-11.79,18.49c-5.63,4.16-12.14,5.15-18.56,3.36C1030.35,714.87,1020.08,706.64,1016.45,691.3z"/>
	<path class="st3" d="M1073.53,547.6c-11.3,6.71-23.04,11.12-35.72,13.02c-7.76,1.16-15.27,0.43-22.54-2.41
		c-8.64-3.38-12.3-10.37-10.54-19.52c1.24-6.44,4.4-11.93,8.79-16.53c4.34-4.54,8.92-9.07,14.13-12.51
		c14.45-9.53,30.29-15.12,47.89-14.63c5.81,0.16,11.16,1.75,15.87,5.19c5.62,4.1,7.94,9.62,6.87,16.53
		c-1.4,9.03-6.55,15.93-12.95,21.92C1081.84,541.93,1077.69,544.51,1073.53,547.6z"/>
	<path class="st2" d="M1237.81,266c4.7-19.67,16.77-32.97,33.79-42.15c7.34-3.96,15.41-5.21,23.7-4.79
		c11.56,0.59,20.49,9.97,20.67,21.61c0.19,12.07-4.96,22-12.99,30.43c-10.96,11.5-24.02,19.39-40.14,21.42
		C1244.75,294.8,1234.36,279.74,1237.81,266z"/>
	<path class="st2" d="M1371.97,413c-13.87,6.71-27.73,11.99-43.26,11.77c-1.23-3.12-0.19-5.92,0.44-8.52
		c4.91-20.29,13.92-38.4,29.2-52.97c8.68-8.28,18.37-14.84,30.59-16.69c0.98-0.15,1.97-0.3,2.97-0.36
		c13.3-0.83,20.81,7.85,18.57,21.11c-1.77,10.43-7.17,18.85-13.91,26.6C1389.7,401.81,1381.57,408.06,1371.97,413z"/>
	<path class="st2" d="M1190.96,777.07c-0.81,3.45-1.42,6.55-2.47,9.49c-1.45,4.06-3.23,8.01-4.88,12.01
		c-2.54,6.16-2.25,12.3,0,18.49c1.65,4.53,3.04,9.15,4.67,13.69c2.07,5.77,1.65,11.46-0.42,17.08c-3.57,9.71-13.59,13.56-22.8,8.79
		c-5.71-2.95-9.61-7.65-12.27-13.36c-9.11-19.6-10.24-39.71-3.33-60.18c4.24-12.57,15.44-20.02,27.9-18.96
		C1185.54,764.81,1189.97,768.89,1190.96,777.07z"/>
	<path class="st0" d="M907.97,531.98c-1.08,2.11-1.88,3.95-2.95,5.63c-0.88,1.38-1.89,2.82-3.19,3.76c-2.87,2.08-5.6,0.64-5.79-2.88
		c-0.07-1.16,0.13-2.34,0.02-3.49c-0.44-4.27-0.8-8.57-1.5-12.8c-0.39-2.36-1.25-4.59,1.38-6.17c1.17-5.59,6.07-7.9,9.82-11.22
		c7.32-6.48,11.43-15.04,15.09-23.81c3.2-7.69,6.28-15.43,11.25-22.17c2.44-3.32,5.15-6.51,8.1-9.39c3.04-2.96,5.39-3.19,8.97-0.7
		c2.82,1.96,5.67,4.31,7.51,7.14c4.8,7.37,9.09,15.08,13.49,22.71c0.61,1.05,0.72,2.39,1.18,4c-5.08,0.83-9.61,1.74-14.19,2.28
		c-8.56,1-15.72,5.01-22.53,9.92c-9.72,7.01-16.01,16.73-21.53,27.07C911.38,525.08,909.78,528.38,907.97,531.98z"/>
	<path class="st2" d="M1373.28,901.62c2.82,2.1,5.66,3.71,7.73,6.01c7.05,7.82,5.13,17.57-4.23,22.34
		c-8.55,4.36-17.56,4.57-26.79,2.84c-19.87-3.72-35.72-14.07-48.62-29.32c-0.69-0.82-1.08-1.9-2.02-3.59
		c1.99,0.19,3.26,0.13,4.42,0.45c7.08,1.89,14.13,1.7,21.24,0.07c9.59-2.19,19.25-3.78,29.18-3.46
		C1360.81,897.18,1367.08,898.36,1373.28,901.62z"/>
	<path class="st2" d="M1159.48,750.7c-8.2-5.85-8.84-13.42-2.03-23.48c6.61-9.76,16.48-15.23,28.21-17.14
		c5.82-0.95,11.54-1.17,17.2,1.01c9.1,3.51,12.67,11.32,9.25,20.53c-2.42,6.52-6.87,11.31-12.63,14.99
		c-8.8,5.63-18.36,8.75-28.85,7.58C1166.94,753.77,1163.4,752.03,1159.48,750.7z"/>
	<path class="st0" d="M981.58,603.74c-0.65,4.52-1.14,8.64-1.73,12.74c-0.24,1.62-0.45,3.34-1.14,4.79
		c-1.53,3.22-3.99,4.39-7.42,3.22c-10.54-3.63-21.02-7.44-31.49-11.25c-1.23-0.45-2.31-1.32-3.42-2.05
		c-4.47-2.97-4.64-4.91-0.4-8.41c1.9-1.57,4.17-2.71,6.34-3.93c8.85-4.96,17.89-9.6,26.54-14.89c5.23-3.19,9.8-7.44,14.8-11.03
		c3.18-2.29,6.08-1.71,7.93,1.56c0.65,1.15,0.89,2.89,0.55,4.16c-0.49,1.88-1.56,3.65-2.55,5.37
		C986.08,590.1,983.07,596.38,981.58,603.74z"/>
	<path class="st0" d="M1170.88,700.94c-2.95,0-4.83-1.36-4.83-3.78c0.02-6.13,0.21-12.3,0.86-18.39c0.37-3.44,1.83-4.07,5.24-3.56
		c0.98,0.14,1.92,0.53,2.89,0.77c8.42,2.09,16.13,0.39,23.27-4.38c1.9-1.27,3.91-2.38,6.31-3.84c0.52,1.53,1.06,2.52,1.18,3.56
		c0.71,6.11,1.34,12.22,1.98,18.34c0.5,4.79-1.06,6.73-5.88,6.12C1191.12,694.43,1181.12,697.02,1170.88,700.94z"/>
	<path class="st0" d="M810.04,519.95c-1.31,1.95-2.3,3.74-3.67,5.15c-2.68,2.76-5.48,2.79-8.32,0.15c-2.07-1.92-3.91-4.09-5.88-6.13
		c-3.47-3.59-6.97-7.14-10.42-10.74c-0.97-1.01-1.83-2.14-3.12-3.66c1.63-0.75,2.57-1.43,3.59-1.61c6.71-1.18,13.48-2,20.13-3.44
		c5.01-1.09,9.23,0.43,13.31,2.79c2.81,1.63,3.41,4.22,1.08,6.16C813.15,511.6,811.92,515.69,810.04,519.95z"/>
	<path class="st0" d="M906.28,702.68c1.79,3.34,3.4,6.36,5.31,9.91c-4.32,0.46-7.88,0.67-11.38,1.26c-7.78,1.31-7.9,1.38-7.18-6.67
		c0.54-6.02,1.48-12.01,2.26-18.13C899.89,690.58,899.89,690.58,906.28,702.68z"/>
	<path class="st0" d="M1206.19,524.25c-2.6,4.44-5.02,8.57-7.49,12.78c-3.36-1.35-3.14-4.1-3.37-6.42
		c-0.57-5.59-0.91-11.2-1.39-17.32c6.16-1.15,12.72-2.23,20.33-2.29C1211.32,515.82,1208.85,519.87,1206.19,524.25z"/>
	<path class="st0" d="M1007.18,510.09c-1.09-0.04-2.33-0.03-2.65-0.57c-2.34-3.97-4.49-8.05-7.01-12.67
		c1.41-0.67,2.53-1.69,3.56-1.6c7.52,0.64,14.82-0.68,22.12-2.14c0.73-0.15,1.54,0.1,3.39,0.26
		C1020.4,500.02,1013.48,504.46,1007.18,510.09z"/>
	<path class="st2" d="M575.9,429.17c-22.19-5.38-40.26-16.59-54.34-34.07c-5.86-7.27-9.63-15.53-11.12-24.79
		c-1.98-12.3,7.35-21.72,19.68-19.77c8.57,1.36,16.27,4.84,23.15,10.04c22.66,17.12,35.54,40.07,40.27,67.85
		c0.06,0.33,0.08,0.67,0.06,0.99c-0.03,0.33-0.13,0.64-0.28,1.29C587.55,432.14,581.95,430.46,575.9,429.17z"/>
	<path class="st1" d="M706.8,436.29c-9.04-4.82-15.22-11.66-19.07-20.81c-5.35-12.72,0.62-28.72,16.98-31.5
		c18.26-3.1,33.67,2.34,46.18,15.6c12.02,12.74,8.52,30.61-7.19,38.34c-9.63,4.74-19.62,4.62-29.66,1.4
		C711.68,438.57,709.43,437.42,706.8,436.29z"/>
	<path class="st1" d="M661.53,294.44c7.29,5.35,12.44,11.96,16.06,19.83c1.77,3.85,2.7,7.84,2.64,12.08
		c-0.13,9.51-6.16,16.32-15.59,17.78c-5.57,0.86-11.07,0.5-16.18-1.67c-16.8-7.13-28.26-19.05-32.01-37.38
		c-2.37-11.57,4.96-20.52,16.71-20.94c6.13-0.22,11.95,0.93,17.35,3.75C654.2,289.8,657.67,292.1,661.53,294.44z"/>
	<path class="st1" d="M958.4,367.42c-2.33,1.9-4.25,3.81-6.52,5.14c-5.88,3.46-11.77,2.96-17.41-0.73
		c-5.66-3.71-9.31-9.03-11.46-15.3c-7.55-22.03-4.7-42.95,7.32-62.67c1.77-2.91,4.47-5.4,7.16-7.56c6.12-4.92,13.62-4.6,19.65,0.52
		c4,3.4,7.01,7.6,8.93,12.46c7.47,18.92,7.84,37.89,0.1,56.85C964.46,360.34,962.15,364.16,958.4,367.42z"/>
	<path class="st1" d="M623.2,783.79c-5.37-6.42-8.05-13.5-7.09-21.48c0.44-3.69,1.67-7.49,3.42-10.77c2.58-4.85,7.04-6.1,12.35-4.6
		c6.96,1.96,11.16,6.97,14.44,12.93c3.05,5.54,4.23,11.61,3.4,17.85c-1.64,12.44-13.3,15.56-22.98,9.36
		C625.51,786.28,624.54,785.07,623.2,783.79z"/>
	<path class="st1" d="M1080.12,801.01c-8.58-1.57-11.91-4.84-13.49-12.85c-1.77-8.98,2.64-18.88,10.3-23.06
		c10.29-5.62,22.43,1.28,23.35,12.97C1101.31,791.31,1091.43,800.69,1080.12,801.01z"/>
</g>
</svg>
